<?xml version="1.0" standalone="no"?>
<!DOCTYPE svg PUBLIC "-//W3C//DTD SVG 20010904//EN"
 "http://www.w3.org/TR/2001/REC-SVG-20010904/DTD/svg10.dtd">
<svg version="1.0" xmlns="http://www.w3.org/2000/svg"
 width="240.000000pt" height="210.000000pt" viewBox="0 0 240.000000 210.000000"
 preserveAspectRatio="xMidYMid meet">
<metadata>
Created by potrace 1.16, written by Peter Selinger 2001-2019
</metadata>
<g transform="translate(0.000000,210.000000) scale(0.100000,-0.100000)"
fill="#000000" stroke="none">
<path d="M482 2040 c-104 -28 -187 -75 -264 -152 -232 -231 -236 -665 -10
-963 216 -284 479 -528 885 -822 l89 -64 96 65 c303 205 521 383 717 587 222
231 306 367 346 563 73 352 -82 657 -386 762 -72 25 -94 28 -220 28 -214 1
-308 -32 -512 -180 -20 -14 -23 -13 -55 13 -89 75 -184 126 -292 157 -113 33
-280 36 -394 6z m939 -270 c108 -11 259 -43 315 -66 56 -23 94 -62 94 -96 0
-30 0 -31 20 -13 29 26 101 26 137 -1 42 -32 67 -81 67 -133 0 -42 -29 -149
-43 -161 -3 -3 -14 -21 -24 -41 -11 -20 -41 -60 -69 -89 -45 -48 -49 -54 -32
-63 40 -23 106 -93 125 -133 24 -53 25 -134 2 -182 -68 -143 -345 -256 -681
-279 l-93 -6 51 -45 c58 -51 75 -83 60 -113 -15 -28 -24 -24 -39 17 -7 20 -38
66 -70 102 -31 37 -64 79 -73 93 -19 30 -186 165 -199 162 -5 -2 -8 1 -6 5 2
9 -92 96 -124 113 -15 8 -19 8 -15 0 4 -6 2 -11 -4 -11 -6 0 -14 8 -17 18 -14
34 -40 55 -59 44 -15 -8 -14 -11 12 -28 66 -41 110 -82 167 -154 33 -41 64
-74 68 -73 4 1 31 -30 61 -70 59 -79 82 -117 47 -77 -12 14 -26 24 -31 22 -12
-3 -198 26 -276 44 -194 45 -354 144 -397 248 -21 50 -21 135 0 177 16 30 111
129 124 129 8 0 81 -119 81 -131 0 -6 3 -8 8 -5 4 2 13 -7 19 -21 11 -23 11
-25 -10 -20 -21 6 -21 6 -3 -8 34 -26 71 -19 100 19 14 19 26 42 26 51 0 27
-38 92 -75 129 -39 39 -42 46 -20 46 20 0 19 13 -10 99 -47 137 -70 335 -45
382 49 90 488 153 831 119z"/>
<path d="M1063 1623 c15 -2 25 -8 22 -12 -2 -5 44 -9 103 -10 179 -2 368 -41
366 -75 -1 -11 4 -15 15 -12 9 3 35 10 59 16 23 6 42 14 42 19 0 11 -71 37
-155 56 -48 11 -135 17 -275 20 -113 2 -193 1 -177 -2z"/>
<path d="M1853 1500 c-28 -11 -39 -33 -48 -94 -3 -27 -18 -81 -32 -120 -13
-39 -27 -79 -30 -88 -3 -11 5 -22 26 -33 30 -15 33 -15 60 5 35 24 94 111 111
164 7 21 12 60 12 88 0 75 -36 103 -99 78z"/>
</g>
</svg>
