<?xml version="1.0" standalone="no"?>
<!DOCTYPE svg PUBLIC "-//W3C//DTD SVG 20010904//EN"
 "http://www.w3.org/TR/2001/REC-SVG-20010904/DTD/svg10.dtd">
<svg version="1.0" xmlns="http://www.w3.org/2000/svg"
 width="191.000000pt" height="127.000000pt" viewBox="0 0 191.000000 127.000000"
 preserveAspectRatio="xMidYMid meet">
<metadata>
Created by potrace 1.10, written by Peter Selinger 2001-2011
</metadata>
<g transform="translate(0.000000,127.000000) scale(0.100000,-0.100000)"
fill="#000000" stroke="none">
<path d="M1168 1103 c-1 -5 -21 -17 -43 -28 -60 -29 -69 -37 -53 -46 19 -13
22 -12 56 21 18 17 39 30 47 30 8 0 15 4 15 9 0 13 -17 23 -22 14z"/>
<path d="M1200 1100 c0 -4 16 -11 35 -14 19 -4 38 -13 42 -20 11 -17 62 -50
69 -43 7 6 -53 68 -63 65 -5 0 -15 1 -23 5 -31 11 -60 15 -60 7z"/>
<path d="M1179 991 c12 -8 12 -12 2 -25 -8 -9 -10 -16 -5 -16 122 -6 129 -5
112 12 -10 10 -25 14 -37 11 -12 -3 -32 2 -46 11 -13 9 -28 16 -32 16 -4 0 -2
-4 6 -9z"/>
<path d="M1038 948 c-18 -56 -8 -131 26 -199 14 -29 26 -57 26 -61 0 -4 9 -17
20 -28 15 -15 20 -16 20 -6 0 8 -5 18 -10 21 -20 12 -58 101 -69 160 -11 60
-6 121 10 131 12 7 12 24 0 24 -5 0 -15 -19 -23 -42z"/>
<path d="M1423 977 c-3 -5 0 -14 6 -20 8 -8 11 -8 11 1 0 17 80 15 123 -3 20
-8 38 -11 41 -6 3 5 -13 16 -35 25 -43 17 -136 19 -146 3z"/>
<path d="M1426 903 c-21 -6 -53 -33 -39 -33 5 0 14 5 20 11 17 17 70 14 89 -5
13 -14 19 -15 25 -5 18 30 -33 48 -95 32z"/>
<path d="M1190 702 c0 -20 12 -42 24 -42 6 0 17 -13 24 -30 l14 -30 96 0 c105
0 212 -14 252 -33 14 -7 26 -23 28 -36 2 -13 0 -21 -6 -17 -13 8 -165 -28
-156 -37 4 -4 18 -7 31 -7 12 0 23 -4 23 -10 0 -18 19 -10 25 11 7 21 8 21 32
-7 22 -26 24 -27 20 -7 -6 30 18 51 31 27 6 -11 11 -13 16 -5 4 6 12 11 17 11
6 0 7 -4 4 -10 -4 -6 8 -10 29 -10 19 0 41 -3 50 -6 10 -4 16 -1 16 9 0 16
-44 37 -75 34 -11 -1 -22 3 -24 8 -6 14 42 29 71 22 24 -6 52 -48 51 -77 -1
-51 -5 -61 -28 -70 -13 -5 -33 -18 -43 -28 -20 -20 -109 -58 -117 -50 -2 2 1
20 7 39 10 35 11 36 52 28 44 -8 52 -6 42 9 -3 6 -22 9 -42 8 -20 -1 -38 3
-41 8 -3 5 -12 -2 -20 -15 -8 -13 -12 -16 -9 -7 8 28 -10 30 -22 3 -9 -20 -9
-25 1 -25 21 0 9 -68 -14 -75 -10 -4 -19 -13 -19 -20 0 -8 -8 -19 -17 -24 -14
-8 -15 -11 -3 -11 31 -2 -61 -29 -118 -34 -50 -4 -60 -2 -72 15 -17 23 -40 25
-40 4 0 -8 -8 -15 -17 -14 -11 0 -13 3 -5 6 15 6 16 23 1 23 -6 0 -33 11 -61
25 -27 14 -54 25 -59 25 -14 0 -49 38 -49 53 0 16 -56 38 -77 30 -12 -5 -15
-2 -10 10 8 22 5 21 -21 -2 -12 -10 -19 -21 -15 -25 3 -3 -4 -6 -16 -6 -12 0
-19 4 -16 10 3 6 -3 10 -14 10 -12 0 -21 -4 -21 -9 0 -4 -11 -6 -25 -3 -16 3
-25 0 -25 -8 0 -10 -3 -10 -15 0 -11 9 -22 9 -50 0 l-35 -12 22 -17 22 -18
-27 -27 c-15 -15 -27 -31 -27 -37 0 -6 -4 -8 -9 -4 -15 9 -43 -25 -32 -39 7
-8 4 -12 -10 -13 -15 -1 -19 3 -15 13 3 9 6 22 6 30 0 8 9 14 20 14 21 0 27
14 11 24 -5 4 -11 0 -14 -6 -3 -10 -7 -10 -19 0 -10 8 -27 10 -45 7 -21 -5
-24 -4 -13 4 10 7 11 11 3 11 -7 0 -13 8 -14 18 0 10 -3 12 -6 5 -8 -21 -26
-15 -20 7 3 11 1 20 -4 20 -5 0 -9 -9 -9 -20 0 -26 -16 -26 -23 0 -4 14 -12
19 -35 17 -19 -1 -28 -6 -25 -15 4 -9 -7 -11 -41 -9 -29 3 -50 0 -56 -8 -8
-10 -5 -13 15 -11 14 0 25 5 25 10 0 5 6 3 13 -3 8 -6 18 -7 22 -3 5 4 6 0 2
-9 -3 -11 3 -20 19 -28 13 -6 24 -15 24 -21 0 -6 5 -8 10 -5 6 3 10 1 10 -5 0
-7 -6 -10 -14 -7 -8 3 -16 2 -18 -2 -2 -5 -14 -11 -28 -15 -25 -7 -25 -7 4 18
24 20 26 24 10 23 -10 -1 -22 -6 -25 -11 -4 -4 -6 4 -6 18 0 33 -11 45 -22 27
-6 -8 -19 -12 -35 -9 -14 3 -26 1 -26 -3 0 -5 -11 -9 -25 -9 -14 0 -25 -5 -25
-12 0 -9 -3 -9 -12 0 -9 9 -8 15 8 27 22 17 38 20 29 5 -3 -6 1 -7 9 -4 9 3
16 12 16 20 0 16 -26 19 -35 4 -3 -5 -15 -10 -26 -10 -10 0 -19 -4 -19 -10 0
-5 -7 -10 -16 -10 -11 0 -14 -5 -10 -16 4 -10 2 -14 -6 -11 -7 2 -12 11 -10
18 2 8 0 10 -4 6 -14 -14 -13 -37 2 -37 8 0 14 -5 14 -11 0 -5 -8 -9 -18 -8
-38 3 -63 -1 -57 -12 5 -7 46 -9 117 -7 60 2 112 0 114 -4 3 -4 30 -8 60 -8
34 0 53 4 49 10 -3 6 1 10 10 10 9 0 13 -4 10 -10 -13 -21 37 -9 63 15 27 25
49 28 44 5 -5 -23 19 -38 63 -38 24 0 48 -3 53 -6 13 -8 35 11 27 24 -6 9 -9
9 -15 1 -8 -13 -40 -4 -40 11 0 6 14 8 34 5 24 -4 39 -1 47 9 6 8 29 17 50 20
27 5 36 10 32 20 -3 9 -13 12 -24 9 -23 -8 -26 10 -3 19 9 3 14 13 11 20 -3 8
4 21 18 30 27 18 55 21 55 6 0 -6 -6 -9 -12 -8 -7 2 -12 -5 -10 -15 2 -11 -4
-17 -18 -17 -11 0 -20 -6 -20 -13 0 -16 33 -34 75 -41 17 -2 50 -10 75 -16 87
-21 176 -29 306 -30 125 0 132 1 157 24 14 13 27 20 29 16 2 -5 23 -12 47 -16
30 -5 42 -4 38 4 -4 6 0 8 10 6 10 -3 40 9 66 26 26 16 59 30 72 30 18 0 25 5
25 20 0 17 -4 19 -27 13 -16 -3 -41 -15 -58 -25 -16 -10 -47 -18 -69 -18 -34
0 -37 -2 -25 -16 11 -14 9 -15 -27 -9 -74 14 -70 37 9 49 67 11 149 61 175
107 13 22 24 53 24 68 1 27 2 27 54 26 46 -2 54 0 54 16 0 19 -22 19 -58 0
-13 -7 -22 -7 -30 1 -7 7 -12 8 -12 4 0 -5 -7 -3 -15 4 -17 14 -21 35 -5 25 6
-3 10 -1 10 5 0 7 -8 9 -19 5 -10 -3 -24 1 -31 10 -8 9 -30 15 -60 15 -32 0
-55 6 -73 20 -14 11 -30 20 -37 20 -6 0 -9 4 -5 9 3 6 -6 6 -25 1 -16 -5 -32
-5 -35 -1 -2 5 -23 8 -45 8 -22 0 -44 3 -48 7 -10 11 19 26 51 26 15 0 27 5
27 10 0 6 15 10 33 11 30 1 30 2 7 8 -35 10 -108 -14 -153 -50 -37 -30 -39
-30 -52 -13 -8 11 -15 14 -15 7 0 -10 -55 -11 -65 -1 -2 2 -17 20 -34 42 -17
21 -31 34 -31 28z m-186 -348 c13 -5 14 -9 5 -20 -16 -19 -4 -18 16 2 9 9 19
14 22 10 9 -9 -8 -24 -32 -28 -10 -1 -28 -11 -38 -21 -27 -27 -34 -11 -8 17
13 14 20 29 16 35 -7 13 -3 14 19 5z m-188 -30 c-5 -13 -1 -15 19 -10 18 5 27
2 32 -9 7 -21 -16 -65 -39 -74 -9 -3 -18 -10 -20 -16 -2 -5 -14 -10 -28 -11
-14 0 -33 -4 -43 -8 -10 -5 -20 -6 -23 -3 -6 5 53 37 70 37 6 0 22 9 35 19 24
18 24 19 4 25 -31 10 -41 66 -11 66 5 0 7 -7 4 -16z m-282 -45 c-6 -10 7 -12
46 -9 14 1 22 -1 18 -6 -4 -4 -3 -13 3 -20 8 -10 16 -11 31 -3 21 12 34 6 24
-10 -4 -6 -13 -8 -21 -4 -9 3 -15 -1 -15 -8 -1 -10 -4 -9 -10 3 -8 12 -19 15
-50 11 -36 -5 -40 -3 -40 16 0 23 -25 29 -33 9 -3 -8 -6 -6 -6 5 -1 9 6 17 14
17 8 0 15 4 15 10 0 5 7 7 15 4 8 -4 12 -10 9 -15z m471 -4 c-30 -24 -75 -34
-75 -15 0 6 11 10 24 10 13 0 29 7 36 15 7 8 20 15 29 15 11 0 7 -8 -14 -25z
m74 -4 c11 -7 9 -10 -7 -15 -13 -4 -19 -13 -15 -22 3 -7 0 -14 -6 -14 -6 0
-11 5 -11 10 0 6 -9 10 -20 10 -11 0 -20 5 -20 11 0 6 6 9 14 6 8 -3 17 1 20
9 6 16 24 18 45 5z m86 -31 c0 -8 -6 -16 -12 -16 -7 -1 -14 -2 -15 -4 -8 -6
-60 -5 -64 2 -3 4 1 8 9 8 8 0 18 7 21 16 8 20 61 15 61 -6z m-755 -9 c0 -14
-59 -41 -76 -34 -13 5 -12 8 3 18 10 7 30 15 43 18 14 2 26 5 28 6 1 0 2 -3 2
-8z m190 -26 c0 -10 -10 -15 -30 -15 -38 0 -39 17 -2 23 15 2 28 5 30 6 1 0 2
-6 2 -14z"/>
<path d="M1148 631 c20 -13 -12 -34 -40 -26 -18 5 -20 4 -8 -4 13 -9 13 -11
-2 -11 -9 0 -20 5 -23 10 -3 6 -12 10 -18 10 -7 0 -4 -5 6 -11 9 -5 17 -15 17
-21 0 -9 -3 -9 -12 0 -14 14 -32 16 -24 3 3 -5 -1 -14 -9 -21 -8 -7 -15 -28
-15 -46 0 -19 -4 -34 -10 -34 -5 0 -7 -6 -4 -14 7 -19 -27 -29 -58 -17 -18 7
-25 6 -25 -4 0 -8 19 -15 48 -19 35 -5 48 -11 52 -26 3 -14 11 -17 26 -13 14
3 20 11 17 19 -3 8 -8 43 -12 78 -6 60 -5 65 16 76 13 7 54 18 92 24 l69 12
-41 22 c-40 21 -69 30 -42 13z"/>
<path d="M1130 561 c-76 -15 -79 -35 -10 -50 56 -12 350 -13 390 -2 40 12 -85
23 -227 20 -68 -1 -126 1 -130 4 -3 4 -2 7 4 7 5 0 10 7 10 15 0 8 -1 14 -1
14 -1 -1 -17 -4 -36 -8z"/>
<path d="M500 424 c0 -12 13 -15 70 -13 39 1 70 5 70 9 0 4 -22 6 -50 4 -27
-1 -52 2 -56 7 -9 15 -34 10 -34 -7z"/>
<path d="M235 405 l-140 -12 135 2 c74 1 153 7 175 12 l40 11 -35 -1 c-19 0
-98 -5 -175 -12z"/>
<path d="M570 391 c8 -6 18 -7 23 -4 5 3 12 0 16 -6 6 -8 14 -9 32 -1 22 10
23 10 2 6 -13 -2 -23 0 -23 5 0 5 -15 9 -32 9 -24 0 -29 -3 -18 -9z"/>
<path d="M673 376 c2 -6 19 -11 38 -12 19 -1 26 0 17 3 -10 2 -18 8 -18 12 0
4 -9 7 -20 7 -11 0 -19 -5 -17 -10z"/>
<path d="M647 314 c-24 -13 -26 -17 -13 -29 18 -18 27 -19 24 -2 -2 6 4 10 12
8 8 -2 25 -4 37 -4 15 1 20 -3 16 -11 -3 -6 3 -2 15 8 26 22 25 23 -11 30 -16
3 -25 1 -22 -5 4 -5 2 -9 -4 -9 -5 0 -14 6 -18 14 -7 12 -12 12 -36 0z"/>
<path d="M1881 261 c-18 -14 -32 -16 -62 -11 -22 4 -42 3 -45 -1 -6 -11 -88
-49 -103 -49 -6 0 -11 -4 -11 -8 0 -4 -8 -8 -17 -9 -10 -1 -36 -6 -58 -12
-115 -29 -386 -23 -522 13 -45 12 -49 12 -49 -4 0 -14 12 -19 51 -25 27 -4 59
-6 70 -6 18 1 34 -4 90 -25 25 -9 42 -10 238 -18 126 -5 158 -4 155 6 -3 8
-16 12 -32 10 -36 -5 -26 14 11 21 51 9 69 15 134 42 91 39 117 46 123 32 2
-7 5 -4 5 6 1 10 4 16 9 13 11 -6 45 21 41 33 -2 6 -14 2 -28 -8z"/>
<path d="M32 263 c-33 -4 -45 -23 -14 -23 28 0 62 12 62 21 0 5 -3 8 -7 7 -5
0 -23 -3 -41 -5z"/>
<path d="M100 220 c0 -13 63 -29 94 -23 38 8 32 20 -9 18 -19 -1 -35 2 -35 6
0 5 -11 9 -25 9 -14 0 -25 -4 -25 -10z"/>
<path d="M907 212 c-26 -2 -45 -7 -42 -12 3 -6 0 -7 -8 -4 -17 6 -41 -21 -31
-37 5 -8 9 -7 16 5 5 9 19 16 31 16 21 -1 21 -1 -3 -15 -23 -12 -21 -13 30
-10 93 6 98 8 92 44 -3 12 -29 16 -85 13z"/>
<path d="M1884 195 c-4 -8 -12 -15 -20 -15 -8 0 -14 -7 -14 -16 0 -24 -20 -6
-21 19 -1 20 -2 20 -8 -3 -5 -18 -15 -26 -34 -28 -15 -2 -25 -6 -23 -10 2 -4
-15 -7 -37 -8 -89 -2 -97 -4 -97 -20 0 -13 8 -15 43 -11 73 10 201 22 217 20
12 -2 16 9 16 42 1 44 -11 60 -22 30z"/>
<path d="M60 135 c-14 -8 -33 -14 -42 -15 -11 0 -18 -8 -18 -18 0 -17 7 -18
75 -15 57 3 75 1 75 -9 0 -10 2 -10 8 -1 6 9 71 14 227 17 190 5 297 9 490 21
57 4 59 4 52 11 -6 7 -55 7 -200 0 -43 -1 -80 1 -83 6 -3 4 -11 5 -17 1 -18
-11 -121 -9 -129 2 -5 6 -11 5 -17 -4 -8 -12 -12 -12 -25 -2 -11 9 -16 10 -16
2 0 -16 -16 -14 -35 6 -13 12 -19 13 -25 4 -8 -14 -68 -22 -76 -10 -2 4 -33 6
-69 5 -36 -1 -65 1 -65 6 0 5 -6 6 -12 2 -7 -5 -19 -9 -28 -10 -8 -1 -24 -5
-34 -9 -16 -7 -18 -5 -13 8 8 20 9 20 -23 2z"/>
<path d="M957 135 c-16 -12 -14 -14 26 -23 25 -5 62 -6 84 -3 34 6 36 8 18 17
-11 6 -38 10 -60 8 -21 -2 -42 1 -45 6 -3 4 -13 2 -23 -5z"/>
<path d="M775 39 l-17 -33 -13 25 -14 24 -10 -25 -10 -25 -2 25 c-1 17 -3 20
-6 7 -5 -21 -23 -23 -23 -2 0 20 -16 19 -32 -2 -19 -26 -50 -27 -43 -2 6 17 3
18 -17 10 -14 -5 -31 -5 -40 0 -13 7 -15 5 -11 -12 4 -16 2 -20 -8 -17 -8 3
-13 13 -11 23 4 23 -14 11 -21 -14 -5 -20 1 -20 173 -20 157 1 179 3 183 17 3
10 8 26 13 37 7 18 6 18 -9 6 -9 -7 -17 -21 -18 -30 0 -9 -3 -11 -5 -5 -3 7
-14 10 -24 7 -11 -3 -17 -9 -14 -14 3 -5 -2 -9 -12 -9 -15 0 -15 2 1 26 9 14
14 28 12 31 -3 3 -13 -10 -22 -28z"/>
<path d="M935 55 c-3 -8 -7 -21 -9 -29 -3 -9 -14 -12 -32 -8 -19 3 -25 1 -20
-7 9 -13 106 -12 106 1 0 5 -5 6 -11 2 -8 -4 -9 1 -5 17 7 23 7 23 -8 5 -16
-19 -16 -19 -16 1 0 12 6 24 13 26 9 4 9 6 -1 6 -7 1 -15 -6 -17 -14z"/>
<path d="M1136 55 c-3 -8 -2 -23 1 -32 6 -16 5 -16 -11 -4 -9 8 -15 20 -12 28
3 8 1 11 -4 8 -6 -3 -10 -16 -11 -28 0 -12 -3 -17 -5 -10 -3 7 -11 10 -19 7
-7 -3 -20 5 -30 18 l-16 23 6 -25 c5 -21 2 -26 -15 -27 -18 -2 -19 1 -9 13 6
8 9 17 5 21 -3 3 -6 1 -6 -6 0 -8 -7 -11 -15 -7 -16 6 -19 -2 -7 -21 5 -8 34
-12 78 -12 73 0 110 12 86 27 -7 5 -10 16 -6 25 3 9 4 17 1 17 -3 0 -7 -7 -11
-15z"/>
<path d="M360 52 c0 -7 -4 -11 -9 -7 -5 3 -17 -2 -25 -11 -9 -8 -16 -12 -16
-7 0 4 -5 1 -11 -7 -7 -10 -12 -11 -15 -4 -6 14 -44 6 -44 -8 0 -5 25 -8 55
-6 49 3 54 5 49 23 -4 15 -3 16 4 6 8 -11 11 -11 16 0 3 8 4 5 1 -7 -5 -19 -1
-21 37 -21 40 0 57 9 58 31 0 5 -7 3 -15 -4 -12 -10 -15 -9 -16 6 0 16 -2 16
-9 -4 -5 -12 -12 -22 -16 -22 -3 0 -4 7 0 15 3 8 1 15 -4 15 -6 0 -10 -6 -10
-12 -1 -7 -7 -2 -15 12 -8 14 -14 19 -15 12z"/>
<path d="M1406 53 c-4 -5 -12 -8 -16 -8 -5 0 -16 -9 -25 -20 -16 -20 -16 -19
-10 5 6 24 6 25 -10 5 -16 -20 -16 -20 -31 0 -15 20 -15 20 -30 1 -8 -11 -14
-23 -14 -28 0 -14 95 -4 108 12 12 13 13 13 8 -2 -3 -10 -1 -18 4 -18 6 0 10
9 10 19 0 11 6 21 13 24 6 2 9 7 6 11 -3 3 -9 3 -13 -1z"/>
<path d="M1177 43 c-4 -3 -7 -14 -7 -24 0 -14 7 -18 30 -16 20 1 29 6 25 15
-3 8 -5 19 -5 25 0 7 -10 1 -21 -13 -20 -24 -20 -24 -14 -2 6 22 4 27 -8 15z"/>
<path d="M1438 33 c-28 -14 -38 -33 -18 -33 6 0 10 5 10 10 0 7 6 7 19 0 27
-14 36 -13 21 5 -6 8 -9 19 -5 25 7 12 8 12 -27 -7z"/>
<path d="M1536 35 c-3 -9 -16 -20 -28 -25 -17 -6 1 -9 65 -9 48 -1 87 3 87 8
0 5 3 16 6 25 3 9 2 16 -4 16 -5 0 -12 -9 -15 -20 -3 -11 -10 -20 -16 -20 -6
0 -8 8 -5 18 5 15 4 15 -8 1 -14 -17 -48 -22 -48 -6 0 5 -7 4 -15 -3 -18 -15
-20 1 -3 18 8 8 8 12 1 12 -6 0 -13 -7 -17 -15z"/>
<path d="M1717 35 c-4 -8 -16 -15 -27 -15 -11 0 -20 -4 -20 -10 0 -5 11 -10
24 -10 16 0 26 7 29 22 7 26 2 36 -6 13z"/>
<path d="M170 35 c0 -31 54 -46 64 -18 9 23 -2 29 -26 14 -17 -11 -22 -11 -29
1 -5 7 -9 9 -9 3z"/>
<path d="M1807 33 c-5 -4 -23 -8 -40 -9 -17 0 -32 -5 -35 -12 -2 -8 18 -11 67
-11 41 1 71 5 71 11 0 6 -10 8 -24 4 -18 -4 -25 -2 -28 10 -2 9 -7 12 -11 7z"/>
</g>
</svg>
