<?xml version="1.0" standalone="no"?>
<!DOCTYPE svg PUBLIC "-//W3C//DTD SVG 20010904//EN"
 "http://www.w3.org/TR/2001/REC-SVG-20010904/DTD/svg10.dtd">
<svg version="1.0" xmlns="http://www.w3.org/2000/svg"
 width="230.000000pt" height="219.000000pt" viewBox="0 0 230.000000 219.000000"
 preserveAspectRatio="xMidYMid meet">
<metadata>
Created by potrace 1.10, written by Peter Selinger 2001-2011
</metadata>
<g transform="translate(0.000000,219.000000) scale(0.100000,-0.100000)"
fill="#000000" stroke="none">
<path d="M1033 2165 c-71 -20 -155 -63 -231 -119 -66 -49 -215 -193 -251 -244
l-20 -29 36 -24 c63 -41 75 -73 84 -232 5 -77 13 -145 19 -151 16 -16 12 -23
-16 -30 -55 -14 -69 -142 -27 -247 16 -42 55 -79 83 -79 12 0 20 -14 28 -51 7
-28 22 -64 33 -81 39 -54 193 -180 259 -212 57 -27 76 -31 150 -31 120 0 173
28 307 159 95 95 102 105 114 159 10 47 16 57 33 57 32 0 43 11 65 60 30 69
47 174 33 205 -14 30 -53 48 -88 39 -33 -9 -30 2 16 53 71 77 101 178 89 303
-16 171 -129 310 -273 336 -29 5 -53 21 -92 59 -97 98 -228 135 -351 100z
m221 -55 c27 -13 75 -48 107 -78 43 -39 72 -57 109 -67 110 -29 192 -109 225
-220 18 -57 19 -173 4 -230 -12 -44 -66 -135 -80 -135 -5 0 -9 29 -9 64 0 79
-27 168 -69 230 -34 49 -95 96 -128 99 -11 0 -54 -16 -94 -36 -52 -27 -111
-45 -199 -63 -154 -31 -224 -62 -283 -122 -54 -56 -75 -100 -84 -183 -5 -46
-9 -59 -20 -55 -8 4 -18 6 -21 6 -4 0 -8 12 -8 28 -12 262 -32 361 -83 406
-11 11 -21 25 -21 32 0 20 116 140 199 206 172 138 327 178 455 118z m225
-427 c79 -80 96 -142 88 -319 -6 -139 -2 -150 51 -118 17 9 37 14 46 11 23 -9
21 -91 -4 -145 -19 -41 -20 -42 -62 -40 l-43 3 -6 -66 c-6 -79 -21 -101 -126
-198 -101 -93 -157 -121 -242 -121 -89 0 -161 35 -272 133 -89 77 -119 125
-119 186 0 49 -9 61 -45 61 -54 0 -86 44 -89 121 -1 38 4 53 21 70 21 21 25
22 63 9 22 -7 43 -10 48 -6 4 4 7 42 7 84 1 90 22 139 81 191 52 46 103 65
246 94 119 25 211 57 253 91 31 24 43 20 104 -41z"/>
<path d="M1536 692 c-8 -63 -57 -145 -107 -182 -215 -155 -563 -68 -660 165
-27 65 3 66 -259 -5 -210 -58 -275 -81 -337 -123 -86 -58 -120 -139 -148 -356
-8 -64 -17 -131 -19 -149 l-5 -32 1147 0 1148 0 -8 98 c-17 227 -42 333 -90
388 -62 70 -125 96 -435 179 -112 30 -207 56 -212 59 -5 3 -11 -16 -15 -42z
m-788 -64 c37 -66 123 -148 190 -182 235 -119 539 -35 617 171 10 26 23 51 28
54 18 12 436 -105 508 -141 41 -21 95 -80 111 -119 15 -39 35 -164 43 -268 l8
-93 -1101 0 c-606 0 -1103 4 -1106 9 -6 9 28 220 48 298 27 103 83 161 193
203 57 21 397 118 420 119 6 1 24 -23 41 -51z"/>
</g>
</svg>
