<?xml version="1.0" standalone="no"?>
<!DOCTYPE svg PUBLIC "-//W3C//DTD SVG 20010904//EN"
 "http://www.w3.org/TR/2001/REC-SVG-20010904/DTD/svg10.dtd">
<svg version="1.0" xmlns="http://www.w3.org/2000/svg"
 width="264.000000pt" height="191.000000pt" viewBox="0 0 264.000000 191.000000"
 preserveAspectRatio="xMidYMid meet">

<g transform="translate(0.000000,191.000000) scale(0.100000,-0.100000)"
fill="#000000" stroke="none">
<path d="M28 1863 c7 -3 16 -2 19 1 4 3 -2 6 -13 5 -11 0 -14 -3 -6 -6z"/>
<path d="M1160 1493 c-159 -26 -311 -89 -355 -147 -31 -40 -47 -91 -39 -122
18 -70 405 -147 654 -129 198 13 427 67 488 113 28 22 39 81 22 122 -25 60
-159 121 -339 155 -78 14 -362 20 -431 8z m425 -198 c-25 -10 -317 -56 -332
-53 -19 4 277 56 317 56 14 0 21 -1 15 -3z"/>
<path d="M2048 1370 c-2 -22 0 -40 4 -40 5 0 8 18 8 40 0 22 -2 40 -4 40 -2 0
-6 -18 -8 -40z"/>
<path d="M631 1385 c-1 -11 -4 -31 -7 -45 -5 -22 -4 -23 6 -7 6 10 9 30 7 45
-3 18 -5 20 -6 7z"/>
<path d="M2041 1284 c0 -11 3 -14 6 -6 3 7 2 16 -1 19 -3 4 -6 -2 -5 -13z"/>
<path d="M2011 1164 c0 -11 3 -14 6 -6 3 7 2 16 -1 19 -3 4 -6 -2 -5 -13z"/>
<path d="M2163 1153 c9 -2 25 -2 35 0 9 3 1 5 -18 5 -19 0 -27 -2 -17 -5z"/>
<path d="M676 1110 c9 -49 81 -272 95 -290 9 -13 10 -13 5 0 -3 8 -24 74 -46
145 -56 175 -61 189 -54 145z"/>
<path d="M1997 1116 c-10 -37 -7 -39 23 -15 14 11 18 17 8 13 -11 -3 -18 1
-20 13 -3 13 -6 11 -11 -11z"/>
<path d="M1957 982 c-34 -114 -36 -124 -19 -84 10 20 22 32 36 33 17 1 17 2 4
6 -22 5 -22 6 -2 72 8 29 14 55 11 57 -2 2 -15 -36 -30 -84z"/>
<path d="M2118 1043 c7 -3 16 -2 19 1 4 3 -2 6 -13 5 -11 0 -14 -3 -6 -6z"/>
<path d="M314 938 l-19 -23 23 19 c21 18 27 26 19 26 -2 0 -12 -10 -23 -22z"/>
<path d="M251 875 c-17 -20 -31 -39 -31 -42 0 -4 3 -3 8 3 4 5 20 24 36 42 17
17 27 32 24 32 -3 0 -20 -16 -37 -35z"/>
<path d="M2264 868 l-19 -23 23 19 c21 18 27 26 19 26 -2 0 -12 -10 -23 -22z"/>
<path d="M2373 864 c-10 -21 -9 -23 1 -15 7 6 15 8 19 5 3 -3 3 3 0 15 -7 26
-6 26 -20 -5z"/>
<path d="M1906 835 c-9 -26 -7 -32 5 -12 6 10 9 21 6 23 -2 3 -7 -2 -11 -11z"/>
<path d="M2417 805 c9 -19 18 -33 21 -31 4 5 -26 66 -33 66 -3 0 3 -16 12 -35z"/>
<path d="M2324 798 l-29 -33 33 29 c17 17 32 31 32 33 0 8 -8 1 -36 -29z"/>
<path d="M205 809 c-4 -6 -5 -12 -2 -15 2 -3 7 2 10 11 7 17 1 20 -8 4z"/>
<path d="M781 795 c0 -5 8 -26 19 -45 11 -19 19 -30 19 -25 0 6 -8 26 -19 45
-11 19 -19 31 -19 25z"/>
<path d="M1886 785 c-9 -26 -7 -32 5 -12 6 10 9 21 6 23 -2 3 -7 -2 -11 -11z"/>
<path d="M186 765 c-3 -9 -6 -24 -5 -33 0 -9 5 -4 10 12 9 32 6 48 -5 21z"/>
<path d="M2260 755 c-14 -8 -20 -14 -14 -15 5 0 19 7 30 15 24 18 16 19 -16 0z"/>
<path d="M2441 744 c0 -11 3 -14 6 -6 3 7 2 16 -1 19 -3 4 -6 -2 -5 -13z"/>
<path d="M2452 680 c0 -19 2 -27 5 -17 2 9 2 25 0 35 -3 9 -5 1 -5 -18z"/>
<path d="M171 684 c0 -11 3 -14 6 -6 3 7 2 16 -1 19 -3 4 -6 -2 -5 -13z"/>
<path d="M855 640 c9 -16 18 -30 21 -30 2 0 -2 14 -11 30 -9 17 -18 30 -21 30
-2 0 2 -13 11 -30z"/>
<path d="M181 634 c-2 -55 90 -182 177 -242 52 -37 37 -18 -22 27 -62 48 -121
128 -141 192 -7 24 -14 35 -14 23z"/>
<path d="M2441 624 c0 -11 3 -14 6 -6 3 7 2 16 -1 19 -3 4 -6 -2 -5 -13z"/>
<path d="M1800 610 c-6 -11 -8 -20 -6 -20 3 0 10 9 16 20 6 11 8 20 6 20 -3 0
-10 -9 -16 -20z"/>
<path d="M890 581 c5 -11 15 -23 21 -27 6 -3 3 5 -6 20 -20 30 -30 35 -15 7z"/>
<path d="M1858 584 c-38 -20 -36 -28 2 -9 17 9 30 18 30 20 0 7 -1 6 -32 -11z"/>
<path d="M2413 557 c-11 -23 -40 -64 -63 -92 l-42 -50 47 49 c43 46 91 123 83
132 -3 2 -14 -15 -25 -39z"/>
<path d="M1750 532 c-20 -27 -57 -59 -85 -74 -58 -32 -54 -38 5 -8 21 11 55
40 76 64 26 32 42 43 58 40 12 -3 15 -2 6 2 -8 4 -17 11 -20 15 -3 5 -21 -13
-40 -39z"/>
<path d="M946 509 c29 -37 130 -92 189 -104 17 -3 7 3 -21 14 -78 29 -116 50
-158 90 l-40 36 30 -36z"/>
<path d="M1525 405 c-22 -8 -31 -14 -20 -14 11 0 34 6 50 14 38 17 22 17 -30
0z"/>
<path d="M2279 403 c-13 -16 -12 -17 4 -4 16 13 21 21 13 21 -2 0 -10 -8 -17
-17z"/>
<path d="M1190 390 c25 -8 117 -13 109 -6 -2 2 -33 6 -69 9 -39 3 -55 2 -40
-3z"/>
<path d="M1443 383 c9 -2 23 -2 30 0 6 3 -1 5 -18 5 -16 0 -22 -2 -12 -5z"/>
<path d="M1343 373 c15 -2 37 -2 50 0 12 2 0 4 -28 4 -27 0 -38 -2 -22 -4z"/>
<path d="M2195 349 c-16 -10 -25 -19 -19 -19 7 0 22 9 35 20 30 24 23 24 -16
-1z"/>
<path d="M2133 318 c-13 -6 -23 -15 -23 -21 0 -5 -7 -6 -16 -3 -8 3 -12 2 -9
-4 9 -14 17 -12 50 15 33 27 32 29 -2 13z"/>
<path d="M580 270 c19 -11 44 -19 55 -19 11 0 -2 9 -30 19 -62 25 -70 25 -25
0z"/>
<path d="M1990 240 c-8 -5 -10 -10 -5 -10 6 0 17 5 25 10 8 5 11 10 5 10 -5 0
-17 -5 -25 -10z"/>
<path d="M1178 153 c6 -2 18 -2 25 0 6 3 1 5 -13 5 -14 0 -19 -2 -12 -5z"/>
<path d="M1438 153 c6 -2 18 -2 25 0 6 3 1 5 -13 5 -14 0 -19 -2 -12 -5z"/>
</g>
</svg>
