<?xml version="1.0" standalone="no"?>
<!DOCTYPE svg PUBLIC "-//W3C//DTD SVG 20010904//EN"
 "http://www.w3.org/TR/2001/REC-SVG-20010904/DTD/svg10.dtd">
<svg version="1.0" xmlns="http://www.w3.org/2000/svg"
 width="227.000000pt" height="222.000000pt" viewBox="0 0 227.000000 222.000000"
 preserveAspectRatio="xMidYMid meet">
<metadata>
Created by potrace 1.10, written by Peter Selinger 2001-2011
</metadata>
<g transform="translate(0.000000,222.000000) scale(0.100000,-0.100000)"
fill="#000000" stroke="none">
<path d="M1480 2090 c-85 -40 -158 -132 -174 -222 -4 -21 0 -76 9 -127 17
-101 11 -134 -30 -153 -32 -14 -42 -45 -21 -66 15 -15 20 -15 61 7 35 18 48
33 61 68 17 43 17 51 1 147 -19 112 -15 142 27 206 31 47 114 90 170 90 115
-1 210 -109 192 -219 -16 -98 -131 -160 -216 -116 -75 39 -95 131 -41 186 54
53 137 29 129 -38 -2 -22 -9 -29 -33 -33 -23 -4 -30 -10 -30 -29 0 -76 122
-33 140 49 9 40 -20 96 -64 126 -104 70 -241 -15 -241 -151 0 -105 82 -186
194 -193 74 -5 125 16 173 71 108 124 70 308 -81 384 -71 36 -165 41 -226 13z"/>
<path d="M756 2054 c-63 -20 -149 -104 -165 -160 -60 -215 101 -392 300 -332
54 16 115 71 130 116 50 151 -60 290 -200 252 -50 -13 -101 -69 -101 -111 0
-45 26 -97 54 -110 53 -25 86 20 43 57 -15 13 -27 32 -27 43 0 24 45 61 74 61
40 0 84 -37 97 -80 11 -37 10 -46 -9 -86 -86 -175 -355 -50 -302 141 34 120
178 189 294 141 87 -36 156 -138 156 -230 0 -60 -24 -112 -85 -186 -25 -30
-55 -74 -66 -98 -12 -24 -27 -45 -33 -47 -6 -1 -65 -8 -131 -15 -210 -21 -405
-84 -455 -147 -47 -60 -10 -282 75 -453 63 -126 188 -266 293 -327 l47 -28
-300 -5 c-245 -4 -304 -8 -321 -20 -50 -36 -54 -98 -9 -140 20 -19 38 -23 127
-27 101 -6 104 -7 170 -50 36 -25 83 -49 105 -54 21 -5 307 -9 636 -9 662 0
619 -4 725 69 55 37 61 39 157 44 96 5 101 7 127 37 31 34 35 58 14 98 -26 50
-40 52 -356 55 l-295 2 48 28 c63 37 176 144 218 207 36 52 49 59 68 36 16
-19 96 -46 135 -46 41 1 105 31 138 66 31 34 58 102 58 148 -1 95 -104 196
-200 196 l-30 0 1 71 c2 87 -13 111 -97 156 -124 66 -329 102 -636 110 -120 3
-218 9 -218 12 0 3 29 44 65 90 65 84 95 152 95 216 0 90 -56 210 -123 265
-69 55 -192 74 -291 44z m249 -644 c17 -19 17 -22 3 -37 -30 -29 -74 10 -48
42 16 20 23 19 45 -5z m352 -60 c308 -21 553 -92 530 -153 -3 -9 -27 -27 -51
-39 -42 -20 -47 -21 -64 -5 -55 50 -227 77 -542 84 -363 8 -594 -16 -703 -75
l-48 -26 -45 22 c-50 25 -63 45 -43 68 32 38 194 86 369 110 151 20 187 19
195 -6 4 -11 17 -28 31 -36 33 -22 58 -3 50 38 l-5 28 97 0 c53 -1 156 -5 229
-10z m-974 -226 c-9 -23 -28 -10 -31 22 -4 28 -3 28 16 10 12 -10 18 -24 15
-32z m1027 36 c194 -17 311 -40 270 -54 -93 -32 -460 -56 -700 -45 -158 7
-390 36 -390 50 0 13 130 34 320 52 81 8 394 6 500 -3z m510 -27 c0 -36 0 -36
-20 -18 -19 17 -19 19 -4 37 23 24 24 24 24 -19z m-163 -16 c18 -13 6 -27 -21
-27 -18 0 -23 6 -23 24 0 25 15 26 44 3z m-1197 4 c0 -5 3 -17 7 -26 5 -14 2
-16 -18 -10 -32 10 -34 12 -19 30 14 17 30 20 30 6z m-122 -40 c116 -59 375
-94 692 -94 317 -1 545 29 693 88 56 23 57 23 57 3 0 -35 -31 -140 -60 -204
-78 -173 -221 -313 -400 -391 l-75 -33 -206 0 c-204 0 -208 0 -277 28 -202 83
-368 259 -436 462 -27 82 -43 160 -32 160 4 0 23 -8 44 -19z m1629 -92 c39
-38 56 -77 50 -122 -10 -71 -88 -126 -161 -113 -42 8 -94 60 -78 78 6 7 23 49
37 93 15 44 29 84 32 89 11 16 94 -1 120 -25z m-1244 -541 l42 -23 -54 -3
c-29 -2 -55 -2 -57 0 -6 7 8 48 18 48 5 0 28 -10 51 -22z m694 -3 l11 -25 -66
0 -67 1 45 24 c57 30 62 30 77 0z m603 -85 c0 -20 -11 -20 -985 -20 -852 0
-985 2 -985 14 0 10 15 16 48 19 26 2 469 4 985 5 926 1 937 1 937 -18z
m-1640 -67 c-1 -5 -9 -19 -20 -31 l-20 -24 -30 22 c-42 30 -38 40 20 40 28 0
50 -3 50 -7z m1405 -18 c-35 -29 -50 -31 -59 -9 -11 30 -6 34 42 34 l47 -1
-30 -24z m-88 -22 c-27 -28 -120 -32 -701 -32 -538 -1 -616 3 -616 31 0 4 291
9 648 11 356 1 656 3 667 5 18 2 18 1 2 -15z"/>
</g>
</svg>
