<?xml version="1.0" standalone="no"?>
<!DOCTYPE svg PUBLIC "-//W3C//DTD SVG 20010904//EN"
 "http://www.w3.org/TR/2001/REC-SVG-20010904/DTD/svg10.dtd">
<svg version="1.0" xmlns="http://www.w3.org/2000/svg"
 width="225.000000pt" height="225.000000pt" viewBox="0 0 225.000000 225.000000"
 preserveAspectRatio="xMidYMid meet">
<metadata>
Created by potrace 1.10, written by Peter Selinger 2001-2011
</metadata>
<g transform="translate(0.000000,225.000000) scale(0.100000,-0.100000)"
fill="#000000" stroke="none">
<path d="M345 2213 c66 -34 166 -136 200 -203 73 -144 73 -309 0 -435 -65
-112 -70 -239 -16 -349 38 -77 92 -128 177 -168 l64 -30 27 22 c97 75 173 281
173 465 0 301 -168 566 -442 695 -55 26 -74 30 -148 30 l-85 -1 50 -26z m194
-52 c176 -89 321 -272 371 -467 27 -103 27 -245 0 -348 -24 -97 -86 -222 -123
-249 l-27 -21 -45 22 c-62 30 -122 87 -153 146 -23 44 -27 63 -26 136 0 77 3
92 38 165 66 138 81 243 51 360 -24 90 -56 153 -114 223 -29 34 -48 62 -42 62
7 0 38 -13 70 -29z"/>
<path d="M160 2159 c-75 -73 -150 -265 -150 -384 1 -66 13 -44 44 75 41 154
115 290 159 290 33 0 121 -54 167 -102 23 -24 53 -68 68 -98 24 -48 27 -67 27
-150 0 -90 -2 -99 -38 -172 -56 -114 -73 -203 -58 -297 13 -86 52 -175 104
-241 20 -24 34 -46 32 -48 -6 -6 -93 35 -142 69 -165 112 -263 255 -319 464
-36 136 -46 149 -41 50 13 -206 152 -428 351 -556 91 -59 157 -80 240 -77 l71
3 -44 24 c-63 33 -143 117 -174 182 -63 135 -58 264 16 412 41 81 42 84 42
187 0 99 -2 110 -32 171 -41 83 -116 155 -211 203 l-70 35 -42 -40z"/>
<path d="M1820 1830 c-191 -24 -346 -104 -483 -249 -125 -134 -194 -294 -204
-477 -6 -108 8 -174 47 -224 l20 -25 0 41 c0 103 66 239 152 320 94 86 209
134 324 134 242 0 408 143 422 365 l5 82 -42 16 c-51 21 -155 28 -241 17z
m224 -59 c33 -27 11 -152 -41 -229 -64 -94 -157 -138 -321 -151 -114 -10 -180
-27 -252 -68 -92 -53 -187 -157 -231 -255 l-24 -53 -3 68 c-6 137 61 316 166
443 86 105 232 200 364 239 112 32 306 36 342 6z"/>
<path d="M2172 1685 c-2 -95 -39 -181 -109 -256 -94 -100 -194 -142 -376 -158
-147 -13 -217 -43 -296 -126 -74 -78 -103 -146 -110 -262 l-6 -93 40 -16 c128
-52 380 -12 550 88 91 54 220 183 273 274 57 98 93 212 99 309 5 102 -9 84
-42 -53 -28 -115 -61 -192 -117 -276 -116 -170 -304 -285 -517 -316 -90 -14
-185 -9 -221 10 -20 11 -22 18 -18 83 5 90 38 165 102 229 71 71 135 97 268
109 130 11 185 25 270 71 83 44 155 118 202 208 36 67 40 72 52 55 8 -10 14
-22 14 -27 0 -4 4 -8 8 -8 15 0 -5 103 -29 153 -13 26 -26 47 -30 47 -3 0 -7
-20 -7 -45z"/>
<path d="M555 890 c-140 -22 -265 -74 -371 -154 -108 -81 -161 -154 -178 -244
l-6 -34 37 32 c135 119 299 170 433 136 88 -23 145 -56 242 -143 45 -41 112
-88 148 -106 57 -28 74 -32 150 -32 72 0 93 4 140 27 30 15 78 46 105 69 28
23 59 47 69 55 18 12 18 15 -9 69 -56 115 -270 260 -448 305 -94 23 -231 32
-312 20z m298 -59 c149 -39 296 -125 387 -228 54 -61 52 -82 -10 -131 -84 -67
-134 -87 -220 -87 -99 0 -155 27 -278 133 -154 132 -276 177 -419 152 -40 -6
-104 -27 -142 -45 -39 -19 -71 -30 -71 -25 0 4 29 35 65 68 77 70 197 134 305
162 104 26 280 27 383 1z"/>
<path d="M275 543 c-63 -23 -129 -62 -185 -108 -24 -20 -52 -42 -63 -50 -18
-13 -18 -14 3 -62 43 -98 202 -215 378 -276 79 -28 101 -31 243 -35 135 -4
167 -1 240 17 215 54 405 194 445 328 20 67 19 69 -33 24 -74 -66 -179 -113
-263 -119 -135 -9 -239 36 -388 171 -97 87 -162 119 -255 124 -52 3 -86 -2
-122 -14z m237 -58 c29 -14 91 -60 138 -101 54 -48 115 -90 168 -116 132 -66
244 -64 405 6 36 17 15 -15 -40 -59 -96 -76 -219 -130 -377 -165 -108 -25
-144 -29 -165 -21 -14 5 -53 15 -86 21 -79 15 -178 47 -240 78 -103 51 -214
141 -242 196 -16 30 -16 30 28 69 141 123 283 155 411 92z"/>
</g>
</svg>
