<?xml version="1.0" standalone="no"?>
<!DOCTYPE svg PUBLIC "-//W3C//DTD SVG 20010904//EN"
 "http://www.w3.org/TR/2001/REC-SVG-20010904/DTD/svg10.dtd">
<svg version="1.0" xmlns="http://www.w3.org/2000/svg"
 width="183.000000pt" height="275.000000pt" viewBox="0 0 183.000000 275.000000"
 preserveAspectRatio="xMidYMid meet">
<metadata>
Created by potrace 1.16, written by Peter Selinger 2001-2019
</metadata>
<g transform="translate(0.000000,275.000000) scale(0.100000,-0.100000)"
fill="#000000" stroke="none">
<path d="M899 2717 c25 -64 13 -131 -59 -352 -63 -193 -70 -221 -70 -295 0
-89 14 -132 54 -170 l27 -24 -17 39 c-25 61 -14 127 60 355 37 113 69 230 73
261 7 70 -16 156 -52 189 l-26 25 10 -28z"/>
<path d="M637 2403 c6 -85 10 -67 -82 -312 -56 -150 -67 -201 -54 -262 9 -40
65 -127 75 -116 2 2 -3 21 -12 43 -23 56 -13 123 37 240 79 186 93 232 93 319
0 81 -14 126 -47 154 -13 10 -15 2 -10 -66z"/>
<path d="M1085 2430 c30 -95 24 -136 -39 -280 -59 -132 -76 -191 -76 -259 0
-62 28 -123 67 -149 l23 -14 -15 35 c-29 69 -20 128 39 266 30 69 59 144 65
166 25 91 4 193 -49 240 l-23 20 8 -25z"/>
<path d="M222 1608 c-18 -18 -17 -667 2 -711 18 -44 77 -94 126 -107 27 -7
200 -10 524 -8 l484 3 43 30 c52 37 78 86 86 158 l6 55 71 4 c87 6 139 31 194
93 74 84 90 193 44 297 -41 93 -146 158 -256 158 -40 0 -57 5 -71 20 -18 20
-31 20 -630 20 -462 0 -614 -3 -623 -12z m1425 -154 c93 -54 111 -187 35 -267
-40 -43 -75 -57 -137 -57 l-55 0 0 174 c0 158 2 175 18 179 31 9 96 -5 139
-29z"/>
<path d="M5 728 c17 -76 77 -141 142 -155 21 -4 346 -8 723 -8 l685 1 48 23
c55 26 95 79 104 135 l6 36 -857 0 -858 0 7 -32z"/>
<path d="M893 438 c-42 -11 -70 -49 -79 -104 -5 -38 -10 -44 -30 -44 -13 0
-24 -4 -24 -10 0 -5 11 -10 25 -10 l26 0 -3 -117 c-3 -114 -4 -118 -28 -130
-22 -11 -15 -13 60 -12 66 0 80 2 60 10 -13 6 -28 15 -32 22 -4 7 -8 60 -8
120 l0 107 40 0 c22 0 40 5 40 10 0 6 -16 10 -35 10 l-35 0 0 53 c0 79 26 96
78 52 17 -14 35 -25 41 -25 14 0 15 47 1 55 -25 15 -67 21 -97 13z"/>
<path d="M1090 436 c-42 -14 -80 -67 -80 -112 0 -30 -3 -34 -25 -34 -14 0 -25
-4 -25 -10 0 -5 11 -10 25 -10 l26 0 -3 -117 c-3 -114 -4 -118 -28 -130 -22
-11 -15 -13 60 -12 47 1 76 4 65 6 -41 10 -45 21 -45 139 l0 114 35 0 c19 0
35 5 35 10 0 6 -16 10 -35 10 -34 0 -35 1 -35 39 0 87 37 117 84 66 30 -33 56
-33 56 -1 0 14 -5 28 -10 31 -28 17 -68 22 -100 11z"/>
<path d="M357 423 c-13 -14 -21 -15 -42 -5 -32 15 -124 16 -162 1 -86 -32
-147 -158 -124 -258 30 -136 180 -203 293 -132 26 16 51 39 57 50 18 32 13 36
-10 7 -30 -38 -71 -56 -128 -56 -39 0 -56 6 -81 26 -48 41 -64 80 -64 159 0
78 29 156 66 176 86 46 161 19 212 -76 15 -29 15 -28 9 45 -3 41 -7 76 -7 77
-1 2 -10 -5 -19 -14z"/>
<path d="M524 290 c-56 -23 -93 -104 -79 -177 10 -56 74 -113 124 -113 105 0
176 131 123 229 -31 57 -108 86 -168 61z m91 -34 c55 -55 56 -180 2 -220 -26
-19 -30 -19 -55 -6 -43 24 -64 75 -60 147 6 97 58 134 113 79z"/>
<path d="M1232 286 c-33 -18 -60 -64 -68 -112 -12 -82 55 -174 127 -174 31 0
95 55 104 90 7 24 6 24 -25 -7 -36 -37 -72 -42 -108 -17 -28 19 -52 65 -52 99
l0 25 95 0 c52 0 95 4 95 9 0 29 -26 74 -51 86 -34 18 -86 19 -117 1z"/>
<path d="M1504 281 c-34 -21 -64 -83 -64 -132 0 -68 68 -149 125 -149 34 0 81
33 101 72 21 41 12 45 -24 8 -38 -38 -72 -39 -112 -3 -23 20 -33 40 -37 71
l-6 42 98 0 97 0 -6 28 c-4 15 -20 39 -37 55 -36 33 -89 36 -135 8z"/>
</g>
</svg>
