<?xml version="1.0" standalone="no"?>
<!DOCTYPE svg PUBLIC "-//W3C//DTD SVG 20010904//EN"
 "http://www.w3.org/TR/2001/REC-SVG-20010904/DTD/svg10.dtd">
<svg version="1.0" xmlns="http://www.w3.org/2000/svg"
 width="225.000000pt" height="225.000000pt" viewBox="0 0 225.000000 225.000000"
 preserveAspectRatio="xMidYMid meet">
<metadata>
Created by potrace 1.16, written by Peter Selinger 2001-2019
</metadata>
<g transform="translate(0.000000,225.000000) scale(0.100000,-0.100000)"
fill="#000000" stroke="none">
<path d="M806 2134 c-7 -18 -5 -22 41 -82 45 -59 45 -104 1 -162 -111 -146
-127 -181 -107 -252 10 -40 58 -120 79 -133 18 -11 50 6 50 27 0 11 -11 33
-25 50 -13 16 -30 46 -36 68 -15 49 -4 77 57 151 103 122 109 202 23 310 -32
41 -72 52 -83 23z"/>
<path d="M983 2124 c-3 -9 -2 -23 3 -30 5 -7 22 -32 39 -55 44 -62 41 -103
-13 -170 -81 -101 -95 -128 -100 -183 -3 -42 1 -62 21 -102 44 -85 85 -115
106 -76 7 13 1 31 -25 72 -54 86 -45 132 47 238 51 57 65 98 61 173 -1 15 -20
54 -43 88 -31 47 -46 61 -65 61 -14 0 -27 -7 -31 -16z"/>
<path d="M1177 2134 c-14 -14 -7 -34 28 -80 62 -81 60 -111 -16 -205 -93 -116
-108 -177 -64 -265 30 -61 68 -99 90 -90 29 11 27 35 -5 80 -20 28 -34 61 -37
88 -5 41 -1 48 61 132 99 133 105 187 32 293 -31 46 -70 66 -89 47z"/>
<path d="M245 1440 c-16 -18 -17 -33 -12 -152 12 -251 58 -436 147 -591 l47
-82 -160 -5 c-132 -4 -162 -8 -170 -21 -18 -29 2 -63 90 -155 96 -100 157
-136 288 -170 63 -17 113 -19 505 -19 486 0 500 2 649 72 58 27 92 53 153 117
110 112 115 120 94 151 -16 25 -17 25 -176 25 -88 0 -160 2 -160 5 0 2 17 31
38 64 22 32 45 73 52 90 12 29 30 42 30 22 0 -5 18 -27 40 -49 139 -139 361
-69 467 146 38 75 38 77 38 196 0 112 -2 125 -27 172 -82 156 -266 187 -407
69 l-31 -27 0 65 c0 106 72 97 -757 97 -707 0 -720 0 -738 -20z m1788 -165
c15 -9 38 -41 53 -71 24 -48 26 -63 22 -132 -10 -174 -128 -314 -254 -299
-150 16 -185 266 -60 429 42 55 128 101 177 95 20 -3 48 -12 62 -22z m-333
-768 c0 -2 -15 -16 -32 -33 -32 -28 -32 -28 -9 -2 l24 28 -699 0 -699 -1 45
-41 c25 -22 36 -36 25 -30 -11 6 -36 26 -54 46 l-35 36 717 0 c394 0 717 -1
717 -3z"/>
</g>
</svg>
