<?xml version="1.0" standalone="no"?>
<!DOCTYPE svg PUBLIC "-//W3C//DTD SVG 20010904//EN"
 "http://www.w3.org/TR/2001/REC-SVG-20010904/DTD/svg10.dtd">
<svg version="1.0" xmlns="http://www.w3.org/2000/svg"
 width="236.000000pt" height="214.000000pt" viewBox="0 0 236.000000 214.000000"
 preserveAspectRatio="xMidYMid meet">
<metadata>
Created by potrace 1.16, written by Peter Selinger 2001-2019
</metadata>
<g transform="translate(0.000000,214.000000) scale(0.100000,-0.100000)"
fill="#000000" stroke="none">
<path d="M1022 1354 c-66 -17 -84 -27 -148 -75 -196 -149 -218 -438 -47 -621
162 -172 427 -179 600 -15 61 57 96 117 118 204 49 189 -42 386 -225 481 -77
41 -203 52 -298 26z m82 -272 c29 -17 31 -17 65 0 45 23 78 23 118 -2 39 -24
56 -53 56 -100 0 -64 -34 -112 -139 -196 -77 -61 -70 -61 -163 16 -99 82 -133
162 -102 239 25 58 106 79 165 43z"/>
</g>
</svg>
