<?xml version="1.0" standalone="no"?>
<!DOCTYPE svg PUBLIC "-//W3C//DTD SVG 20010904//EN"
 "http://www.w3.org/TR/2001/REC-SVG-20010904/DTD/svg10.dtd">
<svg version="1.0" xmlns="http://www.w3.org/2000/svg"
 width="133.000000pt" height="127.000000pt" viewBox="0 0 133.000000 127.000000"
 preserveAspectRatio="xMidYMid meet">
<metadata>
Created by potrace 1.10, written by Peter Selinger 2001-2011
</metadata>
<g transform="translate(0.000000,127.000000) scale(0.100000,-0.100000)"
fill="#000000" stroke="none">
<path d="M390 909 c-72 -12 -121 -29 -115 -39 20 -32 519 -47 680 -21 107 17
121 26 65 41 -25 7 -72 16 -105 21 -77 11 -453 9 -525 -2z m417 -24 c0 -17 -4
-17 -130 -19 -49 -1 -91 2 -93 6 -3 4 -10 8 -15 8 -6 0 -8 -4 -5 -8 3 -4 -16
-3 -41 2 -43 10 -44 11 -17 16 16 3 90 6 165 7 113 2 136 0 136 -12z"/>
<path d="M206 828 c8 -74 11 -81 33 -74 13 5 12 3 -2 -8 -15 -12 -17 -22 -12
-48 14 -62 47 -153 62 -170 17 -19 10 -38 -15 -38 -30 0 -106 -33 -147 -64
-51 -39 -55 -44 -55 -85 0 -26 8 -41 37 -67 36 -33 57 -37 46 -9 -3 8 -9 15
-15 15 -5 0 -6 4 -3 10 3 5 0 7 -9 4 -15 -6 -36 23 -36 50 0 9 15 33 34 53 25
28 50 43 95 56 33 10 67 25 76 33 16 16 21 54 6 54 -8 0 -54 142 -54 168 0 6
-5 12 -11 12 -6 0 -6 3 -1 9 6 6 40 1 85 -11 95 -25 407 -36 555 -20 121 14
215 39 194 53 -10 7 -5 8 14 3 23 -5 27 -3 27 15 0 21 0 21 -37 3 -73 -37
-165 -47 -418 -47 -187 1 -256 5 -314 18 -104 23 -120 36 -111 84 4 27 3 43
-6 51 -23 21 -25 14 -18 -50z m542 -125 c-49 -2 -127 -2 -176 0 -48 1 -8 3 88
3 96 0 136 -2 88 -3z"/>
<path d="M1103 876 c-4 -8 -22 -22 -38 -31 l-30 -16 35 6 c23 4 30 3 21 -3
-16 -11 -6 -32 15 -32 10 0 14 12 14 45 0 47 -4 54 -17 31z"/>
<path d="M1170 748 c14 -11 24 -25 23 -29 -2 -5 2 -9 8 -9 19 0 5 -103 -17
-132 -20 -27 -68 -50 -88 -42 -7 3 -23 0 -37 -5 -21 -9 -19 -10 18 -10 65 -1
117 23 131 63 24 66 12 143 -27 173 -28 21 -37 13 -11 -9z"/>
<path d="M1086 708 c-5 -21 -12 -35 -17 -32 -6 3 -7 -6 -4 -23 5 -23 4 -25 -5
-13 -10 13 -11 13 -7 -1 3 -8 2 -34 -3 -57 -4 -23 -4 -39 0 -37 12 7 52 164
47 183 -2 10 -7 1 -11 -20z"/>
<path d="M1153 603 c-13 -9 -23 -23 -23 -31 0 -13 7 -10 27 10 31 31 29 43 -4
21z"/>
<path d="M1040 484 c0 -8 7 -14 16 -14 29 0 139 -57 162 -84 22 -26 30 -76 12
-76 -5 0 -7 -8 -3 -17 6 -16 3 -15 -18 2 -24 20 -24 20 -9 0 8 -11 16 -22 17
-24 5 -8 33 22 27 30 -3 5 0 9 5 9 6 0 11 15 11 33 0 53 -80 117 -182 145 -31
8 -38 8 -38 -4z"/>
<path d="M930 352 c0 -7 -5 -12 -10 -12 -6 0 -27 -11 -48 -24 -67 -43 -135
-59 -233 -54 -81 4 -97 8 -169 46 -44 22 -80 39 -80 36 0 -9 34 -59 49 -71 8
-7 25 -13 38 -13 13 0 23 -3 23 -7 0 -9 10 -10 132 -17 62 -4 102 -1 138 10
29 8 59 13 67 10 9 -4 11 -2 7 6 -5 7 0 9 14 6 13 -4 20 -2 16 4 -3 5 3 12 15
15 12 3 21 10 21 16 0 6 7 19 17 29 9 10 13 21 10 25 -4 3 -7 1 -7 -5z"/>
<path d="M1250 265 c-7 -9 -15 -14 -17 -11 -3 2 -20 -6 -40 -19 -46 -32 -124
-60 -225 -82 -67 -14 -128 -18 -313 -18 -205 1 -240 3 -320 23 -95 24 -187 62
-217 89 -10 9 -21 14 -24 11 -8 -9 56 -55 116 -82 121 -55 216 -70 450 -71
227 0 301 10 421 54 54 21 172 91 184 111 10 15 -1 12 -15 -5z"/>
</g>
</svg>
