<?xml version="1.0" standalone="no"?>
<!DOCTYPE svg PUBLIC "-//W3C//DTD SVG 20010904//EN"
 "http://www.w3.org/TR/2001/REC-SVG-20010904/DTD/svg10.dtd">
<svg version="1.0" xmlns="http://www.w3.org/2000/svg"
 width="225.000000pt" height="224.000000pt" viewBox="0 0 225.000000 224.000000"
 preserveAspectRatio="xMidYMid meet">

<g transform="translate(0.000000,224.000000) scale(0.100000,-0.100000)"
fill="#000000" stroke="none">
<path d="M1106 1943 l121 -4 69 -64 69 -64 -124 -1 c-68 0 -163 -5 -212 -12
l-88 -11 -43 35 c-24 19 -53 40 -65 46 -12 7 -29 19 -38 28 -14 15 -20 15 -68
-1 -140 -45 -226 -109 -246 -180 -15 -56 -14 -169 4 -261 l15 -78 -34 -28
c-20 -16 -44 -51 -57 -83 -20 -49 -30 -59 -88 -94 -77 -46 -152 -117 -178
-169 -27 -56 -23 -144 10 -212 50 -105 185 -217 331 -274 246 -98 627 -129
971 -79 33 5 38 3 28 -8 -31 -32 -6 -110 41 -127 59 -22 126 0 156 51 29 47
26 91 -7 112 l-27 18 44 13 c54 17 53 16 45 4 -11 -17 5 -70 28 -90 28 -27
151 -29 161 -4 10 25 -30 78 -82 110 l-33 21 80 46 c91 53 180 137 210 200 48
99 33 207 -39 290 -37 41 -173 137 -195 137 -5 0 27 -22 72 -50 121 -74 173
-144 173 -227 l-1 -38 -27 55 c-40 83 -140 176 -244 229 -49 25 -88 50 -88 58
0 7 7 10 18 7 13 -5 14 -4 3 4 -11 8 -10 20 7 73 34 103 44 179 40 290 -3 117
-16 146 -90 199 -47 34 -168 85 -222 93 l-38 6 51 -38 c58 -43 98 -86 107
-114 8 -26 -1 -32 -17 -11 -8 10 -47 51 -87 91 -40 40 -69 74 -65 74 5 1 -21
8 -57 16 -38 8 -138 15 -240 17 -96 2 -121 1 -54 -1z m296 -154 c135 -21 263
-76 322 -138 28 -29 29 -32 12 -50 -26 -28 -114 -72 -112 -55 3 18 11 25 30
28 16 2 17 5 8 38 -5 21 -60 44 -73 31 -6 -6 -4 -14 6 -23 13 -11 14 -10 9 4
-6 15 -3 15 20 5 28 -13 31 -39 6 -46 -13 -4 -13 -3 0 7 13 10 13 11 0 7 -8
-2 -14 -10 -12 -16 1 -6 -3 -11 -9 -11 -8 0 -8 -4 -1 -13 14 -17 2 -36 -26
-40 -12 -2 -25 -6 -28 -10 -12 -11 -64 -8 -64 4 0 8 -4 8 -14 -1 -25 -20 -554
4 -575 26 -3 4 8 4 24 1 55 -12 349 -19 395 -10 33 7 2 9 -120 9 -182 0 -316
15 -400 47 -30 12 -57 21 -60 20 -3 -1 -16 6 -29 16 -19 15 -22 23 -16 49 5
27 15 34 62 52 69 26 203 57 292 69 97 12 272 13 353 0z m321 -236 c4 -3 1
-13 -6 -21 -10 -13 -9 -14 10 -4 30 16 34 6 34 -82 0 -85 -15 -181 -38 -240
-45 -113 -252 -384 -323 -420 -14 -7 -36 -16 -50 -19 -24 -6 -23 -1 35 116
100 203 145 383 129 510 -5 36 -3 47 7 48 8 1 4 4 -9 7 -38 11 -22 26 53 49
38 13 84 31 100 42 32 21 48 25 58 14z m-363 -118 c10 -13 9 -15 -11 -15 -13
0 -35 3 -47 7 -18 4 -20 8 -10 14 21 14 54 10 68 -6z m24 -41 c28 -74 -31
-327 -111 -469 -42 -76 -44 -60 -3 27 53 112 80 222 87 351 6 101 13 127 27
91z m-688 -12 c13 -8 34 -46 34 -61 0 -6 -14 -7 -33 -4 -60 9 -136 -49 -155
-120 -11 -40 0 -133 21 -173 32 -60 128 -124 187 -123 16 0 4 7 -31 18 -65 21
-124 62 -145 102 -22 43 -17 44 30 2 51 -45 101 -63 175 -63 51 0 111 -22 111
-40 0 -5 -21 -12 -47 -15 -73 -10 -76 -16 -5 -10 81 6 81 -14 0 -33 -49 -12
-63 -12 -110 2 -68 20 -128 62 -173 123 -102 141 -81 281 58 376 41 27 63 33
83 19z m1394 -512 c0 -96 -175 -229 -400 -304 -193 -64 -472 -95 -696 -78
-155 12 -306 33 -287 39 7 3 43 -1 80 -7 38 -6 158 -14 268 -17 189 -5 207 -4
333 22 391 79 649 217 678 363 8 38 24 25 24 -18z m-905 -100 c-9 -16 -23 -30
-32 -30 -13 0 -10 7 12 30 16 17 30 30 32 30 2 0 -3 -13 -12 -30z m-695 -176
c47 -18 79 -33 72 -34 -16 0 -162 57 -182 71 -17 13 -18 13 110 -37z m155 -48
c28 -8 41 -14 30 -14 -21 0 -107 25 -90 27 6 0 33 -6 60 -13z"/>
<path d="M1098 1741 c-26 -4 -51 -10 -55 -15 -4 -4 21 -4 57 1 36 4 130 7 210
7 99 -1 131 1 100 7 -53 9 -245 9 -312 0z"/>
<path d="M957 1719 c7 -7 15 -10 18 -7 3 3 -2 9 -12 12 -14 6 -15 5 -6 -5z"/>
<path d="M791 1686 c-6 -8 -25 -19 -40 -26 -22 -9 -27 -16 -23 -33 5 -20 5
-20 13 2 7 18 11 20 23 9 8 -7 12 -16 10 -19 -2 -3 2 -6 9 -6 7 0 13 8 13 18
0 9 -6 15 -12 12 -7 -2 -15 0 -18 6 -4 5 2 12 13 16 22 7 49 35 33 35 -5 0
-15 -6 -21 -14z"/>
<path d="M865 1690 c-13 -5 -14 -9 -5 -9 8 0 24 4 35 9 13 5 14 9 5 9 -8 0
-24 -4 -35 -9z"/>
<path d="M1180 1677 c-58 -5 -115 -9 -127 -10 -13 -1 -23 -6 -23 -10 0 -5 -6
-7 -12 -5 -7 3 -21 -4 -32 -13 -16 -15 -17 -21 -6 -34 15 -18 169 -22 201 -4
19 10 18 29 -2 29 -6 0 -8 -4 -4 -9 8 -14 -49 -23 -119 -19 -40 2 -61 8 -64
17 -3 10 0 12 12 8 9 -4 14 -3 11 2 -17 28 281 48 425 28 45 -6 50 -5 27 4
-16 6 -24 15 -20 22 5 9 3 9 -8 1 -9 -8 -38 -10 -84 -5 -38 3 -117 2 -175 -2z"/>
<path d="M1465 1630 c3 -5 14 -10 23 -10 15 0 15 2 2 10 -20 13 -33 13 -25 0z"/>
<path d="M1398 1623 c6 -2 18 -2 25 0 6 3 1 5 -13 5 -14 0 -19 -2 -12 -5z"/>
<path d="M1315 1570 c3 -5 18 -10 33 -9 24 0 25 1 7 9 -28 12 -47 12 -40 0z"/>
<path d="M1405 1550 c-3 -5 -1 -10 4 -10 6 0 11 5 11 10 0 6 -2 10 -4 10 -3 0
-8 -4 -11 -10z"/>
<path d="M1375 1530 c-3 -5 -1 -10 4 -10 6 0 11 5 11 10 0 6 -2 10 -4 10 -3 0
-8 -4 -11 -10z"/>
<path d="M1615 1484 c-44 -18 -74 -34 -68 -34 19 0 142 51 149 61 3 5 4 8 2 8
-2 -1 -39 -17 -83 -35z"/>
<path d="M913 1933 c9 -2 23 -2 30 0 6 3 -1 5 -18 5 -16 0 -22 -2 -12 -5z"/>
<path d="M848 1923 c6 -2 18 -2 25 0 6 3 1 5 -13 5 -14 0 -19 -2 -12 -5z"/>
<path d="M808 1913 c7 -3 16 -2 19 1 4 3 -2 6 -13 5 -11 0 -14 -3 -6 -6z"/>
<path d="M1800 1230 c8 -5 20 -10 25 -10 6 0 3 5 -5 10 -8 5 -19 10 -25 10 -5
0 -3 -5 5 -10z"/>
</g>
</svg>
