<?xml version="1.0" standalone="no"?>
<!DOCTYPE svg PUBLIC "-//W3C//DTD SVG 20010904//EN"
 "http://www.w3.org/TR/2001/REC-SVG-20010904/DTD/svg10.dtd">
<svg version="1.0" xmlns="http://www.w3.org/2000/svg"
 width="275.000000pt" height="183.000000pt" viewBox="0 0 275.000000 183.000000"
 preserveAspectRatio="xMidYMid meet">

<g transform="translate(0.000000,183.000000) scale(0.100000,-0.100000)"
fill="#000000" stroke="none">
<path d="M1345 1786 c-28 -28 -40 -81 -30 -132 7 -41 45 -84 73 -84 10 0 27 7
38 16 10 8 13 12 6 9 -11 -6 -12 -3 -3 14 7 11 15 21 20 21 14 0 20 54 11 96
-9 40 -49 84 -76 84 -8 0 -26 -11 -39 -24z m65 -47 c0 -14 -7 -44 -16 -65 -9
-22 -13 -50 -10 -68 5 -28 4 -29 -6 -11 -15 24 -18 106 -4 98 5 -4 7 1 3 11
-4 11 -3 15 4 10 8 -4 10 8 8 40 -4 39 -2 44 8 29 7 -9 13 -29 13 -44z"/>
<path d="M1663 1613 c-17 -13 -16 -13 4 -4 12 6 28 11 35 11 7 -1 0 -7 -17
-14 -16 -7 -34 -11 -38 -9 -14 8 -68 -49 -88 -92 -22 -47 -23 -81 -5 -115 l14
-24 12 41 c16 53 51 87 115 110 38 14 55 28 73 58 22 38 23 38 17 10 -10 -49
-38 -78 -109 -113 -55 -27 -70 -40 -82 -69 -19 -44 -7 -56 49 -49 116 14 217
172 158 247 -17 23 -29 27 -70 27 -29 0 -58 -6 -68 -15z m69 -135 c-14 -14
-104 -49 -97 -38 3 5 22 14 43 20 20 7 41 16 47 21 14 14 21 11 7 -3z"/>
<path d="M986 1568 c-32 -18 -38 -57 -16 -102 23 -48 67 -80 132 -96 41 -11
52 -10 85 6 34 17 38 24 41 60 3 47 -27 93 -81 121 -36 18 -136 25 -161 11z
m34 -2 c0 -2 -7 -7 -16 -10 -8 -3 -12 -2 -9 4 6 10 25 14 25 6z m57 -76 c25 0
60 -7 78 -16 33 -15 72 -61 62 -71 -3 -2 -11 5 -17 17 -7 13 -17 19 -26 16 -8
-3 -13 -2 -10 2 3 5 -23 7 -57 6 -61 -2 -61 -2 -12 5 l50 6 -58 6 c-45 4 -64
12 -87 34 -39 38 -39 54 1 21 23 -20 42 -26 76 -26z"/>
<path d="M1330 1323 c-27 -10 -60 -46 -60 -67 0 -26 38 -66 56 -59 8 3 14 0
14 -6 0 -19 92 -13 127 8 55 34 52 85 -7 116 -28 15 -100 19 -130 8z m50 -44
c-12 -9 -11 -10 8 -6 14 3 20 1 15 -6 -4 -7 0 -8 11 -4 11 5 15 3 10 -5 -5 -8
5 -9 37 -5 42 5 43 5 19 -8 -33 -19 -64 -18 -102 1 -17 9 -46 14 -64 12 -46
-5 -27 13 23 22 55 11 60 11 43 -1z m-69 -66 c13 -16 12 -17 -3 -4 -17 13 -22
21 -14 21 2 0 10 -8 17 -17z"/>
<path d="M1655 1225 c-81 -29 -123 -114 -73 -149 74 -52 215 35 194 120 -5 18
-12 24 -22 20 -8 -3 -12 -1 -9 4 4 6 -7 8 -27 5 -26 -4 -29 -3 -13 4 32 15 -4
12 -50 -4z m105 -45 c-13 -24 -41 -40 -72 -41 -22 0 -22 -1 -3 -10 14 -6 6 -8
-27 -4 -39 5 -49 3 -67 -16 -12 -13 -21 -18 -21 -12 0 6 14 23 31 37 22 19 42
26 74 26 28 0 51 7 66 20 30 24 32 25 19 0z"/>
<path d="M941 1152 c-92 -46 -41 -171 88 -217 58 -20 99 -19 138 4 70 43 34
149 -68 202 -31 15 -46 17 -93 9 -31 -5 -62 -12 -69 -16 -9 -5 -9 -4 -1 5 6 6
30 15 55 20 36 7 38 9 14 10 -16 0 -45 -7 -64 -17z m96 -91 c76 -8 102 -19
132 -57 31 -40 25 -51 -8 -15 -26 28 -34 31 -73 26 -33 -3 -37 -3 -18 4 21 8
17 9 -25 10 -51 1 -93 21 -120 57 -25 33 -16 39 15 9 24 -23 41 -29 97 -34z
m-10 -47 c-3 -3 -12 -4 -19 -1 -8 3 -5 6 6 6 11 1 17 -2 13 -5z"/>
<path d="M1369 977 c-55 -42 -79 -156 -41 -190 20 -18 62 -23 62 -8 0 5 15 18
33 28 54 32 73 139 31 174 -12 10 -14 6 -14 -25 0 -29 -9 -46 -41 -81 -22 -24
-45 -56 -50 -72 -8 -25 -8 -24 -4 11 2 21 13 49 25 61 11 12 18 24 15 27 -3 3
3 11 12 19 16 12 17 12 8 -1 -5 -9 -2 -7 8 3 26 29 23 67 -5 67 -13 0 -30 -6
-39 -13z"/>
<path d="M1677 916 c-75 -27 -137 -96 -137 -153 0 -31 29 -62 69 -74 95 -28
241 63 241 151 0 40 -26 80 -52 80 -9 0 -8 -4 2 -11 12 -9 12 -10 -3 -5 -10 3
-35 7 -55 7 l-37 2 40 7 40 7 -35 1 c-19 1 -52 -5 -73 -12z m151 -58 c-29 -44
-66 -62 -139 -69 -58 -5 -75 -11 -99 -34 -32 -31 -40 -23 -12 10 33 39 66 55
115 55 53 0 105 18 126 43 20 25 26 21 9 -5z m-100 -85 c-15 -2 -42 -2 -60 0
-18 2 -6 4 27 4 33 0 48 -2 33 -4z"/>
<path d="M1070 733 c-27 -10 -50 -36 -50 -56 0 -11 8 -26 18 -34 10 -9 11 -11
2 -7 -10 5 -8 -1 5 -16 43 -50 134 -65 176 -30 l24 19 -41 1 c-32 0 -49 8 -82
36 -23 20 -55 40 -70 45 -22 7 -20 8 13 4 22 -3 47 -7 57 -8 22 -4 49 -27 43
-38 -8 -11 29 -29 60 -29 23 0 25 3 19 23 -14 46 -61 81 -124 91 -19 3 -42 2
-50 -1z"/>
<path d="M1130 676 c0 -2 8 -10 18 -17 15 -13 16 -12 3 4 -13 16 -21 21 -21
13z"/>
<path d="M1560 521 c-44 -23 -65 -59 -56 -94 12 -51 103 -48 156 4 73 74 -2
143 -100 90z m111 -30 c-12 -21 -60 -41 -99 -41 -14 0 -34 -8 -45 -17 -19 -17
-20 -17 -9 3 13 24 60 44 102 44 15 0 33 7 40 15 17 21 23 19 11 -4z"/>
<path d="M1249 473 c-6 -63 1 -89 34 -127 31 -35 33 -36 90 -30 31 4 57 11 57
16 0 44 -99 168 -134 168 -8 0 -21 3 -29 6 -11 4 -16 -4 -18 -33z m98 -28 c24
-25 43 -50 43 -57 0 -6 -13 7 -29 29 -15 21 -44 47 -62 56 -24 11 -28 17 -15
17 11 0 39 -20 63 -45z"/>
<path d="M1203 485 c-35 -25 -57 -96 -51 -168 3 -34 11 -74 18 -88 l12 -27 43
45 43 45 -20 34 c-21 35 -27 109 -13 152 8 26 -2 28 -32 7z"/>
<path d="M1315 288 c-49 -17 -93 -56 -105 -93 -41 -124 178 -215 331 -138 64
33 97 82 85 128 -10 39 -64 88 -113 103 -49 14 -157 14 -198 0z m0 -23 c-27
-13 -57 -35 -67 -47 -10 -13 -18 -18 -18 -12 0 16 41 51 80 68 56 24 60 18 5
-9z m251 -74 c23 -10 45 -24 48 -30 9 -15 4 -14 -30 4 -40 21 -66 19 -137 -9
-34 -14 -74 -28 -88 -31 -34 -8 -100 10 -131 35 -28 23 -21 25 18 5 42 -22 81
-18 154 15 76 34 110 37 166 11z m-114 -61 c-35 -17 -69 -30 -75 -30 -16 1
104 58 123 59 8 1 -14 -13 -48 -29z"/>
</g>
</svg>
