<?xml version="1.0" standalone="no"?>
<!DOCTYPE svg PUBLIC "-//W3C//DTD SVG 20010904//EN"
 "http://www.w3.org/TR/2001/REC-SVG-20010904/DTD/svg10.dtd">
<svg version="1.0" xmlns="http://www.w3.org/2000/svg"
 width="225.000000pt" height="225.000000pt" viewBox="0 0 225.000000 225.000000"
 preserveAspectRatio="xMidYMid meet">
<metadata>
Created by potrace 1.16, written by Peter Selinger 2001-2019
</metadata>
<g transform="translate(0.000000,225.000000) scale(0.100000,-0.100000)"
fill="#000000" stroke="none">
<path d="M710 2077 c-14 -7 -29 -26 -35 -45 l-9 -32 -251 0 c-211 0 -254 -2
-273 -16 l-22 -15 0 -493 c0 -556 2 -576 77 -718 36 -69 125 -172 188 -216
l30 -21 -187 -1 c-174 0 -189 -1 -208 -20 -26 -26 -26 -64 0 -90 17 -17 33
-20 101 -20 l81 0 56 -51 c67 -59 207 -131 307 -156 61 -16 119 -18 460 -18
377 0 393 1 470 23 108 31 213 85 290 149 l64 53 79 0 c90 0 112 14 112 68 0
56 -22 62 -222 62 l-177 0 88 88 c68 67 97 104 125 162 40 82 66 167 66 218 0
26 5 34 28 43 111 41 219 133 260 221 37 80 42 124 42 414 0 270 -1 282 -21
308 l-20 26 -699 0 -698 0 -7 29 c-10 48 -53 69 -95 48z m1405 -462 c0 -272
-3 -285 -61 -354 -29 -35 -100 -91 -116 -91 -4 0 -8 158 -8 350 l0 351 93 -3
92 -3 0 -250z m-1245 -677 l0 -78 -130 0 -130 0 0 76 c0 64 4 84 27 125 l28
48 70 3 70 3 33 -50 c29 -45 32 -56 32 -127z m685 -583 c-38 -19 -97 -38 -131
-44 -35 -7 -206 -11 -411 -11 -313 0 -358 2 -426 19 -69 18 -157 55 -157 66 0
3 269 5 598 4 l597 -1 -70 -33z"/>
</g>
</svg>
