<?xml version="1.0" standalone="no"?>
<!DOCTYPE svg PUBLIC "-//W3C//DTD SVG 20010904//EN"
 "http://www.w3.org/TR/2001/REC-SVG-20010904/DTD/svg10.dtd">
<svg version="1.0" xmlns="http://www.w3.org/2000/svg"
 width="275.000000pt" height="183.000000pt" viewBox="0 0 275.000000 183.000000"
 preserveAspectRatio="xMidYMid meet">
<metadata>
Created by potrace 1.16, written by Peter Selinger 2001-2019
</metadata>
<g transform="translate(0.000000,183.000000) scale(0.100000,-0.100000)"
fill="#000000" stroke="none">
<path d="M1072 1500 c-87 -23 -130 -47 -195 -109 -77 -73 -110 -154 -82 -197
8 -13 23 -24 32 -24 9 0 95 27 192 59 137 47 208 65 321 81 131 20 190 38 190
58 0 22 -44 74 -82 96 -97 57 -243 71 -376 36z"/>
<path d="M1400 1284 c-152 -51 -246 -75 -391 -99 -209 -36 -222 -42 -194 -95
57 -111 339 -157 498 -82 117 55 242 195 235 264 -3 30 -6 33 -38 35 -19 1
-69 -10 -110 -23z"/>
<path d="M1662 1182 c-66 -24 -153 -83 -187 -128 -62 -81 -88 -184 -62 -247
23 -54 46 -48 109 25 102 118 154 171 236 240 45 38 82 75 82 82 0 41 -98 56
-178 28z"/>
<path d="M1750 1020 c-57 -61 -143 -145 -192 -187 -94 -79 -102 -97 -58 -121
65 -34 223 20 309 106 39 39 54 64 70 117 20 65 27 147 15 179 -13 33 -45 12
-144 -94z"/>
<path d="M965 888 c-77 -29 -112 -76 -79 -108 11 -10 69 -36 129 -58 159 -58
190 -73 312 -146 60 -36 117 -66 126 -66 25 0 40 37 32 79 -18 96 -121 213
-241 272 -59 29 -78 34 -158 36 -50 1 -104 -2 -121 -9z"/>
<path d="M837 753 c-16 -15 -6 -92 18 -139 33 -66 123 -155 199 -196 59 -32
65 -33 176 -33 103 0 120 3 165 25 50 25 62 43 47 68 -5 7 -73 40 -153 73 -79
33 -203 93 -275 134 -123 70 -161 85 -177 68z"/>
</g>
</svg>
