<?xml version="1.0" standalone="no"?>
<!DOCTYPE svg PUBLIC "-//W3C//DTD SVG 20010904//EN"
 "http://www.w3.org/TR/2001/REC-SVG-20010904/DTD/svg10.dtd">
<svg version="1.0" xmlns="http://www.w3.org/2000/svg"
 width="268.000000pt" height="188.000000pt" viewBox="0 0 268.000000 188.000000"
 preserveAspectRatio="xMidYMid meet">
<metadata>
Created by potrace 1.10, written by Peter Selinger 2001-2011
</metadata>
<g transform="translate(0.000000,188.000000) scale(0.100000,-0.100000)"
fill="#000000" stroke="none">
<path d="M2675 940 c0 -520 1 -732 2 -472 2 259 2 685 0 945 -1 259 -2 47 -2
-473z"/>
<path d="M1165 1680 c28 -5 66 -8 85 -8 28 1 25 2 -15 8 -27 5 -66 8 -85 8
-28 -1 -25 -2 15 -8z"/>
<path d="M996 1615 c-128 -18 -227 -48 -266 -81 -37 -31 -31 -43 39 -78 113
-57 359 -86 573 -67 134 11 279 40 320 63 13 7 33 22 46 32 l22 20 -22 23
c-27 29 -103 57 -209 78 -118 23 -379 28 -503 10z m421 -27 c13 0 21 -3 19 -7
-3 -4 11 -5 30 -3 19 2 40 0 47 -6 6 -5 31 -13 55 -17 23 -4 40 -10 37 -14 -2
-5 7 -6 22 -3 20 4 24 2 18 -8 -6 -9 -4 -12 7 -8 9 4 15 0 15 -8 0 -8 -4 -14
-8 -14 -5 0 -6 -6 -3 -14 6 -15 -40 -31 -58 -20 -7 5 -8 2 -3 -6 6 -10 2 -11
-18 -6 -19 4 -25 3 -22 -6 3 -8 -4 -14 -17 -15 -78 -7 -94 -9 -104 -15 -24
-16 -251 -20 -354 -8 -58 7 -113 12 -122 12 -10 0 -18 4 -18 9 0 6 -15 10 -32
8 -49 -3 -70 0 -64 9 7 12 -63 44 -76 36 -6 -4 -8 -2 -4 4 3 5 0 13 -6 16 -7
3 -2 3 12 0 23 -5 23 -4 5 7 -17 11 -14 14 35 30 30 10 65 19 77 19 12 0 25 5
28 10 4 6 18 10 33 10 15 0 54 4 87 9 33 5 128 7 210 5 83 -3 160 -5 172 -6z"/>
<path d="M658 1296 c2 -174 6 -223 22 -278 11 -36 20 -68 20 -71 0 -2 -24 -7
-52 -11 -159 -20 -379 -102 -445 -164 -106 -99 -10 -207 249 -281 57 -17 144
-37 193 -45 171 -29 200 -35 255 -51 121 -36 567 -29 669 10 20 8 88 21 151
30 332 48 550 150 550 258 0 79 -138 162 -357 215 -72 18 -142 32 -157 32 -30
0 -29 -2 -15 39 7 19 53 73 112 129 124 120 219 230 246 285 28 55 13 72 -61
70 -48 -2 -206 -38 -252 -58 -18 -8 -18 -4 -12 51 l7 59 -26 -32 c-104 -129
-744 -159 -1009 -48 -22 9 -51 29 -65 44 l-26 28 3 -211z m1409 132 c-8 -5 -7
-8 3 -8 12 0 13 -2 1 -9 -8 -5 -10 -14 -6 -21 5 -9 4 -11 -3 -6 -7 4 -12 2
-12 -4 0 -6 -6 -17 -13 -25 -11 -11 -16 -10 -26 6 -6 11 -9 24 -6 29 3 5 -6
12 -20 16 -25 6 -31 15 -19 27 4 4 31 6 60 4 28 -1 47 -5 41 -9z m-1242 -48
c11 0 31 -8 44 -17 14 -9 22 -12 18 -6 -7 11 37 9 143 -6 70 -10 328 -8 425 4
33 4 76 7 95 6 25 0 30 3 20 10 -11 7 -7 9 15 7 17 -1 44 5 62 14 17 9 43 13
59 10 19 -3 25 -1 20 7 -4 6 -2 11 3 11 14 0 13 16 14 -191 1 -175 -10 -248
-36 -232 -7 4 -8 0 -4 -12 4 -9 2 -24 -4 -31 -6 -8 -8 -14 -4 -14 5 0 -2 -9
-14 -19 -14 -12 -20 -25 -15 -32 4 -7 3 -9 -3 -6 -13 8 -38 -20 -38 -43 0 -19
-71 -90 -81 -81 -4 3 -4 1 -1 -5 4 -7 0 -17 -8 -24 -8 -7 -15 -9 -15 -5 0 5
-8 1 -17 -7 -10 -9 -28 -19 -41 -23 -12 -3 -19 -11 -16 -17 4 -6 1 -14 -6 -18
-11 -7 -10 -14 4 -35 10 -15 13 -25 8 -21 -6 3 -14 1 -17 -5 -4 -5 -14 -8 -22
-5 -8 3 -22 -1 -31 -10 -10 -10 -17 -13 -20 -6 -2 8 -11 8 -30 1 -31 -12 -270
-10 -278 3 -3 4 -9 6 -14 3 -5 -3 -21 6 -36 20 -15 14 -22 25 -15 25 6 0 11 6
11 13 0 19 -45 59 -55 50 -4 -5 -2 2 4 15 12 22 11 23 -9 12 -13 -7 -20 -8
-16 -2 6 10 -30 28 -47 24 -5 -1 -6 2 -3 7 3 5 -14 30 -39 55 -24 25 -42 46
-39 46 3 0 -2 7 -10 16 -9 8 -16 21 -16 29 0 7 -6 15 -14 18 -15 6 -54 102
-62 152 -3 16 -8 100 -11 187 l-6 156 24 4 c13 2 42 -4 64 -14 22 -10 49 -18
60 -18z m1155 -5 c15 -18 -20 -68 -124 -180 -70 -74 -74 -80 -53 -87 17 -5 18
-6 4 -7 -10 -1 -16 -5 -13 -10 3 -4 -4 -17 -16 -27 -12 -11 -18 -13 -14 -6 4
7 2 12 -5 12 -9 0 -9 4 1 15 7 9 12 59 13 142 l2 128 70 17 c88 21 119 22 135
3z m-1241 -500 c39 -69 131 -162 194 -195 52 -28 57 -36 27 -45 -36 -11 -23
-42 27 -66 41 -20 67 -24 192 -27 146 -5 226 5 284 34 32 17 37 53 7 61 -30 8
-24 18 22 39 56 25 170 139 202 202 l25 50 88 -19 c194 -43 309 -89 371 -149
54 -54 41 -115 -36 -168 -99 -67 -277 -117 -552 -154 -147 -20 -633 -16 -790
6 -375 52 -580 142 -580 252 0 81 133 151 400 213 47 10 86 20 87 20 0 1 15
-24 32 -54z"/>
<path d="M1142 1125 c4 -4 -8 -24 -27 -44 -33 -34 -47 -81 -25 -81 6 0 9 -5 8
-11 -2 -6 3 -14 10 -16 6 -3 12 0 12 6 0 7 29 11 79 11 54 0 81 4 84 13 2 6 8
9 12 5 4 -4 0 -20 -10 -35 l-17 -28 23 23 c30 28 34 111 8 138 -16 15 -17 15
-24 -5 -3 -11 -11 -21 -16 -21 -6 0 -7 4 -4 10 3 5 -6 12 -21 16 -20 5 -31 2
-41 -11 -21 -29 -15 -43 7 -15 14 19 22 22 31 13 8 -8 5 -15 -15 -28 -14 -10
-26 -22 -26 -28 0 -5 8 -3 18 6 22 20 42 22 42 5 0 -7 7 -2 16 11 12 16 19 20
27 12 8 -8 5 -15 -9 -27 -10 -8 -14 -13 -7 -10 6 4 14 2 18 -4 3 -5 3 -10 -2
-11 -4 0 -34 -3 -67 -5 -55 -5 -58 -4 -53 15 3 12 2 21 -3 21 -4 0 -10 -9 -13
-20 -3 -14 -14 -20 -31 -20 -19 0 -26 5 -26 20 0 12 7 20 16 20 11 0 14 -6 10
-17 -5 -15 -4 -15 9 1 12 16 12 22 2 28 -9 5 -9 12 -1 25 15 24 36 29 27 7 -4
-12 -3 -15 5 -10 18 11 14 24 -10 37 -13 6 -20 8 -16 4z"/>
<path d="M1360 1078 c-6 -38 -5 -108 2 -108 5 0 8 25 7 55 -1 30 -4 55 -6 55
-2 0 -3 -1 -3 -2z"/>
<path d="M1185 930 c-28 -7 -27 -8 13 -9 23 0 42 4 42 9 0 11 -11 11 -55 0z"/>
<path d="M1755 699 c-16 -10 -25 -19 -19 -19 13 0 74 29 74 36 0 9 -27 1 -55
-17z"/>
<path d="M1667 674 c-3 -3 -36 -16 -74 -29 -88 -31 -60 -32 35 -1 43 13 68 26
59 29 -8 3 -17 3 -20 1z"/>
</g>
</svg>
