<?xml version="1.0" standalone="no"?>
<!DOCTYPE svg PUBLIC "-//W3C//DTD SVG 20010904//EN"
 "http://www.w3.org/TR/2001/REC-SVG-20010904/DTD/svg10.dtd">
<svg version="1.0" xmlns="http://www.w3.org/2000/svg"
 width="155.000000pt" height="116.000000pt" viewBox="0 0 155.000000 116.000000"
 preserveAspectRatio="xMidYMid meet">

<g transform="translate(0.000000,116.000000) scale(0.100000,-0.100000)"
fill="#000000" stroke="none">
<path d="M780 1064 c-25 -21 -30 -33 -28 -58 4 -43 37 -43 52 1 6 18 16 37 22
44 18 17 50 2 64 -31 16 -38 1 -82 -47 -147 l-36 -48 52 50 c90 86 105 143 50
189 -41 35 -88 34 -129 0z"/>
<path d="M583 950 c-45 -18 -57 -84 -22 -116 15 -14 38 -19 92 -20 40 -1 56 0
37 2 -66 8 -81 15 -90 39 -12 32 2 71 30 80 15 5 34 -2 62 -20 42 -28 53 -28
42 -1 -14 38 -98 57 -151 36z"/>
<path d="M792 795 c-7 -14 -12 -36 -11 -48 0 -13 6 -4 14 23 16 50 14 63 -3
25z"/>
<path d="M630 705 c-8 -2 -32 -6 -52 -10 -56 -9 -68 -26 -62 -88 15 -147 59
-268 112 -303 59 -40 227 -42 291 -3 17 10 39 34 48 53 11 24 25 37 44 41 62
14 109 75 109 143 0 52 -21 70 -61 55 l-29 -11 0 43 c0 50 -14 59 -115 75 -55
9 -249 12 -285 5z m286 -26 c163 -28 94 -64 -126 -64 -211 0 -313 32 -199 62
57 15 244 16 325 2z m184 -143 c0 -49 -24 -87 -70 -111 -16 -8 -31 -15 -33
-15 -3 0 2 28 11 63 16 66 44 107 74 107 15 0 18 -8 18 -44z"/>
<path d="M290 210 c0 -5 -7 -7 -15 -4 -9 4 -19 -3 -25 -18 -14 -29 2 -78 25
-78 10 0 13 5 9 12 -4 6 -3 8 4 5 12 -8 42 1 42 13 0 5 -9 6 -20 3 -14 -4 -20
0 -20 12 0 12 6 16 20 12 23 -6 26 3 8 21 -9 9 -9 12 3 12 12 0 12 2 -1 10
-19 12 -30 13 -30 0z m-14 -45 c-1 -26 -10 -32 -21 -15 -5 7 11 37 21 40 1 0
1 -11 0 -25z"/>
<path d="M340 190 c0 -5 5 -10 11 -10 5 0 7 5 4 10 -3 6 -8 10 -11 10 -2 0 -4
-4 -4 -10z"/>
<path d="M490 155 c0 -8 4 -15 10 -15 5 0 7 7 4 15 -4 8 -8 15 -10 15 -2 0 -4
-7 -4 -15z"/>
<path d="M734 155 c-10 -25 4 -47 28 -43 24 3 36 34 20 50 -6 6 -8 0 -5 -16 5
-22 2 -26 -17 -26 -18 0 -21 4 -18 25 6 28 1 33 -8 10z"/>
<path d="M809 158 c7 -9 9 -23 5 -30 -4 -7 -4 -10 1 -6 4 4 15 2 24 -5 14 -11
14 -10 2 6 -11 14 -11 20 0 35 12 15 12 16 -2 5 -12 -10 -18 -10 -29 0 -12 10
-12 9 -1 -5z"/>
<path d="M861 142 c-1 -28 1 -31 13 -20 8 7 10 15 6 18 -4 3 -10 12 -13 20 -3
8 -6 0 -6 -18z"/>
<path d="M971 143 c-1 -28 2 -33 22 -32 21 0 21 1 2 8 l-20 8 20 5 c15 4 16 6
3 7 -9 0 -19 9 -21 19 -3 9 -5 2 -6 -15z"/>
<path d="M1085 159 c-4 -6 2 -13 14 -16 12 -3 21 -10 21 -15 0 -6 -10 -8 -21
-5 -16 4 -19 3 -11 -5 12 -12 42 -4 42 13 0 6 -9 13 -20 16 -11 3 -17 9 -14
14 3 5 3 9 0 9 -3 0 -8 -5 -11 -11z"/>
<path d="M1224 153 c1 -13 -5 -17 -19 -15 -15 2 -17 1 -6 -7 8 -5 20 -7 28 -4
14 6 18 43 4 43 -5 0 -8 -8 -7 -17z"/>
<path d="M1251 144 c1 -17 3 -22 6 -12 4 16 6 16 19 3 23 -23 34 -18 33 13 -2
24 -2 25 -6 4 l-5 -24 -24 23 -24 22 1 -29z"/>
<path d="M1324 155 c-10 -24 4 -45 28 -44 l23 2 -24 4 c-18 4 -22 10 -18 29 5
27 -1 32 -9 9z"/>
<path d="M1355 160 c3 -5 8 -10 11 -10 2 0 4 5 4 10 0 6 -5 10 -11 10 -5 0 -7
-4 -4 -10z"/>
<path d="M1056 143 c-6 -14 -5 -15 5 -6 7 7 10 15 7 18 -3 3 -9 -2 -12 -12z"/>
<path d="M573 135 c-7 -8 -9 -16 -4 -19 5 -3 12 1 15 10 8 22 4 25 -11 9z"/>
<path d="M614 130 c1 -8 10 -16 21 -17 15 -1 15 0 3 3 -9 3 -19 11 -21 17 -2
7 -3 5 -3 -3z"/>
<path d="M640 136 c0 -2 7 -6 15 -10 8 -3 15 -1 15 4 0 6 -7 10 -15 10 -8 0
-15 -2 -15 -4z"/>
<path d="M295 100 c3 -5 10 -10 16 -10 5 0 9 5 9 10 0 6 -7 10 -16 10 -8 0
-12 -4 -9 -10z"/>
<path d="M336 95 c-8 -22 -8 -22 9 -22 17 0 18 6 6 25 -7 11 -10 10 -15 -3z"/>
<path d="M255 80 c3 -5 8 -10 11 -10 2 0 4 5 4 10 0 6 -5 10 -11 10 -5 0 -7
-4 -4 -10z"/>
<path d="M370 85 c0 -7 30 -13 34 -7 3 4 -4 9 -15 9 -10 1 -19 0 -19 -2z"/>
</g>
</svg>
