<?xml version="1.0" standalone="no"?>
<!DOCTYPE svg PUBLIC "-//W3C//DTD SVG 20010904//EN"
 "http://www.w3.org/TR/2001/REC-SVG-20010904/DTD/svg10.dtd">
<svg version="1.0" xmlns="http://www.w3.org/2000/svg"
 width="214.000000pt" height="235.000000pt" viewBox="0 0 214.000000 235.000000"
 preserveAspectRatio="xMidYMid meet">

<g transform="translate(0.000000,235.000000) scale(0.100000,-0.100000)"
fill="#000000" stroke="none">
<path d="M749 2325 c-60 -22 -113 -60 -167 -121 -29 -32 -52 -61 -52 -65 0 -3
26 2 58 13 89 30 137 32 242 10 52 -11 108 -18 123 -15 56 11 70 71 31 131
-35 54 -154 77 -235 47z m165 -36 c32 -25 33 -35 5 -50 -16 -8 -23 -8 -29 0
-3 7 -24 14 -46 17 -21 3 -50 8 -63 10 l-25 5 30 20 c38 25 94 24 128 -2z m34
-82 c3 -13 -4 -17 -30 -17 -18 0 -39 4 -47 9 -11 7 -6 12 20 19 42 12 53 10
57 -11z"/>
<path d="M430 2011 c-57 -11 -126 -49 -180 -98 -199 -179 -200 -547 -3 -847
26 -39 92 -116 146 -170 83 -83 100 -105 104 -136 l5 -38 -45 5 c-145 17 -329
-92 -399 -235 -30 -59 -33 -76 -33 -152 0 -73 4 -94 29 -148 84 -181 290 -238
525 -145 77 30 196 106 217 138 l14 22 88 -44 c48 -23 121 -50 162 -59 260
-55 603 77 757 293 178 249 170 600 -18 854 l-51 69 -57 0 c-127 0 -345 -51
-570 -134 -68 -25 -127 -44 -130 -41 -3 3 0 32 7 63 15 73 15 144 1 176 -13
28 -64 56 -103 56 -65 0 -136 -62 -151 -132 -10 -43 13 -130 50 -192 l33 -55
-55 -31 -56 -30 -33 21 c-58 36 -74 64 -74 133 0 33 9 99 20 146 11 47 20 104
20 128 0 87 -54 157 -117 150 -18 -2 -33 -3 -33 -1 0 1 18 30 39 63 95 147
103 300 18 354 -29 19 -83 26 -127 17z m40 -91 c9 -17 6 -20 -27 -29 -61 -17
-114 -49 -170 -103 -28 -28 -56 -47 -62 -44 -7 5 -9 1 -4 -11 4 -14 3 -15 -6
-7 -10 9 -9 19 4 44 59 115 232 212 265 150z m-11 -90 c28 -15 11 -89 -47
-200 -54 -104 -96 -230 -112 -329 -5 -35 -12 -66 -15 -69 -3 -3 -14 3 -24 12
-11 10 -25 15 -32 10 -9 -5 -11 -1 -7 14 4 13 0 23 -9 26 -8 3 -12 10 -9 15 4
5 1 33 -5 62 -12 57 2 182 27 229 7 14 27 55 44 93 41 89 96 147 139 147 18 0
40 -4 50 -10z m96 -406 c9 -14 14 -28 11 -31 -3 -3 -1 -13 4 -22 5 -11 3 -57
-6 -122 -11 -79 -12 -114 -4 -147 6 -24 7 -48 4 -54 -4 -7 -3 -8 4 -4 6 3 17
-4 24 -16 17 -32 19 -51 5 -60 -20 -12 31 -56 109 -93 40 -19 79 -35 88 -35
22 0 86 -32 86 -43 0 -6 -30 -8 -72 -5 -103 7 -172 44 -253 137 -17 19 -24 31
-17 27 6 -4 12 -5 12 -3 0 12 -53 97 -60 97 -17 0 -61 110 -71 176 -20 140 11
223 82 224 29 0 41 -6 54 -26z m379 -44 c35 -13 42 -62 21 -150 -10 -40 -22
-70 -30 -70 -14 0 -9 -47 6 -56 5 -3 9 -14 9 -24 0 -10 5 -20 10 -22 6 -2 1
-9 -11 -16 -12 -8 -18 -9 -15 -4 3 6 -6 19 -22 30 -51 37 -90 140 -78 207 6
29 67 115 82 115 1 0 14 -4 28 -10z m796 -121 c0 -28 -76 -132 -91 -124 -5 4
-6 0 -3 -8 7 -20 -108 -121 -176 -154 -45 -22 -69 -27 -130 -28 -70 0 -82 3
-171 48 -86 43 -150 90 -138 101 8 7 224 84 299 106 165 49 410 85 410 59z
m68 -86 c17 -27 43 -86 58 -133 25 -76 28 -100 28 -225 1 -128 -2 -147 -27
-218 -70 -200 -207 -328 -437 -409 -89 -31 -104 -33 -225 -33 -86 0 -144 5
-170 14 -134 47 -245 123 -327 226 -51 62 -129 211 -130 248 -1 12 -5 27 -9
32 -4 6 -10 27 -14 47 l-7 37 64 -22 c84 -28 292 -30 418 -3 168 36 342 110
470 200 84 59 198 173 235 236 17 27 33 50 36 50 4 0 20 -21 37 -47z m-828
-154 c0 -6 -4 -7 -10 -4 -5 3 -10 11 -10 16 0 6 5 7 10 4 6 -3 10 -11 10 -16z
m-63 -34 c41 -29 66 -62 41 -52 -7 3 -43 13 -80 23 -38 10 -68 22 -68 26 0 8
52 38 60 35 3 -1 24 -15 47 -32z m331 -61 c12 -4 22 -10 22 -15 0 -10 -45 -2
-70 12 -12 7 -11 8 5 9 11 0 30 -3 43 -6z m-718 -296 c7 -29 21 -71 32 -95 22
-50 17 -77 -18 -100 -32 -21 -84 -12 -138 23 -88 59 -161 25 -161 -74 0 -62
31 -119 84 -157 36 -25 52 -30 100 -30 48 0 64 5 94 28 49 37 61 61 67 136 3
36 10 66 16 68 6 2 26 -19 44 -47 18 -27 55 -70 82 -95 l51 -46 -24 -26 c-78
-85 -249 -155 -385 -157 -71 -1 -87 2 -140 29 -126 65 -186 233 -130 367 54
126 208 227 352 228 l60 0 14 -52z m-137 -209 c41 -22 73 -31 110 -32 52 -2
52 -2 55 -37 6 -76 -69 -138 -150 -125 -92 16 -159 135 -116 205 17 27 35 25
101 -11z"/>
<path d="M575 1000 c-3 -6 1 -7 9 -4 18 7 21 14 7 14 -6 0 -13 -4 -16 -10z"/>
<path d="M887 1243 c-8 -13 3 -53 14 -53 11 0 11 31 0 49 -5 7 -11 9 -14 4z"/>
<path d="M825 1796 c-16 -7 -40 -24 -52 -37 -22 -25 -57 -98 -50 -105 2 -2 25
3 52 12 35 12 66 15 118 11 84 -7 107 2 107 44 0 48 -47 89 -102 89 -24 -1
-56 -7 -73 -14z m117 -39 c19 -30 -4 -43 -57 -33 -38 7 -46 28 -17 45 20 12
63 5 74 -12z"/>
<path d="M1390 1643 c-26 -11 -40 -37 -35 -67 7 -41 19 -52 104 -99 42 -22 90
-56 108 -74 17 -18 34 -30 36 -26 29 52 5 150 -50 207 -54 56 -115 77 -163 59z
m83 -44 c54 -28 89 -82 49 -76 -31 5 -112 57 -112 72 0 18 33 20 63 4z"/>
</g>
</svg>
