<?xml version="1.0" standalone="no"?>
<!DOCTYPE svg PUBLIC "-//W3C//DTD SVG 20010904//EN"
 "http://www.w3.org/TR/2001/REC-SVG-20010904/DTD/svg10.dtd">
<svg version="1.0" xmlns="http://www.w3.org/2000/svg"
 width="225.000000pt" height="225.000000pt" viewBox="0 0 225.000000 225.000000"
 preserveAspectRatio="xMidYMid meet">

<g transform="translate(0.000000,225.000000) scale(0.100000,-0.100000)"
fill="#000000" stroke="none">
<path d="M1532 1944 c11 -20 18 -44 15 -57 -3 -12 -28 -118 -56 -236 -59 -246
-59 -252 -31 -226 13 12 17 22 10 30 -11 13 -2 57 14 67 8 6 8 8 0 8 -8 0 4
62 32 173 24 94 44 182 44 194 0 29 -19 71 -36 77 -8 3 -5 -8 8 -30z"/>
<path d="M1501 1945 c0 -5 6 -19 14 -29 8 -11 15 -15 15 -10 0 6 -7 19 -15 30
-8 10 -14 15 -14 9z"/>
<path d="M1432 1890 c0 -14 2 -19 5 -12 2 6 2 18 0 25 -3 6 -5 1 -5 -13z"/>
<path d="M1511 1829 c-6 -18 -11 -37 -10 -43 0 -6 7 7 15 28 8 22 12 41 10 43
-2 2 -9 -10 -15 -28z"/>
<path d="M1431 1754 c0 -11 3 -14 6 -6 3 7 2 16 -1 19 -3 4 -6 -2 -5 -13z"/>
<path d="M1456 1615 c-3 -9 -6 -24 -5 -33 0 -9 5 -4 10 12 9 32 6 48 -5 21z"/>
<path d="M1414 1585 c-3 -8 -4 -20 -2 -27 3 -7 7 -1 10 15 6 29 1 36 -8 12z"/>
<path d="M1441 1534 c0 -11 3 -14 6 -6 3 7 2 16 -1 19 -3 4 -6 -2 -5 -13z"/>
<path d="M1343 1523 c9 -2 23 -2 30 0 6 3 -1 5 -18 5 -16 0 -22 -2 -12 -5z"/>
<path d="M1358 1490 c-36 -33 -45 -36 -93 -37 -56 0 -104 -9 -114 -19 -10 -11
162 6 175 17 8 7 14 7 19 -1 10 -15 23 -12 28 8 3 9 5 0 6 -21 1 -23 -3 -36
-9 -32 -5 3 -10 1 -10 -4 0 -6 6 -11 14 -11 8 0 21 -2 28 -5 10 -4 14 3 14 24
0 17 -3 28 -8 25 -4 -3 -8 -4 -8 -2 0 2 -6 19 -13 38 -11 32 -14 34 -29 20z"/>
<path d="M1691 1475 c-18 -8 -38 -12 -43 -9 -6 4 -6 -1 1 -13 23 -45 -61 -99
-203 -129 -77 -17 -416 -17 -416 0 0 4 -9 6 -20 3 -11 -3 -20 -2 -20 2 0 7
-70 41 -85 41 -4 0 -1 -8 7 -17 28 -33 30 -42 7 -38 -17 3 -20 2 -12 -6 6 -6
9 -19 5 -28 -5 -14 -3 -13 12 2 17 17 42 14 30 -4 -3 -5 -10 -7 -15 -3 -5 3
-8 0 -7 -8 2 -7 -2 -12 -8 -11 -6 1 -11 -4 -11 -12 0 -8 4 -12 9 -9 4 3 8 -1
8 -8 0 -10 3 -9 9 2 6 8 7 18 5 22 -3 4 -1 8 5 8 15 0 23 -18 11 -25 -6 -4 -8
-11 -5 -16 10 -15 -26 -23 -36 -8 -6 9 -7 1 -3 -21 4 -19 10 -39 14 -43 4 -5
5 4 2 19 -3 15 -1 25 4 22 5 -2 22 8 39 24 16 15 24 28 17 28 -7 0 -10 5 -6
12 4 6 3 8 -4 4 -6 -3 -13 -2 -17 4 -3 5 3 10 14 10 18 0 35 -15 36 -32 0 -3
3 -10 7 -14 4 -3 5 3 3 15 -2 13 0 19 7 15 5 -4 14 0 19 7 6 10 9 8 9 -8 0
-13 4 -23 9 -23 5 0 7 10 3 22 -4 16 -2 19 8 13 10 -6 12 -4 7 9 -4 10 -3 15
3 11 12 -7 9 -42 -4 -65 -6 -9 -1 -8 12 4 12 10 20 21 18 25 -2 3 0 15 5 26 6
17 8 17 8 3 1 -10 8 -18 17 -18 8 0 12 -4 9 -10 -3 -5 1 -10 9 -10 9 0 16 -6
17 -12 0 -7 4 -4 9 7 5 11 9 15 9 10 1 -6 13 -12 28 -13 15 -1 31 -9 36 -17 4
-8 16 -15 25 -14 14 0 13 2 -3 9 -17 8 -17 9 7 7 15 -1 25 -4 22 -8 -2 -4 2
-10 8 -12 10 -4 10 -6 1 -6 -7 -1 -13 -5 -13 -9 0 -5 15 -7 32 -6 31 2 32 1
14 -12 -11 -8 -14 -14 -8 -14 16 0 15 -18 -2 -35 -10 -11 -16 -11 -27 -2 -11
10 -11 9 0 -5 7 -10 17 -15 22 -12 5 3 9 0 9 -7 0 -7 8 -6 25 5 29 19 39 20
29 4 -4 -7 -3 -8 5 -4 14 9 4 28 -13 24 -6 -2 -11 2 -11 7 0 6 5 8 10 6 6 -2
15 -4 21 -4 7 0 11 -7 9 -16 -1 -9 2 -21 7 -28 5 -7 5 -14 -1 -17 -5 -3 -7
-15 -4 -26 4 -16 0 -20 -18 -21 l-24 -1 25 -7 c19 -5 22 -9 11 -16 -12 -7 -11
-10 5 -15 10 -4 25 -2 33 4 9 7 8 1 -3 -16 -10 -16 -22 -28 -27 -28 -13 0 -6
-23 11 -37 13 -10 12 -11 -5 -10 -14 1 -21 -5 -23 -20 -2 -12 -10 -24 -19 -27
-13 -5 -14 -4 -3 9 11 13 8 15 -19 15 -18 0 -30 -4 -27 -8 3 -5 -3 -18 -13
-29 -22 -23 -88 -26 -83 -4 1 7 -2 10 -8 6 -6 -3 -8 -10 -5 -15 3 -5 0 -12 -6
-16 -7 -4 -9 -3 -5 4 3 6 2 13 -4 17 -5 3 -10 1 -10 -5 0 -6 -5 -8 -11 -4 -6
3 -15 0 -20 -7 -7 -11 -9 -11 -9 3 0 9 4 19 9 23 20 11 2 70 -30 99 -32 29
-55 31 -136 12 -17 -3 -23 0 -24 12 0 14 -2 13 -8 -3 -7 -17 -8 -17 -13 8 -3
15 -1 30 3 33 5 3 9 1 9 -4 0 -5 7 -9 17 -9 14 0 13 3 -4 16 -11 9 -18 23 -16
31 4 13 3 13 -6 0 -5 -8 -7 -18 -4 -24 3 -5 1 -6 -4 -3 -6 4 -8 18 -5 32 2 15
0 25 -7 25 -6 0 -11 7 -11 16 0 9 5 12 13 8 9 -6 9 -5 0 8 -7 8 -9 19 -5 23 4
5 1 5 -5 1 -8 -4 -13 -2 -13 5 0 7 -3 10 -6 6 -3 -3 -3 -11 1 -17 4 -7 9 -29
10 -49 3 -36 11 -82 21 -113 3 -12 -5 -22 -25 -33 -36 -18 -51 -43 -51 -85 0
-54 24 -86 73 -99 50 -12 122 3 95 20 -7 5 -8 9 -3 9 6 0 17 -6 23 -12 10 -10
15 -10 21 1 5 8 14 10 21 6 9 -6 9 -10 -1 -17 -11 -8 -10 -8 4 -4 29 9 109
-17 138 -46 36 -37 105 -38 182 -4 32 14 60 20 67 16 19 -12 63 -2 79 18 12
15 12 14 6 -8 -7 -22 -6 -23 9 -11 14 12 16 12 10 -2 -6 -16 -39 -29 -102 -42
-23 -5 -31 -10 -24 -17 7 -7 33 -4 81 11 152 46 232 118 211 191 -12 42 -26
57 -71 81 -37 18 -69 26 -56 12 4 -3 3 -11 -3 -17 -6 -8 -3 -12 10 -12 10 0
16 4 14 8 -3 4 -1 8 4 8 5 0 14 -10 20 -22 9 -20 11 -20 11 -4 1 16 3 17 22 5
11 -8 20 -18 21 -24 0 -5 4 -16 10 -22 8 -10 5 -13 -10 -13 -11 0 -27 -7 -36
-15 -9 -9 -17 -11 -21 -5 -3 5 -12 10 -18 9 -9 0 -9 -2 1 -6 6 -2 12 -11 12
-19 0 -8 6 -14 13 -14 8 0 7 -3 -3 -9 -18 -12 -31 -5 -24 14 5 13 2 13 -23 0
-64 -31 -123 -51 -123 -40 0 3 11 10 25 15 13 5 31 23 40 39 14 29 14 32 -5
51 -19 19 -19 21 -2 50 9 16 24 30 32 31 8 0 10 3 4 5 -8 3 -5 22 8 59 16 42
26 55 47 60 28 7 91 51 90 63 -3 20 2 33 11 27 6 -3 10 -1 10 4 0 6 -5 11 -12
11 -6 0 -4 8 6 19 10 11 15 25 10 32 -4 8 -3 10 4 5 7 -4 10 -18 6 -34 -10
-45 13 -5 36 65 18 51 19 66 9 85 -16 30 -28 38 -63 38 -24 0 -27 -2 -16 -15
16 -19 7 -64 -24 -132 -21 -45 -69 -93 -81 -81 -8 8 16 142 28 157 9 12 9 13
0 7 -31 -18 -10 25 27 57 35 29 55 58 32 43 -5 -3 -7 5 -6 17 1 12 3 25 3 30
2 13 15 7 46 -19 17 -15 24 -23 18 -20 -8 5 -13 1 -13 -10 0 -11 6 -15 20 -11
12 3 20 0 20 -8 0 -7 6 -18 14 -25 8 -6 17 -19 19 -28 3 -9 3 -2 1 16 -4 41
-44 96 -84 117 -35 18 -46 18 -89 0z m-671 -207 c0 -5 -11 -1 -25 8 -14 9 -25
18 -25 20 0 2 11 -2 25 -8 14 -6 25 -15 25 -20z m533 -33 c-7 -21 -13 -19 -13
6 0 11 4 18 10 14 5 -3 7 -12 3 -20z m-77 -34 c0 -16 -4 -27 -7 -25 -4 2 -6
12 -4 22 2 9 4 20 4 25 1 4 3 7 5 7 2 0 3 -13 2 -29z m58 -20 c9 -7 14 -17 11
-21 -7 -11 -40 -6 -40 6 0 5 -4 14 -8 21 -10 15 16 11 37 -6z m-113 -18 c13
-16 12 -17 -3 -4 -17 13 -22 21 -14 21 2 0 10 -8 17 -17z m-46 -53 c3 -5 -1
-10 -10 -10 -9 0 -13 5 -10 10 3 6 8 10 10 10 2 0 7 -4 10 -10z m140 -31 c-4
-5 -12 -9 -18 -8 -9 0 -8 2 1 6 6 2 9 10 6 15 -4 7 -2 8 5 4 6 -4 9 -12 6 -17z
m-38 -15 c-10 -10 12 -45 26 -42 7 2 13 -1 13 -7 0 -5 -6 -9 -13 -7 -7 2 -13
-5 -13 -14 0 -16 -1 -16 -14 2 -9 12 -11 21 -4 25 6 4 3 12 -6 22 -12 11 -13
17 -3 20 18 8 21 8 14 1z m-338 -150 c2 -2 -8 -4 -24 -4 -39 0 -134 -30 -167
-53 -29 -19 -39 -9 -13 13 8 7 15 10 15 6 0 -4 10 0 23 8 12 8 37 17 55 21 17
4 32 10 32 15 0 8 69 2 79 -6z m-69 -48 c-8 -7 -31 -16 -50 -19 l-35 -6 40 19
c47 23 65 25 45 6z m318 -50 c12 -3 11 -4 -3 -3 -12 1 -20 10 -21 22 -1 14 0
15 3 3 2 -9 12 -19 21 -22z m152 29 c0 -3 -9 -14 -21 -26 -26 -26 -39 -16 -14
11 17 19 35 26 35 15z m24 -29 c-5 -14 -28 -16 -40 -3 -4 4 3 7 15 7 14 0 20
4 15 12 -4 7 -3 8 4 4 6 -4 9 -13 6 -20z m179 -3 c-7 -2 -19 -2 -25 0 -7 3 -2
5 12 5 14 0 19 -2 13 -5z m-618 -13 c-3 -5 -12 -10 -18 -10 -7 0 -6 4 3 10 19
12 23 12 15 0z m204 -4 c-13 -11 -50 -26 -45 -18 3 6 0 13 -6 15 -7 3 2 6 21
6 19 1 32 -1 30 -3z m-162 -22 c-3 -3 -12 -4 -19 -1 -8 3 -5 6 6 6 11 1 17 -2
13 -5z m256 -13 c-4 -3 -8 -13 -8 -21 0 -20 -102 -43 -109 -25 -3 8 7 18 25
24 16 5 29 13 29 16 0 3 -6 3 -12 -1 -9 -5 -10 -4 -3 4 12 12 54 20 73 14 8
-3 10 -8 5 -11z m187 -11 c-18 -12 -30 -13 -30 -2 0 4 10 9 22 9 18 2 20 0 8
-7z m90 6 c0 -3 -4 -8 -10 -11 -5 -3 -10 -1 -10 4 0 6 5 11 10 11 6 0 10 -2
10 -4z m-133 -33 c-9 -8 -47 -11 -47 -4 0 5 11 9 25 9 14 0 24 -2 22 -5z
m-274 -20 c-7 -2 -19 -2 -25 0 -7 3 -2 5 12 5 14 0 19 -2 13 -5z"/>
<path d="M1513 1177 c0 -8 6 -14 14 -14 9 0 10 4 2 14 -6 7 -12 13 -14 13 -1
0 -2 -6 -2 -13z"/>
<path d="M896 1439 c-14 -17 -26 -38 -25 -47 0 -11 5 -8 12 10 7 14 21 36 31
47 11 12 17 21 13 21 -3 0 -17 -14 -31 -31z"/>
<path d="M1479 1462 c12 -9 12 -13 2 -26 -10 -12 -10 -16 -2 -16 7 0 10 -4 7
-9 -4 -5 3 -7 14 -4 11 3 26 0 33 -6 8 -6 17 -8 20 -4 4 3 7 1 7 -6 0 -9 -13
-10 -46 -5 -32 5 -49 3 -54 -6 -6 -10 -26 -12 -106 -9 -17 1 -20 6 -16 22 5
18 2 19 -24 12 -16 -5 -57 -8 -92 -8 -34 0 -60 -2 -58 -5 9 -8 -62 -42 -91
-43 l-28 0 24 -10 c39 -16 297 -12 376 5 80 17 152 41 172 57 16 14 18 49 2
49 -5 0 -8 -4 -5 -9 4 -5 0 -12 -6 -14 -10 -4 -10 -6 0 -6 7 -1 10 -6 7 -12
-5 -7 -14 -4 -26 7 -19 17 -20 17 -14 -2 6 -17 5 -17 -7 -3 -7 8 -26 15 -43
15 -23 -1 -30 3 -30 18 0 11 -7 21 -15 23 -13 4 -13 3 -1 -5z"/>
<path d="M922 1438 c-20 -20 -14 -47 15 -62 23 -11 30 -12 48 0 11 7 47 20 79
28 72 19 96 37 40 30 -22 -3 -47 -5 -56 -5 -10 0 -20 -5 -23 -10 -4 -5 -11 -6
-17 -3 -7 4 -8 2 -4 -4 4 -7 3 -12 -3 -12 -5 0 -12 4 -16 10 -3 5 -12 7 -20 4
-8 -4 -12 -10 -9 -15 3 -5 -2 -6 -10 -3 -22 9 -27 32 -8 43 9 6 12 11 7 11 -6
0 -16 -5 -23 -12z"/>
<path d="M1699 1343 c-13 -16 -12 -17 4 -4 9 7 17 15 17 17 0 8 -8 3 -21 -13z"/>
<path d="M900 1340 c0 -5 5 -10 11 -10 5 0 7 5 4 10 -3 6 -8 10 -11 10 -2 0
-4 -4 -4 -10z"/>
<path d="M872 1300 c0 -14 2 -19 5 -12 2 6 2 18 0 25 -3 6 -5 1 -5 -13z"/>
<path d="M1861 1294 c0 -11 3 -14 6 -6 3 7 2 16 -1 19 -3 4 -6 -2 -5 -13z"/>
<path d="M1112 1214 c-14 -16 -5 -18 17 -5 7 5 9 11 5 14 -5 3 -15 -1 -22 -9z"/>
<path d="M1206 1222 c-3 -5 1 -9 9 -9 8 0 12 4 9 9 -3 4 -7 8 -9 8 -2 0 -6 -4
-9 -8z"/>
<path d="M881 1194 c0 -11 3 -14 6 -6 3 7 2 16 -1 19 -3 4 -6 -2 -5 -13z"/>
<path d="M989 1203 c0 -5 -2 -16 -4 -25 -2 -10 0 -20 5 -23 4 -2 7 5 6 18 -1
13 4 21 12 19 8 -1 11 2 7 8 -7 12 -25 13 -26 3z"/>
<path d="M1175 1200 c-3 -5 -1 -10 4 -10 6 0 11 5 11 10 0 6 -2 10 -4 10 -3 0
-8 -4 -11 -10z"/>
<path d="M1764 1098 l-19 -23 23 19 c21 18 27 26 19 26 -2 0 -12 -10 -23 -22z"/>
<path d="M983 1095 c0 -8 4 -12 9 -9 5 3 6 10 3 15 -9 13 -12 11 -12 -6z"/>
<path d="M1305 1080 c3 -5 8 -10 11 -10 2 0 4 5 4 10 0 6 -5 10 -11 10 -5 0
-7 -4 -4 -10z"/>
<path d="M1407 1073 c-15 -4 -16 -7 -5 -20 10 -13 9 -15 -7 -11 -11 2 -18 11
-17 19 2 8 0 10 -4 6 -20 -20 -11 -37 18 -37 21 0 29 4 25 14 -3 7 0 19 6 25
6 6 9 10 7 10 -3 -1 -13 -3 -23 -6z"/>
<path d="M990 1046 c0 -2 8 -10 18 -17 15 -13 16 -12 3 4 -13 16 -21 21 -21
13z"/>
<path d="M1325 1000 c3 -5 12 -7 20 -3 21 7 19 13 -6 13 -11 0 -18 -4 -14 -10z"/>
<path d="M1374 992 c0 -9 -5 -16 -12 -14 -8 1 -11 -2 -8 -7 4 -5 0 -12 -6 -14
-8 -3 -6 -6 5 -6 9 -1 17 4 17 10 0 6 6 9 14 6 10 -4 12 0 9 14 -7 25 -21 34
-19 11z"/>
<path d="M930 951 c0 -6 4 -13 10 -16 6 -3 7 1 4 9 -7 18 -14 21 -14 7z"/>
<path d="M1388 933 c7 -3 16 -2 19 1 4 3 -2 6 -13 5 -11 0 -14 -3 -6 -6z"/>
<path d="M1348 903 c7 -3 16 -2 19 1 4 3 -2 6 -13 5 -11 0 -14 -3 -6 -6z"/>
<path d="M682 873 c-76 -15 -69 -161 10 -228 36 -30 53 -31 95 -5 37 22 50 58
33 89 -6 12 -8 26 -5 31 7 12 -31 80 -57 103 -20 17 -32 18 -76 10z m40 -95
c1 -26 -1 -43 -5 -39 -4 4 -9 18 -10 29 -1 13 -7 21 -15 19 -8 -1 -16 8 -18
21 -5 26 -1 27 22 5 16 -16 16 -16 9 7 -5 17 -4 22 3 15 5 -5 12 -31 14 -57z
m46 19 c12 -80 12 -101 1 -82 -7 11 -15 22 -19 25 -3 3 -7 16 -7 30 -1 14 -5
36 -9 50 -7 24 -7 25 13 7 11 -9 20 -23 21 -30z m-88 -38 c0 -5 -4 -9 -8 -9
-5 0 -9 7 -9 15 0 8 4 12 9 9 4 -3 8 -9 8 -15z m30 -76 c0 -12 -3 -13 -13 -4
-8 6 -16 9 -19 6 -2 -3 -5 1 -5 9 0 8 8 11 19 8 10 -2 18 -11 18 -19z"/>
<path d="M820 753 c0 -5 14 -19 30 -31 17 -13 30 -18 30 -13 0 5 -13 19 -30
31 -16 12 -30 17 -30 13z"/>
<path d="M1014 685 c-95 -50 -116 -99 -65 -154 21 -23 38 -31 63 -31 46 0 136
53 144 85 6 25 8 25 113 26 79 1 97 3 71 9 -19 5 -63 7 -97 5 -61 -4 -63 -3
-78 25 -18 35 -52 60 -81 60 -11 0 -43 -11 -70 -25z m81 -5 c-3 -5 -12 -10
-18 -10 -7 0 -6 4 3 10 19 12 23 12 15 0z m-36 -14 c-2 -2 -15 -7 -29 -10
l-25 -7 25 15 c21 12 42 14 29 2z m11 -26 c-8 -5 -19 -10 -25 -10 -5 0 -3 5 5
10 8 5 20 10 25 10 6 0 3 -5 -5 -10z m44 -35 l17 -25 -63 -30 c-35 -17 -74
-30 -88 -29 -23 1 -23 2 5 9 17 4 41 12 55 18 l25 11 -22 7 c-13 3 -23 10 -23
14 0 11 33 38 55 43 11 2 21 5 21 6 1 0 9 -10 18 -24z"/>
<path d="M1085 580 c-4 -6 -11 -8 -16 -5 -5 4 -9 1 -9 -4 0 -14 10 -13 40 4
18 10 20 14 8 15 -9 0 -20 -5 -23 -10z"/>
<path d="M468 636 c-15 -8 -30 -11 -33 -8 -4 4 -5 2 -3 -5 2 -6 -6 -19 -17
-27 -16 -12 -17 -17 -7 -24 11 -8 11 -10 -2 -15 -8 -3 -17 -1 -20 6 -2 7 -5 0
-5 -14 -1 -36 33 -76 75 -88 43 -12 132 1 167 24 59 38 61 144 3 159 -39 11
-131 6 -158 -8z m148 -74 c-17 -16 -18 -16 -5 5 7 12 15 20 18 17 3 -2 -3 -12
-13 -22z m-61 3 c6 0 15 3 21 7 7 5 11 -3 10 -21 -1 -16 -4 -27 -7 -25 -4 2
-18 -5 -32 -16 -14 -11 -31 -20 -39 -19 -7 0 -3 4 10 9 25 10 26 17 12 56 -9
21 -8 25 2 17 7 -5 18 -9 23 -8z m-45 -5 c13 -8 11 -11 -7 -16 -13 -4 -20 -11
-17 -16 4 -6 -3 -5 -15 2 -18 9 -20 14 -10 26 13 16 28 18 49 4z m-35 -60 c19
-8 19 -9 -2 -9 -12 -1 -25 4 -28 9 -7 12 2 12 30 0z"/>
<path d="M1410 630 c8 -5 26 -9 40 -9 l25 1 -25 8 c-14 4 -32 8 -40 9 -13 1
-13 0 0 -9z"/>
<path d="M1246 558 c-23 -32 -20 -45 4 -17 10 13 19 19 20 12 0 -6 -5 -15 -11
-19 -7 -4 -8 -9 -1 -13 6 -4 6 -15 -1 -31 l-10 -25 -7 25 c-7 23 -8 23 -9 3
-1 -12 3 -24 8 -27 4 -3 6 -16 4 -29 -6 -31 44 -70 84 -65 53 6 93 131 59 183
-14 22 -24 25 -71 25 -44 0 -57 -4 -69 -22z m83 -114 c1 -19 -7 -38 -19 -49
-11 -10 -20 -13 -20 -7 0 7 4 12 8 12 11 0 14 21 14 95 0 57 0 58 8 20 5 -22
9 -54 9 -71z"/>
<path d="M802 520 c-36 -16 -47 -29 -73 -84 -42 -90 -26 -138 54 -156 51 -11
90 10 131 72 47 70 49 115 5 152 -17 14 -34 26 -39 26 -5 0 -14 2 -22 5 -7 2
-32 -4 -56 -15z m23 -45 c-1 -14 -9 -31 -18 -38 -9 -7 -22 -25 -28 -42 -9 -23
-13 -26 -16 -12 -3 9 -9 15 -14 12 -17 -11 -9 4 14 26 12 12 16 19 10 15 -14
-8 -16 -2 -7 31 3 12 12 19 19 17 7 -3 15 2 19 11 9 24 25 9 21 -20z m1 -73
c-8 -16 -13 -32 -11 -36 3 -3 2 -4 -2 -1 -3 3 -15 -2 -25 -12 -27 -24 -22 -3
14 53 32 51 51 48 24 -4z"/>
</g>
</svg>
