<?xml version="1.0" standalone="no"?>
<!DOCTYPE svg PUBLIC "-//W3C//DTD SVG 20010904//EN"
 "http://www.w3.org/TR/2001/REC-SVG-20010904/DTD/svg10.dtd">
<svg version="1.0" xmlns="http://www.w3.org/2000/svg"
 width="225.000000pt" height="225.000000pt" viewBox="0 0 225.000000 225.000000"
 preserveAspectRatio="xMidYMid meet">
<metadata>
Created by potrace 1.10, written by Peter Selinger 2001-2011
</metadata>
<g transform="translate(0.000000,225.000000) scale(0.100000,-0.100000)"
fill="#000000" stroke="none">
<path d="M1009 2044 c-176 -31 -351 -120 -482 -243 -134 -127 -217 -262 -273
-446 -25 -82 -28 -104 -28 -255 -1 -142 2 -177 22 -250 89 -325 317 -568 635
-676 103 -35 179 -46 312 -45 193 1 380 59 542 169 389 264 527 791 319 1217
-190 390 -619 607 -1047 529z m360 -44 c347 -71 620 -324 713 -662 31 -114 36
-327 9 -445 -37 -170 -111 -309 -229 -435 -84 -89 -165 -147 -283 -202 -139
-65 -235 -86 -395 -86 -162 0 -277 26 -410 93 -248 124 -405 316 -485 588 -15
54 -23 113 -26 215 -5 130 -3 150 21 245 15 57 47 145 71 196 180 371 603 577
1014 493z"/>
<path d="M1065 1765 c-313 -58 -541 -317 -562 -639 -20 -318 218 -631 532
-701 110 -25 264 -17 363 18 108 38 177 82 268 172 68 67 89 96 127 175 78
162 96 328 51 480 -29 99 -102 225 -169 295 -108 110 -213 167 -368 199 -89
19 -146 19 -242 1z m287 -51 c165 -42 330 -178 407 -334 53 -109 74 -209 68
-320 -15 -267 -181 -484 -439 -578 -65 -24 -87 -27 -203 -27 -110 0 -140 4
-196 23 -197 68 -352 222 -416 415 -23 71 -27 98 -27 202 0 104 4 130 27 198
82 236 281 400 532 440 51 9 181 -1 247 -19z"/>
<path d="M1191 1689 c18 -34 -4 -90 -61 -156 -63 -73 -100 -146 -100 -196 0
-55 42 -126 106 -182 55 -47 64 -68 44 -106 -7 -12 -7 -19 -1 -19 15 0 31 35
31 69 0 21 -14 47 -48 88 -88 105 -89 123 -15 231 97 141 112 194 72 258 -23
37 -47 48 -28 13z"/>
<path d="M1159 1400 c-22 -23 -41 -54 -44 -74 -7 -37 1 -76 15 -76 6 0 5 11
-1 26 -21 56 59 144 116 130 33 -8 31 -27 -5 -54 -35 -26 -38 -54 -10 -82 28
-28 57 -25 91 9 67 67 16 161 -87 161 -30 0 -44 -7 -75 -40z m145 -75 c-7 -18
-34 -28 -34 -12 0 17 21 38 31 31 5 -2 6 -11 3 -19z"/>
<path d="M910 998 c0 -26 32 -146 62 -240 l32 -96 170 -4 c94 -2 173 -2 175
-1 2 1 17 46 33 100 32 108 61 148 115 159 27 5 37 1 64 -25 25 -26 30 -37 24
-59 -9 -35 -33 -62 -57 -62 -15 0 -18 7 -16 43 3 37 0 42 -20 45 -56 8 -86
-80 -40 -112 44 -31 134 -11 158 33 5 11 10 41 10 66 0 38 -5 52 -30 77 -28
27 -35 29 -83 26 -28 -2 -60 -8 -70 -12 -16 -8 -17 -4 -11 33 l7 41 -262 0
c-202 0 -261 -3 -261 -12z m479 -60 c14 -25 14 -30 -2 -57 -9 -16 -26 -60 -38
-98 -11 -37 -28 -74 -37 -80 -16 -14 -235 -19 -266 -7 -17 7 -74 172 -78 227
l-3 32 80 6 c44 3 136 5 205 5 l124 -1 15 -27z"/>
<path d="M837 627 c9 -14 141 -77 217 -102 135 -45 255 -26 414 65 39 23 72
42 72 43 0 1 -159 2 -354 2 -195 0 -352 -3 -349 -8z m417 -38 l111 -1 -44 -20
c-79 -36 -181 -35 -278 3 -26 10 -27 12 -8 20 11 5 40 6 64 4 24 -3 94 -5 155
-6z"/>
</g>
</svg>
