<?xml version="1.0" standalone="no"?>
<!DOCTYPE svg PUBLIC "-//W3C//DTD SVG 20010904//EN"
 "http://www.w3.org/TR/2001/REC-SVG-20010904/DTD/svg10.dtd">
<svg version="1.0" xmlns="http://www.w3.org/2000/svg"
 width="119.000000pt" height="119.000000pt" viewBox="0 0 119.000000 119.000000"
 preserveAspectRatio="xMidYMid meet">

<g transform="translate(0.000000,119.000000) scale(0.100000,-0.100000)"
fill="#000000" stroke="none">
<path d="M514 1179 c-69 -16 -145 -69 -179 -123 -28 -47 -30 -55 -30 -150 0
-71 5 -108 15 -126 14 -24 15 -21 21 61 6 94 26 140 67 158 19 9 38 7 97 -14
40 -14 81 -25 90 -25 9 0 50 11 90 25 61 21 77 24 98 14 37 -17 59 -72 66
-164 5 -69 8 -77 18 -59 18 31 27 123 19 188 -5 38 -18 71 -39 103 -60 90
-213 141 -333 112z"/>
<path d="M397 416 c-18 -15 -55 -28 -100 -36 -98 -17 -168 -45 -201 -79 -28
-29 -49 -94 -60 -187 -7 -60 -19 -54 149 -79 87 -13 353 -35 362 -30 1 0 -15
63 -36 140 -21 77 -42 155 -46 174 -7 32 -6 34 16 26 45 -14 167 -17 204 -5
20 7 38 10 40 8 3 -2 -16 -78 -40 -169 -25 -90 -45 -166 -45 -169 0 -14 435
26 503 46 16 5 17 13 12 62 -20 181 -65 225 -263 263 -35 7 -79 23 -99 36 -33
22 -37 23 -54 8 -62 -57 -226 -57 -288 -1 -22 20 -20 20 -54 -8z"/>
</g>
</svg>
