<?xml version="1.0" standalone="no"?>
<!DOCTYPE svg PUBLIC "-//W3C//DTD SVG 20010904//EN"
 "http://www.w3.org/TR/2001/REC-SVG-20010904/DTD/svg10.dtd">
<svg version="1.0" xmlns="http://www.w3.org/2000/svg"
 width="122.000000pt" height="122.000000pt" viewBox="0 0 122.000000 122.000000"
 preserveAspectRatio="xMidYMid meet">

<g transform="translate(0.000000,122.000000) scale(0.100000,-0.100000)"
fill="#000000" stroke="none">
<path d="M655 1196 c-22 -7 -60 -23 -84 -35 -24 -13 -63 -23 -87 -24 -24 -1
-44 -6 -44 -11 0 -16 90 5 157 36 52 25 81 32 142 34 l76 3 -75 -9 c-100 -11
-142 -30 -216 -102 -60 -58 -79 -91 -97 -173 -3 -13 -5 -10 -6 10 -2 46 16 96
44 125 l25 27 -22 18 c-20 17 -21 17 -7 1 15 -16 15 -19 -7 -41 -46 -46 -56
-173 -17 -231 11 -17 12 -28 5 -37 -8 -10 -5 -13 15 -12 14 0 28 -5 30 -12 3
-7 -4 -9 -19 -6 l-23 6 23 -19 c29 -24 43 -94 19 -94 -20 0 -47 39 -57 83 -7
29 -8 30 -9 6 -1 -33 38 -93 64 -98 11 -2 24 -8 28 -15 5 -6 6 0 2 14 -3 14
-9 64 -12 112 -6 96 6 165 38 210 24 33 39 37 32 8 -3 -13 0 -20 8 -20 22 0
122 50 147 72 25 24 27 21 12 -17 -10 -26 -9 -26 22 -20 18 4 48 15 65 25 l32
19 20 -42 c10 -23 31 -57 45 -76 23 -31 26 -44 26 -117 0 -120 -15 -179 -59
-227 -40 -45 -120 -87 -166 -87 -46 0 -126 42 -167 88 -21 23 -38 38 -38 33 0
-15 94 -96 128 -110 30 -13 31 -15 17 -31 -8 -9 -15 -20 -15 -25 0 -5 7 0 15
11 13 17 14 17 15 2 0 -10 9 -25 19 -35 20 -18 20 -19 -1 -51 -11 -17 -25 -32
-31 -32 -6 0 -7 -3 -4 -7 4 -3 16 2 27 12 20 18 20 17 20 -13 0 -17 -4 -42
-10 -56 -9 -24 -8 -25 15 -14 19 9 30 7 52 -7 15 -10 22 -11 15 -4 -10 11 -8
17 10 32 23 19 23 19 -5 2 -16 -9 -31 -14 -34 -12 -9 10 -16 87 -7 87 5 0 15
-10 23 -21 10 -18 15 -19 22 -8 5 8 9 19 9 24 0 6 -4 3 -10 -5 -5 -8 -11 -12
-13 -10 -35 44 -46 68 -33 73 8 3 20 16 27 29 10 19 8 18 -15 -6 -26 -27 -28
-27 -47 -11 -10 10 -19 27 -19 38 0 17 5 19 45 15 24 -3 43 -2 40 2 -2 4 14
15 36 25 50 23 116 86 125 120 4 14 13 25 23 25 18 0 61 39 61 54 0 5 -9 -3
-21 -18 -11 -14 -27 -26 -35 -26 -22 0 -7 70 19 94 l22 19 -23 -6 c-15 -3 -22
-1 -19 6 2 7 15 12 28 12 20 0 25 -6 30 -35 l6 -35 2 31 c0 17 -6 37 -14 44
-16 13 -10 59 9 72 18 12 13 158 -7 194 -17 33 -71 84 -89 84 -5 0 -19 12 -31
26 -11 15 -35 33 -53 40 -41 17 -135 17 -189 0z m312 -102 c18 -14 33 -30 33
-35 0 -6 -7 -3 -16 6 -9 8 -29 22 -45 30 -16 9 -29 18 -29 20 0 12 26 3 57
-21z m-191 -57 c-13 -39 -26 -58 -26 -39 0 13 32 83 36 79 2 -2 -3 -19 -10
-40z m-135 4 c-11 -15 -25 -40 -31 -55 -8 -22 -30 -37 -30 -20 0 12 24 51 48
77 33 35 39 35 13 -2z m93 -685 c-5 -13 -9 -14 -14 -5 -11 16 0 43 12 31 5 -5
6 -17 2 -26z m-2 -56 c3 -19 0 -30 -7 -30 -7 0 -10 11 -7 30 2 17 5 30 7 30 2
0 5 -13 7 -30z"/>
<path d="M567 922 c-24 -26 -23 -50 1 -29 21 19 45 21 73 7 27 -15 25 5 -3 24
-29 21 -51 20 -71 -2z"/>
<path d="M812 924 c-28 -19 -30 -39 -3 -24 28 14 52 12 73 -7 15 -14 18 -14
18 -1 0 18 -31 48 -51 48 -8 0 -25 -7 -37 -16z"/>
<path d="M233 865 c-3 -9 -3 -19 1 -22 3 -4 6 1 6 10 0 8 6 18 13 20 9 4 9 6
-1 6 -7 1 -15 -6 -19 -14z"/>
<path d="M348 873 c7 -3 16 -2 19 1 4 3 -2 6 -13 5 -11 0 -14 -3 -6 -6z"/>
<path d="M582 838 c-7 -7 -12 -21 -11 -32 0 -17 2 -16 11 7 11 29 43 37 68 15
12 -11 12 -10 1 5 -15 20 -51 23 -69 5z"/>
<path d="M799 833 c-13 -16 -12 -17 3 -5 26 20 61 11 69 -18 6 -21 7 -22 8 -4
2 42 -53 61 -80 27z"/>
<path d="M360 810 c0 -25 4 -31 17 -28 26 5 28 35 4 48 -19 10 -21 8 -21 -20z
m30 -5 c0 -8 -4 -15 -10 -15 -5 0 -10 7 -10 15 0 8 5 15 10 15 6 0 10 -7 10
-15z"/>
<path d="M233 785 c0 -27 2 -38 4 -22 2 15 2 37 0 50 -2 12 -4 0 -4 -28z"/>
<path d="M610 805 c-14 -17 -4 -55 15 -55 20 0 27 15 19 45 -7 28 -16 31 -34
10z"/>
<path d="M804 806 c-9 -24 0 -50 19 -54 20 -4 35 27 18 38 -7 4 -12 11 -11 16
3 16 -20 16 -26 0z"/>
<path d="M351 759 c-1 -9 -8 -22 -16 -29 -8 -7 -14 -26 -14 -44 l2 -31 4 30
c3 17 12 38 20 47 8 9 13 23 10 30 -4 9 -6 8 -6 -3z"/>
<path d="M708 745 c2 -14 -1 -32 -8 -40 -9 -10 -9 -18 0 -32 10 -16 10 -15 5
5 -4 14 -1 24 8 28 14 5 12 50 -3 59 -4 2 -5 -7 -2 -20z"/>
<path d="M231 684 c0 -11 3 -14 6 -6 3 7 2 16 -1 19 -3 4 -6 -2 -5 -13z"/>
<path d="M222 640 c0 -14 2 -19 5 -12 2 6 2 18 0 25 -3 6 -5 1 -5 -13z"/>
<path d="M630 620 c0 -9 59 -35 64 -29 2 2 -12 11 -30 20 -19 9 -34 13 -34 9z"/>
<path d="M805 618 c-10 -6 -37 -17 -60 -24 -22 -7 -31 -13 -20 -13 21 -1 105
34 105 44 0 7 -2 6 -25 -7z"/>
<path d="M212 590 c0 -14 2 -19 5 -12 2 6 2 18 0 25 -3 6 -5 1 -5 -13z"/>
<path d="M310 523 c-3 -39 -2 -69 2 -67 4 2 9 -10 11 -28 4 -33 4 -33 5 5 2
35 10 45 26 30 10 -10 46 -11 40 -1 -9 14 9 9 29 -9 19 -17 20 -17 14 0 -4 9
-2 17 3 17 5 0 14 -8 19 -17 10 -17 10 -17 11 -1 0 21 -39 33 -75 24 -14 -4
-36 -4 -50 0 -21 5 -24 12 -27 62 l-3 57 -5 -72z"/>
<path d="M202 540 c0 -14 2 -19 5 -12 2 6 2 18 0 25 -3 6 -5 1 -5 -13z"/>
<path d="M192 490 c0 -14 2 -19 5 -12 2 6 2 18 0 25 -3 6 -5 1 -5 -13z"/>
<path d="M493 459 c9 -5 17 -18 17 -27 0 -11 3 -13 8 -5 4 6 21 13 37 16 28 4
27 4 -7 6 -20 0 -40 6 -43 11 -3 6 -12 10 -18 10 -7 0 -4 -5 6 -11z"/>
<path d="M181 414 c-1 -44 9 -61 51 -87 28 -18 54 -24 28 -7 -13 8 -13 10 1
10 9 0 24 10 35 23 19 22 19 22 -2 5 -22 -19 -60 -23 -83 -9 -8 5 -18 31 -22
58 l-6 48 -2 -41z"/>
<path d="M608 443 c6 -2 18 -2 25 0 6 3 1 5 -13 5 -14 0 -19 -2 -12 -5z"/>
<path d="M800 406 c4 -39 5 -39 8 -9 3 30 5 31 29 22 14 -5 27 -8 29 -6 3 2
-13 11 -33 19 l-38 15 5 -41z"/>
<path d="M412 385 c0 -16 2 -22 5 -12 2 9 2 23 0 30 -3 6 -5 -1 -5 -18z"/>
<path d="M522 368 c-2 -42 2 -51 33 -82 19 -20 50 -43 68 -52 17 -9 41 -24 52
-33 20 -16 20 -16 2 6 -12 13 -16 27 -11 35 6 10 5 11 -7 1 -13 -11 -24 -8
-61 17 -51 34 -66 58 -71 115 -4 39 -4 39 -5 -7z"/>
<path d="M930 381 c19 -11 40 -32 47 -47 7 -16 12 -23 13 -16 1 32 -54 83 -87
82 -4 -1 8 -9 27 -19z"/>
<path d="M397 336 c-4 -10 -1 -13 9 -9 15 6 19 23 5 23 -5 0 -11 -7 -14 -14z"/>
<path d="M858 319 c-21 -11 -38 -22 -38 -24 0 -3 18 4 40 15 22 11 40 23 40
25 0 7 0 7 -42 -16z"/>
<path d="M319 313 c-13 -16 -12 -17 4 -4 16 13 21 21 13 21 -2 0 -10 -8 -17
-17z"/>
<path d="M427 309 c7 -9 10 -19 6 -22 -3 -4 1 -7 10 -7 22 0 37 -30 39 -77 1
-36 1 -37 5 -6 l4 32 46 -57 c48 -59 62 -72 77 -72 5 0 -3 9 -18 21 -15 11
-53 55 -85 98 -32 42 -67 83 -77 91 -17 14 -18 13 -7 -1z"/>
<path d="M388 298 c5 -5 16 -8 23 -6 8 3 3 7 -10 11 -17 4 -21 3 -13 -5z"/>
<path d="M338 293 c6 -2 18 -2 25 0 6 3 1 5 -13 5 -14 0 -19 -2 -12 -5z"/>
<path d="M982 230 c0 -14 2 -19 5 -12 2 6 2 18 0 25 -3 6 -5 1 -5 -13z"/>
<path d="M730 206 c0 -2 8 -10 18 -17 15 -13 16 -12 3 4 -13 16 -21 21 -21 13z"/>
<path d="M802 164 c-2 -49 -17 -64 -69 -71 l-38 -5 2 48 c1 48 1 48 -5 9 -6
-34 -11 -41 -37 -46 -29 -6 -29 -7 -3 -8 25 -1 26 -3 22 -44 -4 -43 0 -42 10
4 5 22 11 26 46 27 38 2 40 0 40 -27 0 -17 4 -32 8 -35 5 -3 8 16 8 41 -1 42
2 48 24 54 14 4 20 7 13 8 -6 1 -14 20 -16 44 l-4 42 -1 -41z"/>
<path d="M971 184 c0 -11 3 -14 6 -6 3 7 2 16 -1 19 -3 4 -6 -2 -5 -13z"/>
<path d="M492 130 c0 -19 2 -27 5 -17 2 9 2 25 0 35 -3 9 -5 1 -5 -18z"/>
<path d="M961 144 c0 -11 3 -14 6 -6 3 7 2 16 -1 19 -3 4 -6 -2 -5 -13z"/>
<path d="M761 124 c0 -11 3 -14 6 -6 3 7 2 16 -1 19 -3 4 -6 -2 -5 -13z"/>
<path d="M848 123 c7 -3 16 -2 19 1 4 3 -2 6 -13 5 -11 0 -14 -3 -6 -6z"/>
<path d="M946 94 c-4 -14 -5 -28 -3 -31 3 -2 8 8 11 23 4 14 5 28 3 31 -3 2
-8 -8 -11 -23z"/>
<path d="M502 55 c0 -16 2 -22 5 -12 2 9 2 23 0 30 -3 6 -5 -1 -5 -18z"/>
<path d="M927 31 c-4 -17 -3 -21 5 -13 5 5 8 16 6 23 -3 8 -7 3 -11 -10z"/>
</g>
</svg>
