<?xml version="1.0" standalone="no"?>
<!DOCTYPE svg PUBLIC "-//W3C//DTD SVG 20010904//EN"
 "http://www.w3.org/TR/2001/REC-SVG-20010904/DTD/svg10.dtd">
<svg version="1.0" xmlns="http://www.w3.org/2000/svg"
 width="253.000000pt" height="199.000000pt" viewBox="0 0 253.000000 199.000000"
 preserveAspectRatio="xMidYMid meet">
<metadata>
Created by potrace 1.10, written by Peter Selinger 2001-2011
</metadata>
<g transform="translate(0.000000,199.000000) scale(0.100000,-0.100000)"
fill="#000000" stroke="none">
<path d="M626 1937 c-51 -176 -57 -374 -17 -531 12 -43 50 -151 86 -241 97
-242 110 -303 109 -515 0 -172 -12 -269 -48 -410 -8 -30 -13 -57 -11 -58 5 -5
67 15 128 41 37 15 46 24 41 36 -69 160 -71 367 -7 560 57 171 154 327 293
474 l81 86 -26 76 c-50 149 -124 272 -222 367 -102 100 -203 148 -335 162
l-57 6 -15 -53z m145 4 c172 -58 296 -168 388 -346 41 -79 81 -196 73 -211 -4
-7 -37 -45 -74 -86 -146 -161 -213 -273 -293 -492 l-18 -49 -22 109 c-23 110
-54 210 -94 297 -12 27 -40 101 -61 165 -49 150 -65 275 -50 398 10 85 37 220
47 237 6 10 9 10 104 -22z m82 -1618 c15 -54 15 -59 0 -70 -9 -7 -27 -13 -40
-13 -13 0 -21 5 -18 13 2 6 9 38 15 70 6 31 15 57 19 57 4 0 15 -26 24 -57z"/>
<path d="M508 1964 c-59 -18 -149 -70 -206 -119 -165 -142 -294 -446 -291
-684 1 -65 2 -71 10 -40 10 44 16 77 29 154 30 184 122 382 234 504 69 74 209
160 242 147 11 -4 11 -13 -1 -53 -35 -113 -55 -255 -55 -383 0 -167 16 -238
102 -450 50 -123 87 -238 103 -324 26 -135 17 -404 -15 -484 -12 -28 -46 -29
-136 -1 -160 49 -288 173 -384 370 -42 88 -67 169 -101 339 l-29 145 5 -115
c14 -382 251 -724 542 -785 38 -8 82 -15 99 -15 l31 0 17 96 c50 280 28 460
-96 772 -82 208 -99 274 -105 413 -6 131 11 264 54 409 14 47 28 93 30 103 6
21 -13 21 -79 1z"/>
<path d="M1905 1578 c-220 -18 -475 -154 -659 -349 -196 -208 -298 -441 -300
-679 -1 -166 37 -277 126 -373 l43 -47 93 67 c214 154 338 315 462 602 42 97
98 210 124 251 91 141 246 272 454 383 91 49 91 48 7 89 -104 52 -207 68 -350
56z m194 -38 c54 -10 151 -48 151 -59 0 -3 -33 -25 -73 -47 -98 -57 -230 -156
-298 -225 -96 -96 -153 -191 -244 -403 -118 -275 -225 -418 -424 -565 -98 -72
-103 -71 -159 20 -52 85 -72 165 -72 283 0 277 153 563 417 779 209 170 490
257 702 217z"/>
<path d="M2295 1409 c-101 -61 -171 -117 -246 -196 -88 -94 -146 -190 -219
-363 -72 -171 -114 -251 -181 -341 -87 -117 -252 -262 -421 -368 -38 -24 -68
-45 -68 -47 0 -8 99 -53 153 -69 31 -9 76 -15 99 -13 l43 3 -75 23 c-92 28
-140 49 -140 61 0 5 26 26 58 47 88 57 236 180 296 244 111 121 176 230 270
451 73 175 136 276 228 367 67 67 236 192 259 192 37 0 106 -131 139 -265 22
-88 22 -91 5 -170 -53 -249 -144 -425 -302 -589 -172 -177 -341 -275 -563
-328 -47 -11 -92 -24 -100 -29 -26 -15 77 -10 144 7 193 49 347 137 504 288
153 148 241 283 303 466 28 82 33 112 37 224 3 81 0 150 -8 185 -16 74 -61
166 -108 219 l-37 43 -70 -42z"/>
</g>
</svg>
