<?xml version="1.0" standalone="no"?>
<!DOCTYPE svg PUBLIC "-//W3C//DTD SVG 20010904//EN"
 "http://www.w3.org/TR/2001/REC-SVG-20010904/DTD/svg10.dtd">
<svg version="1.0" xmlns="http://www.w3.org/2000/svg"
 width="267.000000pt" height="189.000000pt" viewBox="0 0 267.000000 189.000000"
 preserveAspectRatio="xMidYMid meet">
<metadata>
Created by potrace 1.10, written by Peter Selinger 2001-2011
</metadata>
<g transform="translate(0.000000,189.000000) scale(0.100000,-0.100000)"
fill="#000000" stroke="none">
<path d="M1000 1747 c-106 -24 -170 -83 -170 -157 0 -100 138 -140 455 -134
159 4 173 -5 41 -26 -115 -18 -172 -37 -211 -71 -45 -40 -49 -96 -9 -136 25
-25 28 -26 119 -19 65 4 96 3 101 -5 3 -6 -20 -38 -55 -73 -55 -56 -77 -96
-51 -96 6 0 10 6 10 13 0 6 28 32 61 57 33 25 67 58 75 73 31 59 -29 97 -149
95 -63 -1 -76 5 -59 25 17 20 78 36 219 58 190 29 238 58 219 134 -14 53 -45
59 -351 66 -179 3 -290 9 -307 17 -53 22 -28 77 50 110 60 26 217 46 289 37
70 -9 70 10 1 25 -82 18 -217 21 -278 7z m505 -245 c46 -15 61 -30 49 -49 -15
-26 -55 -43 -115 -50 l-51 -6 27 27 c26 26 26 28 9 47 -9 10 -29 19 -43 20
-14 0 -35 4 -46 9 -24 10 139 12 170 2z"/>
<path d="M1765 1730 c0 -16 3 -30 8 -30 4 0 8 -15 8 -32 l1 -33 7 30 c4 17 3
32 -1 33 -4 2 -8 17 -8 33 0 16 -3 29 -7 29 -5 0 -8 -13 -8 -30z"/>
<path d="M1776 1575 c2 -11 4 -30 4 -42 0 -13 3 -23 8 -23 4 0 7 14 7 30 0 17
-3 30 -7 30 -3 0 -8 6 -11 13 -2 6 -3 3 -1 -8z"/>
<path d="M182 1418 c-1 -16 -8 -28 -14 -29 -7 0 -2 -5 11 -10 13 -5 29 -8 35
-5 6 2 3 5 -6 5 -11 1 -18 12 -21 34 -3 29 -4 29 -5 5z"/>
<path d="M511 1413 c-1 -30 -4 -33 -33 -33 -17 0 -29 -3 -26 -6 9 -8 118 7
118 16 0 4 -11 5 -24 3 -21 -4 -25 -1 -29 23 -4 28 -4 28 -6 -3z"/>
<path d="M1781 1413 c0 -18 -4 -33 -8 -33 -5 0 -8 -13 -8 -30 0 -16 3 -30 8
-30 4 0 7 13 7 29 0 16 4 31 8 33 4 2 5 17 1 33 l-7 30 -1 -32z"/>
<path d="M1911 1414 c-1 -31 0 -32 55 -39 31 -4 58 -4 62 -1 3 3 -9 6 -26 6
-24 0 -32 5 -33 18 0 10 -3 12 -6 5 -9 -25 -41 -14 -46 15 -4 26 -4 26 -6 -4z"/>
<path d="M2291 1413 c-1 -30 -4 -33 -31 -33 -16 0 -30 -4 -30 -9 0 -5 16 -5
38 0 20 5 42 9 47 9 6 0 5 4 -1 8 -7 4 -14 18 -17 32 -4 21 -4 20 -6 -7z"/>
<path d="M891 1408 c-1 -24 -5 -28 -31 -28 -16 0 -30 -4 -30 -9 0 -4 11 -6 24
-4 21 4 25 1 29 -23 4 -28 4 -28 6 4 1 26 5 32 24 33 15 1 17 3 5 6 -9 2 -19
14 -21 26 -4 18 -5 17 -6 -5z"/>
<path d="M378 1387 c-56 -10 -58 -11 -57 -41 2 -30 2 -30 6 -3 5 28 37 39 46
15 3 -8 6 -6 6 5 1 12 9 17 31 17 17 0 30 5 30 10 0 6 -1 9 -2 9 -2 -1 -29 -6
-60 -12z"/>
<path d="M2182 1390 c-41 -10 -43 -12 -32 -30 8 -13 10 -12 10 3 0 12 8 17 30
17 17 0 30 5 30 10 0 6 -1 10 -2 9 -2 -1 -18 -5 -36 -9z"/>
<path d="M668 1383 c28 -4 32 -8 33 -36 2 -30 2 -31 6 -4 3 21 10 27 31 28 21
1 18 3 -13 10 -22 4 -51 7 -65 7 -18 -1 -16 -2 8 -5z"/>
<path d="M2448 1383 c28 -4 32 -8 32 -34 0 -16 4 -29 9 -29 4 0 6 12 3 26 -4
25 -3 26 22 22 14 -3 26 -2 26 2 0 8 -81 21 -109 18 -9 0 -1 -3 17 -5z"/>
<path d="M875 1220 c0 -16 3 -30 8 -30 4 0 7 -14 7 -32 0 -17 3 -29 6 -26 7 8
-6 118 -15 118 -3 0 -6 -13 -6 -30z"/>
<path d="M1765 1220 c0 -16 3 -30 8 -30 4 0 7 -14 7 -32 0 -17 3 -29 6 -26 7
8 -6 118 -15 118 -3 0 -6 -13 -6 -30z"/>
<path d="M1772 1100 c0 -14 3 -43 7 -65 7 -31 9 -34 10 -13 0 14 7 29 14 31 7
3 6 6 -5 6 -11 1 -18 12 -21 34 -3 23 -4 25 -5 7z"/>
<path d="M772 978 c-15 -15 -17 -535 -2 -588 12 -44 48 -94 90 -125 25 -19 33
-32 35 -61 1 -25 10 -44 25 -56 20 -16 46 -18 297 -18 l274 0 26 26 c19 19 24
33 21 55 -4 25 1 33 27 49 39 24 82 84 95 132 9 29 17 37 52 47 61 19 149 110
176 184 36 95 25 203 -26 261 -25 28 -112 66 -152 66 -24 0 -39 6 -48 20 -12
19 -23 20 -445 20 -323 0 -436 -3 -445 -12z m886 -48 c20 -10 53 -22 72 -25
48 -7 96 -38 120 -77 60 -99 -19 -296 -138 -345 -51 -21 -72 -41 -93 -91 -10
-23 -41 -65 -69 -93 -29 -28 -50 -59 -50 -71 0 -12 -7 -30 -17 -40 -15 -17
-37 -18 -269 -18 -275 0 -284 2 -284 57 0 17 -16 40 -50 73 -79 76 -80 81 -80
378 0 142 3 262 7 265 3 4 188 7 410 7 383 0 406 -1 441 -20z"/>
<path d="M1672 863 c-28 -11 -40 -59 -41 -166 -2 -129 12 -166 63 -167 34 0
104 84 121 145 26 89 2 150 -72 181 -34 14 -49 16 -71 7z m96 -68 c29 -34 28
-76 -2 -141 -21 -46 -66 -94 -87 -94 -5 0 -9 61 -9 136 l0 137 38 -6 c22 -4
46 -17 60 -32z"/>
<path d="M182 906 c-2 -25 -5 -28 -27 -24 -14 3 -25 2 -25 -2 0 -9 109 -24
118 -16 3 3 -9 6 -26 6 -27 0 -31 4 -35 33 -4 31 -4 31 -5 3z"/>
<path d="M511 903 c0 -17 -4 -33 -8 -36 -5 -2 -2 -2 5 0 8 1 25 3 38 3 13 0
24 4 24 9 0 4 -11 6 -24 4 -21 -4 -25 -1 -29 23 -4 29 -4 29 -6 -3z"/>
<path d="M1959 902 c-5 -28 -2 -33 17 -38 12 -3 31 -4 41 -1 10 3 5 5 -14 6
-28 1 -32 5 -35 34 l-3 32 -6 -33z"/>
<path d="M2291 903 c-1 -30 -4 -33 -33 -33 -17 0 -29 -3 -26 -6 4 -3 31 -3 62
1 43 6 56 11 55 24 0 10 -2 11 -6 4 -9 -25 -41 -14 -46 15 -4 25 -4 25 -6 -5z"/>
<path d="M2158 877 c-32 -6 -58 -13 -58 -17 0 -4 12 -5 26 -2 25 4 26 3 22
-22 -3 -14 -1 -26 3 -26 5 0 9 14 9 30 0 27 3 30 30 30 17 0 30 5 30 10 0 6
-1 9 -2 9 -2 -1 -29 -6 -60 -12z"/>
<path d="M2468 873 c6 -3 12 -18 12 -34 0 -16 4 -29 9 -29 4 0 6 12 3 26 -4
25 -3 26 22 22 14 -3 26 -1 26 3 0 5 -10 9 -22 9 -13 0 -32 2 -43 4 -11 2 -14
1 -7 -1z"/>
<path d="M131 394 c-1 -31 0 -32 55 -39 31 -4 58 -4 62 -1 3 3 -9 6 -26 6 -29
0 -32 3 -33 33 -2 30 -2 30 -6 5 -3 -19 -10 -28 -23 -28 -13 0 -20 9 -23 28
-4 26 -4 26 -6 -4z"/>
<path d="M511 393 c-1 -27 -5 -33 -23 -33 -12 0 -19 -2 -16 -5 7 -7 98 6 98
15 0 4 -11 5 -24 3 -21 -4 -25 -1 -29 23 -4 28 -4 28 -6 -3z"/>
<path d="M1962 396 c-2 -25 -5 -28 -27 -24 -14 3 -25 2 -25 -1 0 -4 27 -12 60
-17 33 -6 60 -6 60 -2 0 4 -13 8 -29 8 -26 0 -30 4 -34 33 -4 31 -4 31 -5 3z"/>
<path d="M2291 393 c-1 -30 -4 -33 -33 -33 -17 0 -29 -3 -26 -6 9 -8 118 7
118 16 0 4 -11 5 -24 3 -21 -4 -25 -1 -29 23 -4 28 -4 28 -6 -3z"/>
<path d="M1780 368 c0 -5 -15 -9 -32 -9 -32 -2 -32 -2 -4 -6 24 -4 27 -8 23
-29 -2 -13 0 -24 4 -24 5 0 9 14 9 30 0 27 3 30 30 30 17 0 30 3 30 8 0 4 -13
7 -30 7 -16 0 -30 -3 -30 -7z"/>
<path d="M670 364 c25 -4 30 -10 30 -35 0 -16 4 -29 9 -29 5 0 6 15 2 33 -6
27 -11 32 -39 35 l-32 2 30 -6z"/>
<path d="M2448 363 c28 -4 32 -8 32 -34 0 -16 4 -29 9 -29 4 0 6 11 3 25 -3
20 0 25 16 25 11 0 23 -6 25 -12 4 -9 6 -7 6 3 1 12 -11 18 -45 23 -26 3 -54
5 -63 4 -9 0 -1 -3 17 -5z"/>
<path d="M321 328 c2 -31 2 -31 6 -5 5 31 39 38 46 10 4 -14 5 -12 6 5 1 18
-4 22 -29 22 -27 0 -30 -3 -29 -32z"/>
<path d="M2611 203 c-1 -31 1 -33 32 -32 29 2 29 2 5 6 -20 3 -28 11 -31 31
-4 24 -4 24 -6 -5z"/>
</g>
</svg>
