<?xml version="1.0" standalone="no"?>
<!DOCTYPE svg PUBLIC "-//W3C//DTD SVG 20010904//EN"
 "http://www.w3.org/TR/2001/REC-SVG-20010904/DTD/svg10.dtd">
<svg version="1.0" xmlns="http://www.w3.org/2000/svg"
 width="225.000000pt" height="225.000000pt" viewBox="0 0 225.000000 225.000000"
 preserveAspectRatio="xMidYMid meet">
<metadata>
Created by potrace 1.10, written by Peter Selinger 2001-2011
</metadata>
<g transform="translate(0.000000,225.000000) scale(0.100000,-0.100000)"
fill="#000000" stroke="none">
<path d="M694 2064 c-17 -16 -24 -32 -21 -45 5 -18 -2 -19 -252 -19 -216 0
-260 -2 -279 -16 l-22 -15 0 -493 c0 -556 2 -576 77 -718 36 -69 125 -172 188
-216 l30 -21 -185 -1 c-102 0 -190 -4 -196 -8 -37 -24 -39 -93 -4 -112 10 -6
53 -10 95 -10 l77 0 56 -51 c67 -59 207 -131 307 -156 61 -16 120 -18 460 -18
378 0 393 1 470 23 107 31 206 82 288 148 l67 54 78 0 c90 0 112 14 112 68 0
56 -21 62 -229 62 l-184 0 39 29 c61 45 129 120 169 186 41 68 85 199 85 251
0 31 4 37 38 50 156 61 265 187 281 325 9 74 -7 65 -40 -24 -28 -77 -80 -158
-122 -189 -18 -14 -64 -42 -104 -62 -77 -41 -82 -48 -103 -151 -26 -127 -75
-212 -187 -321 -40 -40 -73 -77 -73 -83 0 -6 9 -20 20 -31 18 -18 33 -20 184
-20 123 0 166 -3 175 -13 19 -24 -9 -37 -80 -37 -66 0 -67 0 -151 -63 -97 -72
-169 -109 -271 -137 -66 -18 -103 -20 -462 -20 -439 0 -463 3 -600 70 -44 21
-111 64 -149 95 -68 55 -69 55 -137 55 -75 0 -99 6 -99 25 0 22 26 25 189 25
165 0 201 9 201 48 0 10 -32 49 -71 87 -104 101 -161 199 -189 325 -15 68 -13
993 2 1008 9 9 79 12 254 12 l242 0 36 42 36 42 36 -42 36 -42 681 0 c664 0
683 -1 715 -20 18 -11 35 -20 38 -20 9 0 -8 44 -24 63 -14 16 -61 17 -716 17
l-701 0 -2 27 c-1 30 -35 63 -65 63 -10 0 -30 -12 -44 -26z"/>
<path d="M1915 1885 l-25 -24 0 -338 c0 -290 2 -342 16 -361 21 -30 57 -28
109 8 52 36 86 78 117 146 22 47 23 60 23 297 l0 249 -28 24 c-25 21 -38 24
-108 24 -72 0 -82 -3 -104 -25z m203 -267 c-4 -286 -7 -300 -81 -376 -37 -38
-85 -72 -102 -72 -3 0 -5 158 -5 350 l0 350 96 0 96 0 -4 -252z"/>
<path d="M240 1880 c-19 -19 -20 -33 -20 -453 0 -470 2 -490 58 -605 39 -82
168 -208 254 -250 129 -63 161 -67 488 -67 253 0 304 3 360 18 211 58 353 189
422 389 21 61 22 80 26 500 l3 438 -25 25 -25 25 -479 0 c-444 0 -481 -1 -502
-18 -20 -16 -21 -26 -21 -137 1 -147 -6 -180 -40 -180 l-24 0 -5 148 c-7 199
10 187 -251 187 -186 0 -200 -1 -219 -20z m432 -160 c-3 -148 -3 -150 22 -175
30 -30 55 -32 87 -6 23 19 24 23 24 175 l0 156 498 0 499 0 -4 -442 c-4 -388
-7 -450 -22 -498 -71 -219 -236 -353 -485 -391 -113 -17 -549 -7 -626 15 -210
60 -368 222 -405 415 -6 31 -10 233 -10 477 l0 424 213 0 212 0 -3 -150z"/>
<path d="M696 1435 c-26 -27 -29 -56 -8 -84 27 -36 77 -36 104 0 32 43 3 99
-52 99 -16 0 -35 -7 -44 -15z m74 -34 c0 -25 -14 -41 -36 -41 -19 0 -24 5 -24
25 0 21 5 25 30 25 17 0 30 -4 30 -9z"/>
<path d="M594 1242 c-7 -4 -35 -45 -63 -92 l-51 -85 0 -156 c0 -138 2 -158 18
-172 16 -15 48 -17 244 -17 205 0 226 2 241 18 14 16 17 43 17 173 l0 154 -51
85 c-28 47 -56 88 -63 92 -6 4 -72 8 -146 8 -74 0 -140 -4 -146 -8z m327 -107
l49 -80 -1 -147 -1 -146 -34 -6 c-55 -11 -398 -5 -411 6 -9 7 -13 51 -13 151
l0 141 42 70 c23 39 46 77 51 84 7 9 43 12 140 10 l130 -3 48 -80z"/>
<path d="M662 1143 c-7 -2 -26 -24 -42 -48 -29 -42 -30 -48 -30 -148 l0 -105
31 -11 c40 -14 182 -14 231 -1 34 10 37 14 44 56 15 103 -16 212 -71 248 -23
15 -132 22 -163 9z m181 -72 c24 -43 27 -60 27 -135 l0 -86 -130 0 -130 0 0
86 c0 75 3 92 28 135 l27 49 75 0 75 0 28 -49z"/>
<path d="M469 422 c-21 -2 -45 -12 -55 -24 -19 -20 -18 -21 16 -49 39 -33 119
-66 194 -80 83 -15 733 -11 813 5 119 25 212 78 199 113 -3 8 -6 16 -6 18 0
13 -122 16 -595 18 -291 1 -546 1 -566 -1z m1151 -38 c0 -9 -103 -53 -165 -69
-85 -22 -779 -22 -865 0 -59 15 -170 61 -170 70 0 3 270 5 600 5 330 0 600 -2
600 -6z"/>
</g>
</svg>
