<?xml version="1.0" standalone="no"?>
<!DOCTYPE svg PUBLIC "-//W3C//DTD SVG 20010904//EN"
 "http://www.w3.org/TR/2001/REC-SVG-20010904/DTD/svg10.dtd">
<svg version="1.0" xmlns="http://www.w3.org/2000/svg"
 width="225.000000pt" height="225.000000pt" viewBox="0 0 225.000000 225.000000"
 preserveAspectRatio="xMidYMid meet">
<metadata>
Created by potrace 1.10, written by Peter Selinger 2001-2011
</metadata>
<g transform="translate(0.000000,225.000000) scale(0.100000,-0.100000)"
fill="#000000" stroke="none">
<path d="M388 2239 c-15 -8 -18 -25 -18 -107 0 -91 -3 -104 -41 -197 -54 -133
-102 -302 -130 -460 -34 -188 -34 -512 0 -700 28 -160 78 -336 131 -463 37
-89 40 -101 40 -193 0 -87 2 -99 19 -109 28 -15 34 -13 28 10 -6 22 8 37 18
20 9 -14 1371 -14 1380 0 10 17 24 2 18 -20 -6 -23 0 -25 28 -10 17 10 19 22
19 108 0 91 3 104 41 197 54 133 102 302 130 460 34 188 34 512 0 700 -28 158
-76 327 -130 460 -38 93 -41 106 -41 197 0 86 -2 98 -19 108 -31 16 -39 12
-33 -16 4 -24 3 -25 -16 -15 -29 16 -1345 16 -1374 0 -19 -10 -20 -9 -16 15 6
28 -5 32 -34 15z m1422 -119 l0 -60 -640 0 c-636 0 -639 0 -650 -21 -27 -50
-38 -49 659 -49 l646 0 42 -109 c55 -141 88 -257 116 -401 19 -99 22 -149 22
-355 0 -206 -3 -256 -22 -355 -40 -210 -129 -474 -163 -485 -16 -5 -17 -16
-12 -110 l5 -105 -687 0 -686 0 0 60 0 60 640 0 c636 0 639 0 650 21 27 50 38
49 -659 49 l-646 0 -42 109 c-97 250 -133 427 -140 692 -6 198 3 313 38 483
35 173 115 399 149 423 15 10 16 25 12 113 l-5 100 687 0 686 0 0 -60z"/>
<path d="M450 1885 c-10 -12 -10 -24 0 -60 14 -49 42 -67 67 -42 13 13 13 21
3 53 -11 36 -34 64 -51 64 -3 0 -12 -7 -19 -15z"/>
<path d="M1758 1888 c-9 -7 -21 -30 -28 -52 -10 -32 -10 -40 3 -53 25 -25 53
-7 67 42 10 36 10 48 0 60 -15 18 -22 19 -42 3z"/>
<path d="M511 1686 c-18 -22 5 -103 32 -112 26 -8 50 21 41 50 -20 68 -48 92
-73 62z"/>
<path d="M1693 1688 c-45 -58 -27 -143 23 -110 20 12 37 91 23 108 -14 17 -33
18 -46 2z"/>
<path d="M557 1486 c-9 -10 -12 -27 -8 -56 6 -46 28 -67 56 -56 14 5 17 15 13
57 -6 63 -31 85 -61 55z"/>
<path d="M1650 1490 c-9 -6 -14 -27 -15 -62 0 -46 3 -53 21 -56 26 -4 40 13
47 60 4 27 1 42 -9 53 -18 17 -24 18 -44 5z"/>
<path d="M970 1451 c-216 -45 -234 -318 -34 -519 161 -161 388 -182 481 -44
90 135 3 375 -180 493 -90 58 -193 85 -267 70z m115 -76 c181 -48 335 -258
295 -404 l-12 -44 -128 128 c-128 128 -151 141 -167 99 -4 -11 31 -53 122
-144 103 -103 124 -129 109 -133 -55 -16 -84 -16 -139 -2 -183 48 -335 257
-295 405 l12 43 58 -58 c59 -58 83 -65 97 -29 4 10 -13 34 -52 74 l-58 59 29
6 c16 4 34 8 39 10 19 6 31 5 90 -10z"/>
<path d="M577 1283 c-14 -13 -7 -100 9 -114 35 -29 66 32 50 97 -5 17 -14 24
-30 24 -12 0 -26 -3 -29 -7z"/>
<path d="M1616 1275 c-12 -32 -6 -92 10 -106 29 -24 49 1 49 62 0 51 -2 54
-26 57 -17 2 -29 -3 -33 -13z"/>
<path d="M581 1076 c-7 -8 -11 -36 -9 -63 3 -42 6 -48 27 -51 30 -5 41 12 41
64 0 56 -32 83 -59 50z"/>
<path d="M1622 1078 c-14 -14 -16 -86 -3 -106 4 -8 19 -12 32 -10 21 3 24 9
27 51 4 65 -24 97 -56 65z"/>
<path d="M562 868 c-17 -21 -18 -98 -1 -109 34 -21 53 0 54 63 0 46 -3 53 -21
56 -11 2 -26 -3 -32 -10z"/>
<path d="M1633 865 c-9 -24 4 -97 19 -106 16 -11 20 -11 37 0 17 11 16 87 -1
108 -14 18 -47 16 -55 -2z"/>
<path d="M534 672 c-7 -4 -17 -27 -24 -51 -10 -37 -9 -46 4 -60 22 -22 46 -5
63 43 18 55 -5 93 -43 68z"/>
<path d="M1671 661 c-8 -13 -7 -30 2 -57 17 -48 41 -65 63 -43 13 14 14 23 4
60 -16 60 -49 79 -69 40z"/>
<path d="M474 472 c-7 -4 -18 -27 -25 -51 -12 -39 -11 -45 5 -57 27 -19 50 -3
65 46 16 55 -7 87 -45 62z"/>
<path d="M1731 466 c-10 -11 -9 -24 0 -56 15 -49 38 -65 65 -46 16 12 17 18 5
57 -17 58 -45 76 -70 45z"/>
</g>
</svg>
