<?xml version="1.0" standalone="no"?>
<!DOCTYPE svg PUBLIC "-//W3C//DTD SVG 20010904//EN"
 "http://www.w3.org/TR/2001/REC-SVG-20010904/DTD/svg10.dtd">
<svg version="1.0" xmlns="http://www.w3.org/2000/svg"
 width="225.000000pt" height="225.000000pt" viewBox="0 0 225.000000 225.000000"
 preserveAspectRatio="xMidYMid meet">
<metadata>
Created by potrace 1.16, written by Peter Selinger 2001-2019
</metadata>
<g transform="translate(0.000000,225.000000) scale(0.100000,-0.100000)"
fill="#000000" stroke="none">
<path d="M492 2235 c-48 -21 -62 -64 -62 -185 l0 -100 695 0 695 0 0 101 c0
120 -16 164 -66 185 -50 21 -1214 20 -1262 -1z"/>
<path d="M389 1823 c-37 -86 -87 -246 -111 -353 -20 -92 -23 -133 -22 -325 0
-201 2 -231 27 -345 25 -120 61 -240 107 -362 l21 -58 714 0 714 0 29 78 c49
127 89 271 112 408 19 112 22 153 17 314 -4 134 -11 212 -27 283 -20 96 -81
293 -114 370 l-16 37 -715 0 -716 0 -20 -47z m134 -150 c103 -312 121 -566 62
-860 -25 -121 -94 -346 -113 -365 -5 -5 -25 41 -50 116 -113 339 -131 648 -57
956 28 112 95 301 106 295 3 -3 27 -67 52 -142z m1297 50 c119 -329 142 -668
65 -976 -27 -108 -98 -308 -106 -300 -4 4 -24 57 -44 117 -114 341 -133 657
-56 956 33 130 89 290 101 290 4 0 22 -39 40 -87z m-399 -303 c17 -9 19 -22
19 -99 0 -148 -51 -272 -155 -376 -107 -107 -233 -158 -381 -153 l-89 3 -3 97
c-2 77 2 109 18 159 53 157 169 279 320 339 86 34 233 50 271 30z"/>
<path d="M1231 1334 c-125 -33 -240 -124 -295 -232 -14 -28 -26 -54 -26 -57 0
-3 24 8 53 24 28 16 88 41 132 56 107 35 168 77 216 149 21 32 39 62 39 67 0
13 -57 10 -119 -7z"/>
<path d="M1315 1159 c-35 -39 -105 -77 -201 -109 -113 -38 -164 -73 -194 -135
-12 -25 -20 -48 -18 -50 11 -12 149 19 205 46 77 37 167 122 206 197 32 58 32
86 2 51z"/>
<path d="M430 199 c0 -118 14 -159 65 -183 29 -14 107 -16 630 -16 523 0 601
2 630 16 51 24 65 65 65 183 l0 101 -695 0 -695 0 0 -101z"/>
</g>
</svg>
