<?xml version="1.0" standalone="no"?>
<!DOCTYPE svg PUBLIC "-//W3C//DTD SVG 20010904//EN"
 "http://www.w3.org/TR/2001/REC-SVG-20010904/DTD/svg10.dtd">
<svg version="1.0" xmlns="http://www.w3.org/2000/svg"
 width="225.000000pt" height="225.000000pt" viewBox="0 0 225.000000 225.000000"
 preserveAspectRatio="xMidYMid meet">
<metadata>
Created by potrace 1.16, written by Peter Selinger 2001-2019
</metadata>
<g transform="translate(0.000000,225.000000) scale(0.100000,-0.100000)"
fill="#000000" stroke="none">
<path d="M516 2234 c-13 -12 -16 -40 -16 -134 l0 -118 -80 -140 -80 -139 0
-836 c0 -746 2 -837 16 -851 14 -14 97 -16 769 -16 672 0 755 2 769 16 14 13
16 56 16 315 0 258 -2 300 -15 305 -8 4 -22 1 -30 -6 -12 -10 -15 -60 -17
-289 l-3 -276 -88 -3 -87 -3 2 823 3 823 39 89 39 90 49 -104 48 -103 0 -422
c0 -444 1 -455 44 -439 14 6 16 49 16 444 l0 438 -65 142 -65 142 0 119 c0 94
-3 121 -16 133 -14 14 -70 16 -467 16 -249 0 -458 -4 -465 -9 -8 -5 -12 -17
-10 -27 3 -16 15 -20 73 -24 l70 -5 3 -92 3 -93 -206 0 -206 0 3 93 3 92 35 3
c40 4 53 18 39 44 -13 24 -100 25 -123 2z m702 -150 l3 -101 -66 -165 -65
-166 0 -186 0 -187 -92 3 -93 3 -3 183 -2 183 65 148 65 149 0 115 c0 62 3
117 7 121 4 4 46 5 93 4 l85 -3 3 -101z m502 11 l0 -95 -220 0 -220 0 0 88 c0
49 3 92 7 95 3 4 102 7 220 7 l213 0 0 -95z m-779 -187 c-5 -13 -30 -70 -55
-127 l-46 -104 0 -204 c0 -203 0 -204 25 -228 23 -24 31 -25 135 -25 104 0
112 1 135 25 25 24 25 25 25 217 l0 194 54 134 54 135 216 3 c119 1 216 0 216
-2 0 -2 -20 -52 -44 -110 l-45 -106 -7 -825 -7 -825 -596 2 -596 3 -3 806 -2
807 72 126 72 126 203 0 203 0 -9 -22z"/>
<path d="M986 964 c-98 -36 -198 -146 -247 -272 -25 -65 -31 -215 -10 -267 61
-151 202 -202 353 -127 225 111 320 456 170 616 -58 62 -174 84 -266 50z m134
-50 c0 -4 -16 -25 -36 -47 -59 -65 -84 -132 -93 -251 -10 -120 -33 -175 -91
-214 -48 -32 -71 -26 -98 28 -20 39 -23 56 -20 131 3 73 9 97 36 152 41 82
106 151 175 182 47 23 127 34 127 19z m98 -61 c33 -47 45 -101 40 -179 -11
-173 -158 -344 -294 -344 l-43 0 48 48 c58 58 77 110 89 242 6 64 16 109 31
138 23 44 87 122 101 122 5 0 17 -12 28 -27z"/>
</g>
</svg>
