<?xml version="1.0" standalone="no"?>
<!DOCTYPE svg PUBLIC "-//W3C//DTD SVG 20010904//EN"
 "http://www.w3.org/TR/2001/REC-SVG-20010904/DTD/svg10.dtd">
<svg version="1.0" xmlns="http://www.w3.org/2000/svg"
 width="227.000000pt" height="222.000000pt" viewBox="0 0 227.000000 222.000000"
 preserveAspectRatio="xMidYMid meet">
<metadata>
Created by potrace 1.10, written by Peter Selinger 2001-2011
</metadata>
<g transform="translate(0.000000,222.000000) scale(0.100000,-0.100000)"
fill="#000000" stroke="none">
<path d="M1535 2174 c-88 -20 -197 -70 -253 -117 -24 -21 -48 -37 -52 -37 -5
0 -21 11 -37 24 -121 101 -316 147 -489 115 -78 -14 -188 -73 -242 -129 -174
-180 -176 -511 -4 -741 36 -50 108 -132 176 -204 l29 -30 -7 94 c-3 52 -6 170
-6 263 0 116 -3 168 -11 168 -8 0 -10 -61 -8 -212 l4 -211 -22 -2 c-12 -1 -20
2 -17 7 3 4 1 8 -3 8 -14 0 -45 59 -37 72 4 6 3 8 -3 5 -5 -3 -27 12 -48 33
-22 22 -35 40 -30 40 5 0 -1 7 -13 16 -16 11 -21 22 -16 36 4 14 2 18 -5 14
-6 -4 -11 -1 -11 8 0 8 6 17 13 20 6 3 3 4 -7 3 -25 -3 -48 39 -41 73 3 15 2
20 -3 13 -13 -20 -35 72 -28 117 4 25 2 40 -4 40 -5 0 -10 14 -10 30 0 17 4
30 8 30 4 0 9 17 11 38 4 66 5 71 13 66 4 -3 7 3 6 13 -2 23 21 83 33 83 5 0
9 7 9 14 0 18 43 66 59 66 7 0 11 8 9 18 -2 12 3 16 16 14 14 -3 17 1 13 13
-5 11 1 17 23 22 17 3 30 10 30 15 0 6 7 8 15 4 8 -3 15 -2 15 3 0 22 127 54
215 53 81 0 123 -8 149 -31 13 -11 20 -12 23 -5 2 7 13 10 24 7 12 -3 18 -11
15 -19 -4 -10 3 -13 27 -11 23 1 31 -2 29 -12 -2 -8 3 -11 13 -8 8 4 15 2 15
-3 0 -6 6 -10 13 -10 15 -1 52 -31 60 -50 4 -12 6 -12 6 -1 1 10 6 10 27 -4
20 -13 28 -14 40 -5 7 7 12 15 9 19 -2 4 9 15 26 25 16 9 27 21 24 26 -3 4 4
6 15 3 21 -6 54 20 42 32 -4 4 3 3 15 -4 28 -14 44 -14 19 1 -17 9 -12 13 40
30 32 10 78 19 102 20 26 1 38 4 30 9 -27 17 187 -4 230 -22 23 -10 50 -15 60
-12 15 6 16 5 2 -12 -14 -17 -13 -18 4 -12 13 5 23 1 33 -13 8 -12 20 -19 25
-18 14 5 70 -51 62 -63 -3 -5 2 -9 11 -9 9 0 14 -4 10 -9 -3 -6 0 -13 7 -18
21 -13 72 -129 63 -143 -3 -5 -1 -11 5 -15 14 -9 13 -48 -2 -64 -11 -10 -10
-11 4 -6 14 6 16 -2 11 -77 -2 -46 -8 -92 -13 -103 -12 -29 -32 -107 -34 -132
0 -11 -4 -19 -7 -17 -4 2 -19 -12 -34 -31 -14 -20 -31 -32 -37 -29 -7 4 -5 10
6 16 9 5 16 14 16 19 0 6 -7 3 -16 -5 -8 -9 -17 -16 -18 -16 -8 0 -124 22
-140 27 -12 3 -16 1 -12 -6 5 -7 -3 -11 -21 -12 -15 0 -39 -2 -52 -5 l-24 -4
5 91 c7 113 4 124 -37 143 -29 14 -100 16 -538 16 -459 0 -552 -4 -501 -24 9
-3 249 -6 533 -6 l518 0 -1 -194 c-1 -158 1 -192 12 -184 7 6 12 21 11 32 0
12 -1 38 0 58 1 35 4 38 43 49 67 18 181 8 217 -19 l30 -22 20 28 c61 86 101
226 101 357 0 157 -43 270 -139 365 -114 112 -297 161 -466 124z"/>
<path d="M684 1198 c8 -169 30 -400 56 -588 14 -102 23 -137 36 -147 25 -18
48 -17 40 3 -3 9 -6 28 -6 44 0 17 -7 30 -17 35 -15 5 -16 4 -5 -6 15 -16 16
-33 1 -23 -8 4 -9 -1 -4 -17 5 -17 4 -21 -3 -14 -20 19 -61 383 -77 679 -5 85
-4 111 7 117 10 7 10 9 1 9 -7 0 -13 7 -13 16 0 11 6 15 20 11 10 -3 24 1 31
9 9 12 4 14 -31 14 l-43 0 7 -142z"/>
<path d="M792 1328 c4 -11 112 -13 130 -2 5 3 8 2 8 -3 0 -4 160 -8 355 -8
277 0 355 3 355 13 0 9 -92 12 -426 12 -325 0 -425 -3 -422 -12z"/>
<path d="M1650 1332 c0 -5 3 -12 7 -16 4 -4 6 -28 5 -54 -4 -67 -32 -438 -37
-475 -3 -18 -7 -66 -9 -107 l-5 -75 14 80 c14 77 38 341 50 553 5 88 4 102
-10 102 -8 0 -15 -4 -15 -8z"/>
<path d="M800 1255 c0 -24 4 -77 10 -117 5 -40 11 -125 14 -188 9 -211 19
-328 27 -295 3 17 10 39 14 50 6 17 5 17 -5 5 -9 -12 -11 -6 -7 28 3 23 2 42
-2 42 -10 0 -35 451 -27 478 6 18 15 22 48 22 57 0 42 10 -21 14 l-51 4 0 -43z"/>
<path d="M935 1249 c6 -62 19 -273 36 -601 l12 -228 162 0 c89 0 196 3 238 6
72 7 76 8 71 28 -8 33 26 66 69 66 53 0 63 24 71 160 5 78 45 615 46 615 0 0
-160 2 -355 4 l-355 3 5 -53z m678 18 c3 -8 3 -38 1 -68 -3 -30 -6 -83 -9
-119 -5 -89 -23 -264 -34 -327 -4 -29 -4 -53 0 -53 5 0 9 5 9 12 0 6 2 9 5 6
3 -3 -1 -18 -10 -34 -17 -33 -20 -74 -5 -74 18 0 11 -20 -17 -46 -17 -16 -33
-22 -46 -18 -13 4 -17 2 -13 -5 5 -7 -1 -11 -14 -11 -13 0 -28 -13 -41 -34
-18 -32 -23 -34 -92 -41 -103 -10 -236 -11 -230 -2 7 12 -70 5 -79 -7 -3 -5
-13 -2 -22 7 -13 12 -17 43 -20 137 -2 67 -7 124 -10 127 -3 4 -6 43 -6 87 0
45 -5 144 -11 221 -14 186 -13 227 8 243 25 18 629 17 636 -1z"/>
<path d="M2021 1250 c12 -43 4 -146 -22 -265 -10 -49 -21 -101 -24 -115 -3
-14 2 -7 10 15 54 139 77 347 42 382 -16 16 -16 15 -6 -17z"/>
<path d="M735 1238 c3 -13 7 -85 8 -160 1 -76 5 -138 10 -138 4 0 7 -26 7 -57
1 -32 6 -92 11 -133 6 -41 13 -100 15 -130 3 -30 7 -56 9 -59 9 -9 4 85 -10
189 -8 58 -20 196 -27 308 -6 111 -16 202 -20 202 -5 0 -6 -10 -3 -22z"/>
<path d="M1768 1208 l-67 -33 -1 -72 c0 -39 -3 -79 -7 -89 -4 -10 -2 -15 4
-11 5 3 10 0 10 -8 0 -8 -4 -12 -9 -9 -4 3 -8 -7 -8 -23 0 -26 10 -18 115 89
120 122 138 155 96 178 -32 17 -63 12 -133 -22z m122 -3 c10 -12 10 -15 -3
-15 -20 0 -28 -24 -14 -41 7 -7 2 -5 -10 5 -21 17 -21 17 -16 -2 3 -14 -2 -24
-16 -31 -12 -7 -21 -18 -21 -26 0 -7 -5 -17 -12 -21 -6 -4 -8 -3 -4 4 3 6 2
14 -4 17 -6 4 -10 3 -9 -2 3 -21 -15 -54 -27 -49 -9 3 -14 -2 -14 -14 0 -11
-3 -20 -7 -20 -5 0 -9 29 -11 65 -2 37 1 65 6 65 6 0 13 11 16 24 4 15 13 23
23 22 10 0 17 4 16 11 -2 8 12 10 45 7 33 -3 42 -1 32 6 -13 8 -13 10 1 10 9
0 22 -7 29 -15z"/>
<path d="M1980 1138 c0 -49 5 -47 14 5 4 23 3 37 -4 37 -5 0 -10 -19 -10 -42z"/>
<path d="M1927 1105 c-12 -84 -45 -244 -59 -281 -12 -33 -82 -83 -148 -105
-48 -16 -51 -19 -55 -77 -6 -72 -8 -76 -30 -83 -15 -4 -22 1 -27 20 -6 25 -6
25 -5 -3 2 -23 7 -30 25 -31 13 -1 28 -8 32 -15 6 -9 9 -6 12 11 3 26 44 46
72 36 15 -6 15 -8 -1 -25 -10 -10 -28 -17 -40 -16 -14 1 -23 -3 -23 -12 0 -19
47 -14 65 6 16 17 80 16 69 -1 -3 -5 -1 -9 5 -9 16 0 24 22 11 30 -9 6 -7 10
9 15 24 7 61 -2 61 -16 0 -5 8 -9 18 -9 9 0 26 -7 36 -15 11 -8 28 -15 39 -15
34 0 7 -18 -38 -24 -57 -9 -155 12 -155 34 0 11 -2 12 -8 2 -5 -7 -16 -10 -25
-6 -9 3 -17 2 -17 -3 0 -10 -43 -33 -61 -33 -6 0 -7 5 -3 12 4 7 3 8 -4 4 -7
-4 -12 -22 -12 -40 0 -50 -19 -96 -40 -96 -19 0 -56 82 -45 100 3 5 1 10 -4
10 -16 0 -13 -40 4 -74 32 -60 -5 -70 -72 -19 -18 13 -33 20 -33 14 0 -5 6
-13 12 -17 9 -6 5 -10 -12 -15 l-25 -7 26 -1 c15 -1 45 -8 68 -16 37 -13 44
-12 70 3 28 16 31 15 50 -2 27 -25 27 -36 -1 -37 -17 -1 -19 -2 -5 -6 9 -2 17
-10 17 -16 0 -7 23 -24 50 -39 48 -27 63 -51 38 -61 -10 -4 -10 -6 0 -6 19 -1
14 -25 -8 -41 -19 -14 -19 -15 -3 -22 14 -5 11 -7 -9 -7 -16 -1 -28 4 -28 9 0
6 -5 10 -11 10 -5 0 -8 -4 -5 -9 12 -19 -20 -18 -40 1 -14 13 -24 16 -29 9 -3
-6 0 -11 8 -11 8 0 17 -7 21 -15 7 -20 -3 -45 -19 -45 -19 0 -38 27 -32 45 4
8 2 17 -2 20 -5 3 -7 15 -3 27 3 14 2 19 -6 14 -15 -9 -16 23 -2 58 15 41 36
31 50 -21 7 -27 13 -50 13 -53 -1 -3 5 -11 13 -18 19 -17 18 1 -2 40 -10 20
-14 45 -11 70 3 21 1 38 -4 38 -5 0 -9 -6 -9 -12 0 -10 -3 -9 -9 1 -5 7 -14
10 -21 6 -8 -5 -10 -2 -6 11 5 16 0 19 -30 22 -20 1 -56 -7 -81 -18 -53 -23
-69 -18 -33 11 l25 20 -27 -12 c-16 -7 -28 -16 -28 -20 0 -13 -33 -19 -46 -8
-19 15 -18 21 8 48 l21 23 12 -22 12 -22 6 21 c3 13 1 19 -6 14 -7 -4 -8 0 -3
13 4 10 4 15 0 12 -9 -9 -33 15 -26 26 3 5 0 6 -7 2 -6 -4 -9 -16 -6 -26 3
-11 0 -20 -10 -24 -8 -3 -15 -12 -15 -21 0 -12 -17 -15 -97 -16 -54 -1 -86 -4
-70 -6 15 -2 25 -8 22 -13 -3 -4 1 -8 8 -7 73 2 137 -5 137 -16 0 -7 9 -18 20
-25 15 -9 19 -19 14 -36 -7 -28 9 -61 36 -76 14 -8 30 -5 65 12 48 23 54 32
30 42 -8 3 -15 2 -15 -3 0 -5 -12 -12 -27 -15 -33 -9 -53 9 -56 51 -1 17 -6
29 -11 26 -5 -3 -6 0 -4 8 3 8 11 13 17 11 7 -1 33 5 59 13 51 18 92 13 92
-11 0 -19 -19 -56 -34 -67 -8 -6 -7 -10 2 -14 7 -3 12 -22 12 -47 0 -57 22
-86 65 -86 23 0 39 7 48 21 9 12 24 20 39 19 38 -3 47 -1 68 20 22 22 19 55
-6 95 -13 19 -11 20 59 21 44 0 90 7 117 18 25 10 68 21 96 26 66 10 90 24 98
54 3 14 16 26 31 30 27 7 48 37 40 59 -9 22 -72 47 -120 47 -38 0 -45 3 -45
20 0 12 -10 25 -25 32 -14 6 -25 15 -25 20 0 11 -99 58 -122 58 -12 0 -18 8
-18 24 0 20 -9 28 -44 41 -25 10 -50 14 -56 10 -7 -4 -34 -13 -61 -20 -42 -11
-49 -11 -49 1 0 9 4 13 9 10 5 -4 8 2 7 11 -4 25 21 46 54 47 15 1 26 4 24 8
-6 9 73 48 82 40 4 -4 4 1 1 10 -4 12 -2 15 9 11 8 -3 14 1 14 8 0 7 7 20 15
30 19 19 57 253 53 314 -3 37 -4 36 -11 -20z m-93 -501 c9 -8 16 -17 16 -18 0
-1 -23 -3 -51 -5 -28 -1 -49 2 -46 6 3 5 -13 8 -36 7 -24 -1 -30 0 -14 3 15 2
27 9 27 14 0 16 87 10 104 -7z m183 -121 c-4 -3 0 -14 8 -23 11 -12 12 -17 3
-18 -7 0 -32 -2 -55 -5 -24 -2 -43 0 -43 4 0 5 -5 9 -11 9 -5 0 -8 -4 -4 -9 5
-9 -33 -27 -40 -19 -2 2 -2 14 2 26 4 18 13 22 47 23 22 0 50 4 61 9 25 11 41
12 32 3z m-172 -26 c8 -12 15 -35 15 -52 1 -16 10 -41 21 -54 19 -23 20 -23
39 -6 20 18 20 17 20 -12 0 -17 7 -36 15 -43 22 -18 19 -25 -18 -38 -51 -18
-127 -27 -127 -14 0 6 -7 9 -15 6 -21 -8 -95 36 -95 57 0 19 57 59 83 59 9 0
19 5 23 11 9 15 -54 -6 -118 -39 -5 -2 -8 9 -8 25 0 30 25 73 56 99 19 16 17
16 -33 0 -15 -5 -23 -3 -23 4 0 6 3 9 8 7 4 -3 15 -2 24 2 10 3 40 7 67 8 42
2 53 -2 66 -20z m256 -33 c17 -8 37 -13 45 -10 9 3 12 1 9 -4 -3 -6 -1 -10 4
-10 6 0 11 5 11 10 0 6 6 5 14 -2 12 -11 11 -15 -6 -24 -11 -6 -26 -25 -33
-41 -10 -23 -21 -32 -44 -35 -18 -3 -34 -1 -37 4 -3 5 -23 8 -45 6 -21 -1 -41
1 -45 4 -14 15 9 24 67 26 35 2 65 5 68 7 4 4 -130 10 -151 6 -12 -2 -9 14 4
27 15 15 58 16 58 2 0 -5 -10 -10 -22 -11 -13 0 -17 -3 -10 -6 7 -3 20 -1 30
3 9 4 20 8 24 8 3 1 9 4 12 9 3 4 3 5 0 3 -3 -3 -12 0 -19 7 -10 9 -9 14 4 24
21 16 26 16 62 -3z m-167 -39 c-34 -29 -38 -30 -53 -11 -13 15 -1 29 40 45 38
14 46 -5 13 -34z m116 -85 c0 -12 -60 -44 -68 -36 -3 3 1 6 8 6 7 0 11 3 7 6
-9 9 16 33 36 34 9 0 17 -4 17 -10z"/>
<path d="M1849 304 c-10 -13 -10 -17 2 -25 10 -8 7 -8 -11 -4 -23 7 -24 6 -9
-10 14 -14 20 -15 38 -3 23 14 29 58 7 58 -7 0 -19 -7 -27 -16z"/>
<path d="M1890 793 c0 -7 7 -16 16 -21 12 -7 7 -16 -30 -50 -25 -23 -51 -42
-57 -42 -7 0 -10 -3 -7 -6 10 -10 72 27 106 64 37 40 40 52 11 45 -12 -4 -25
0 -30 8 -6 9 -9 10 -9 2z"/>
<path d="M467 646 c-53 -19 -79 -45 -74 -73 3 -16 -3 -27 -19 -38 -13 -9 -24
-22 -24 -29 0 -8 -16 -16 -38 -20 -44 -7 -105 -44 -110 -67 -6 -30 32 -62 71
-61 26 1 37 -3 37 -13 0 -23 34 -35 68 -25 18 4 31 5 31 2 -1 -4 0 -9 1 -12
10 -26 5 -43 -16 -57 -30 -19 -107 -35 -97 -20 4 6 0 8 -8 5 -10 -4 -15 1 -15
12 0 10 4 16 8 14 4 -3 8 0 8 5 0 6 7 11 15 11 9 0 13 -7 10 -17 -3 -10 1 -4
9 12 18 37 3 44 -43 21 -55 -29 -53 -91 4 -102 72 -13 165 33 165 82 0 13 -4
24 -10 24 -21 0 -9 18 16 24 14 4 33 20 42 36 10 17 23 28 30 25 8 -3 25 -5
38 -5 13 0 24 -4 24 -10 0 -5 -7 -10 -15 -10 -9 0 -33 -9 -55 -20 -41 -21 -60
-54 -41 -73 16 -16 13 -27 -6 -27 -10 0 -25 -5 -33 -11 -13 -9 -13 -10 2 -6 9
3 19 1 22 -6 3 -9 5 -9 5 1 1 6 6 12 12 12 5 0 7 -5 3 -12 -4 -7 -3 -8 4 -4 7
4 12 14 12 23 0 10 6 13 16 9 9 -3 20 -6 25 -6 6 0 7 -6 3 -12 -6 -10 -4 -10
7 -2 8 7 28 15 45 18 17 4 44 20 60 37 15 16 46 34 69 40 45 12 65 32 65 66 0
28 -32 43 -91 43 -45 0 -55 26 -14 36 25 6 25 7 19 88 -4 44 -8 83 -10 85 -8
9 -24 -13 -24 -35 0 -15 -6 -24 -15 -24 -47 0 -112 -63 -84 -81 8 -4 16 -5 19
-1 3 4 23 15 44 25 31 15 41 16 47 5 9 -14 -29 -50 -43 -42 -4 3 -8 0 -8 -5 0
-6 6 -11 13 -11 6 -1 -1 -12 -18 -26 -16 -15 -24 -23 -17 -19 17 9 62 -2 62
-16 0 -6 -6 -9 -12 -6 -7 2 -22 1 -33 -4 -13 -5 6 -8 53 -8 62 -1 72 -3 72
-19 0 -14 -7 -18 -31 -16 -20 1 -32 -3 -36 -13 -5 -14 -8 -13 -21 3 -13 18
-14 18 -8 -3 5 -15 0 -27 -14 -41 -28 -26 -103 -47 -125 -35 -13 8 -2 16 54
42 70 32 92 49 49 36 -13 -4 -35 -13 -50 -20 -16 -8 -28 -9 -28 -4 0 5 18 17
40 26 37 16 53 33 31 33 -5 0 -13 9 -16 21 -5 15 -13 19 -27 16 -14 -4 -18 -1
-14 8 3 9 0 12 -10 8 -20 -7 -86 6 -79 17 3 4 -1 10 -7 13 -18 5 53 42 75 38
12 -2 17 5 17 22 0 13 11 34 25 47 27 25 32 59 13 78 -16 16 -73 15 -121 -2z
m93 -46 c-5 -10 -19 -21 -29 -25 -13 -4 -18 -12 -14 -21 10 -25 -66 -84 -108
-84 -12 0 -19 -7 -19 -19 0 -11 -6 -21 -12 -23 -7 -3 2 -5 20 -5 20 0 28 3 20
8 -9 6 -7 10 7 15 11 5 20 3 23 -4 2 -7 11 -12 20 -12 10 -1 -10 -12 -43 -25
-33 -14 -68 -29 -78 -35 -33 -20 -42 2 -11 27 32 25 23 30 -16 8 -28 -16 -80
-20 -80 -6 0 4 37 25 82 46 80 36 81 37 57 51 -13 7 -18 13 -11 14 6 0 22 11
34 25 11 13 25 22 29 19 5 -3 6 1 3 9 -5 14 25 33 86 52 42 14 53 10 40 -15z
m-50 -185 c0 -14 -48 -56 -68 -60 -12 -2 -27 -7 -33 -11 -18 -11 -68 -15 -73
-5 -3 4 25 22 62 39 86 40 112 48 112 37z"/>
<path d="M849 533 l-4 -92 29 -5 c16 -3 44 -6 63 -6 30 0 34 2 23 15 -7 8 -27
15 -46 15 -36 0 -55 21 -53 62 0 22 1 22 10 3 8 -17 8 -16 3 5 -3 14 -9 41
-13 60 -6 28 -9 16 -12 -57z"/>
<path d="M980 388 c0 -10 366 -8 400 1 14 4 -71 7 -187 7 -117 -1 -213 -4
-213 -8z"/>
<path d="M110 341 c-36 -11 -69 -33 -75 -50 -7 -19 33 -61 59 -61 37 1 106 38
117 64 22 47 -26 69 -101 47z m80 -31 c0 -13 -48 -37 -87 -43 -45 -7 -33 15
20 35 51 19 67 21 67 8z"/>
<path d="M765 311 c-6 -10 54 -31 88 -31 28 0 20 -17 -14 -29 -57 -20 -119 -6
-119 27 0 6 8 16 18 21 9 6 12 11 7 11 -23 0 -55 -32 -55 -56 0 -56 161 -75
202 -24 10 13 17 29 14 36 -4 10 5 12 34 9 26 -2 40 0 40 8 0 8 -16 12 -42 11
-24 0 -63 5 -88 13 -54 15 -77 16 -85 4z"/>
<path d="M990 290 c0 -12 24 -12 60 0 21 7 19 8 -17 9 -24 1 -43 -3 -43 -9z"/>
<path d="M1050 265 c-58 -21 -54 -86 7 -111 43 -18 123 -11 153 14 29 25 35
65 13 84 -24 21 -128 29 -173 13z m70 -15 c-25 -4 -49 -4 -54 1 -6 5 12 8 45
8 l54 -2 -45 -7z m87 -22 c-1 -13 -12 -25 -29 -32 -16 -6 -28 -14 -28 -18 0
-4 -5 -8 -11 -8 -5 0 -8 4 -5 9 7 11 -11 17 -51 17 -17 -1 -29 1 -27 3 2 2 -1
10 -7 18 -9 10 -3 13 32 14 24 1 61 1 82 0 21 -2 37 2 37 8 0 6 2 11 4 11 3 0
4 -10 3 -22z"/>
<path d="M567 223 c-10 -10 -8 -25 2 -19 5 3 12 -1 15 -10 3 -8 2 -12 -3 -9
-5 3 -12 1 -16 -5 -8 -13 -105 -13 -105 0 0 6 5 10 12 10 6 0 8 3 5 6 -4 4
-14 1 -24 -7 -9 -8 -14 -9 -11 -4 3 6 0 16 -8 23 -12 11 -15 10 -20 -2 -18
-46 27 -78 107 -78 60 0 99 23 99 57 0 29 -37 55 -53 38z"/>
</g>
</svg>
