<?xml version="1.0" standalone="no"?>
<!DOCTYPE svg PUBLIC "-//W3C//DTD SVG 20010904//EN"
 "http://www.w3.org/TR/2001/REC-SVG-20010904/DTD/svg10.dtd">
<svg version="1.0" xmlns="http://www.w3.org/2000/svg"
 width="210.000000pt" height="240.000000pt" viewBox="0 0 210.000000 240.000000"
 preserveAspectRatio="xMidYMid meet">
<metadata>
Created by potrace 1.10, written by Peter Selinger 2001-2011
</metadata>
<g transform="translate(0.000000,240.000000) scale(0.100000,-0.100000)"
fill="#000000" stroke="none">
<path d="M1761 2350 c31 -60 24 -175 -16 -248 -63 -117 -212 -199 -484 -268
-148 -38 -286 -98 -364 -160 -112 -87 -167 -335 -92 -410 29 -28 51 -32 39 -6
-4 9 -9 49 -11 87 -4 55 0 82 17 128 52 137 117 180 358 233 267 60 354 95
490 201 46 36 86 63 88 60 11 -10 -40 -94 -85 -140 -56 -58 -250 -184 -369
-238 -95 -44 -156 -79 -149 -86 5 -5 172 43 282 80 263 90 410 234 423 416 5
72 -2 121 -17 121 -5 0 -11 -17 -15 -37 -7 -39 -31 -81 -42 -71 -3 4 6 43 20
88 31 97 33 148 7 199 -17 32 -78 91 -95 91 -3 0 4 -18 15 -40z m19 -319 c0
-21 -6 -32 -20 -36 -11 -4 -53 -31 -93 -62 -86 -65 -140 -94 -241 -128 -77
-26 -292 -75 -323 -75 -30 1 95 46 222 79 163 43 306 113 387 191 35 33 64 59
66 60 1 0 2 -13 2 -29z m56 -83 c-18 -91 -99 -190 -197 -242 -61 -33 -58 -28
24 34 91 68 157 159 157 215 0 14 5 25 11 25 8 0 9 -11 5 -32z"/>
<path d="M1890 2185 c0 -3 12 -24 28 -47 24 -36 27 -51 27 -117 -1 -65 -5 -85
-32 -136 -60 -117 -174 -216 -328 -286 -37 -17 -66 -32 -63 -34 5 -5 175 30
245 50 188 55 312 192 321 356 3 38 1 80 -2 94 -10 41 -63 92 -113 109 -46 16
-83 21 -83 11z m132 -92 c46 -52 52 -82 28 -156 -28 -85 -86 -175 -136 -209
-43 -30 -114 -62 -114 -52 0 4 27 35 59 70 33 35 74 93 93 131 30 61 33 77 33
156 0 48 2 87 6 87 3 0 17 -12 31 -27z"/>
<path d="M1611 1797 c-18 -22 -123 -71 -284 -131 -224 -83 -290 -128 -339
-231 -28 -61 -36 -118 -18 -145 7 -11 10 -2 10 33 0 41 5 53 40 91 58 63 162
131 345 226 88 46 180 97 205 114 24 17 49 34 54 38 6 4 8 10 5 13 -4 3 -11
-1 -18 -8z"/>
<path d="M709 1386 c-2 -2 -76 -11 -164 -20 -291 -30 -353 -67 -276 -165 33
-42 63 -100 81 -156 7 -22 51 -148 97 -280 79 -223 102 -310 118 -426 4 -29
14 -54 28 -67 58 -55 220 -75 376 -48 133 23 142 29 165 102 15 48 25 63 47
71 15 6 43 35 65 69 26 38 61 74 104 104 96 66 192 166 225 234 56 114 28 247
-59 290 -53 26 -86 14 -104 -39 -22 -64 -42 -108 -48 -103 -2 3 2 34 11 69 21
90 19 114 -7 126 -25 11 -29 6 60 60 18 11 22 22 20 46 -3 27 -11 36 -53 59
-59 32 -149 54 -261 64 -75 6 -83 5 -103 -15 -11 -11 -21 -25 -21 -30 0 -10
47 -18 150 -26 41 -3 89 -8 105 -10 21 -3 25 -2 15 4 -8 5 -59 15 -112 21 -54
7 -98 15 -98 18 0 3 43 2 95 -1 73 -4 108 -11 152 -32 l58 -26 -25 -19 c-78
-60 -209 -74 -570 -61 -343 12 -430 29 -430 86 0 29 8 32 25 9 11 -15 17 -15
76 -1 35 9 117 19 181 23 l118 7 -7 26 c-9 39 -20 51 -34 37z m-301 -174 c22
-7 52 -12 68 -12 22 0 26 -3 14 -10 -20 -13 -48 -12 -111 1 -60 13 -99 46 -99
84 l0 27 44 -39 c25 -22 62 -45 84 -51z m922 -32 c-8 -15 -7 -27 6 -51 14 -27
14 -41 5 -87 -6 -31 -11 -69 -11 -85 0 -17 -6 -38 -14 -46 -18 -21 -146 -343
-153 -385 -3 -18 0 -43 7 -55 10 -20 8 -26 -23 -54 -19 -18 -42 -53 -51 -79
-15 -41 -23 -49 -54 -58 -51 -14 -52 -13 -52 14 0 36 -35 56 -96 56 -50 0 -53
1 -73 40 -22 42 -28 84 -17 111 4 10 3 20 -3 24 -6 3 -11 19 -11 36 0 18 -7
33 -20 41 -11 7 -20 18 -20 24 0 6 -7 17 -15 24 -19 15 -39 85 -36 125 1 17 2
39 1 50 0 11 0 33 0 49 0 16 -5 35 -11 42 -5 6 -12 34 -15 60 -10 79 -4 81
221 87 105 3 207 10 228 17 45 13 81 46 73 66 -3 9 4 16 22 20 15 3 43 11 62
19 53 20 63 19 50 -5z m-890 -15 c128 -28 289 -38 518 -33 123 3 218 2 211 -2
-78 -49 -734 -28 -815 25 -31 20 -32 40 -1 31 12 -4 51 -13 87 -21z m68 -70
c161 -15 229 -51 75 -40 -158 11 -173 14 -173 37 0 14 5 18 15 14 8 -3 46 -8
83 -11z m-21 -61 c37 -8 80 -13 94 -10 15 3 35 -1 45 -9 17 -13 8 -14 -76 -15
-114 0 -140 6 -140 31 0 23 -6 23 77 3z m1057 -46 c21 -29 20 -101 -1 -141
-25 -49 -153 -187 -193 -207 -40 -20 -124 -106 -142 -145 -14 -31 -28 -33 -20
-2 3 12 38 105 79 206 53 131 83 193 106 216 18 18 44 46 58 64 34 39 89 44
113 9z m-904 -32 c21 -9 12 -11 -60 -14 -102 -4 -150 4 -150 23 0 12 16 14 93
8 50 -3 103 -11 117 -17z m-32 -52 c115 -10 85 -25 -45 -22 -106 3 -118 5
-121 22 -4 16 1 18 45 12 26 -3 81 -8 121 -12z m64 -76 c21 -12 19 -13 -37
-16 -81 -4 -167 10 -173 27 -4 12 12 13 91 8 52 -3 106 -11 119 -19z m-14 -54
c7 -2 10 -8 7 -14 -9 -14 -158 -13 -173 2 -7 7 -12 16 -12 20 0 8 149 1 178
-8z m22 -65 c26 -14 -9 -20 -91 -17 -62 3 -74 6 -77 21 -4 18 2 18 75 12 43
-4 85 -11 93 -16z m-33 -59 c53 0 80 -9 61 -21 -18 -12 -168 -11 -168 0 0 5
-3 16 -6 24 -5 13 1 14 33 6 21 -5 57 -9 80 -9z m122 -76 c12 -11 -63 -24
-123 -22 -60 3 -71 6 -74 22 -4 17 2 18 95 11 54 -4 100 -9 102 -11z m11 -64
c0 -14 -30 -20 -111 -20 -69 0 -79 2 -79 18 0 15 10 17 95 14 52 -2 95 -7 95
-12z m-22 -56 c63 -13 -40 -41 -108 -29 -29 5 -40 12 -40 24 0 15 9 17 63 14
34 -2 72 -6 85 -9z m0 -60 c51 -6 55 -21 7 -30 -59 -11 -155 11 -155 36 0 8
42 7 148 -6z m-53 -64 c33 -6 107 -14 165 -18 94 -8 102 -10 77 -20 -35 -15
-209 -16 -277 -1 -30 6 -54 18 -60 29 -15 28 -12 33 13 26 12 -3 49 -11 82
-16z"/>
<path d="M1426 884 c-48 -45 -100 -140 -94 -170 4 -22 94 39 114 77 8 16 19
29 25 29 12 0 39 61 39 90 0 33 -33 24 -84 -26z"/>
<path d="M265 374 c-160 -29 -237 -62 -255 -110 -14 -36 6 -73 55 -101 50 -29
205 -77 310 -97 44 -8 107 -22 140 -30 80 -19 346 -29 525 -18 155 10 325 42
495 94 118 36 168 60 189 90 23 32 20 53 -11 88 -33 37 -109 64 -244 88 -108
18 -149 10 -149 -28 0 -16 7 -20 31 -20 44 0 169 -30 169 -41 0 -12 -40 -11
-137 5 -81 13 -137 11 -128 -4 3 -4 37 -11 77 -15 40 -3 87 -13 103 -21 28
-13 24 -13 -60 -13 -49 1 -98 1 -107 0 -30 -2 -20 -21 11 -21 43 0 91 -11 91
-21 0 -5 -36 -9 -79 -9 -44 0 -83 -4 -86 -10 -4 -6 15 -10 49 -10 31 0 56 -4
56 -10 0 -26 173 10 268 56 68 33 73 38 67 61 -8 34 17 26 29 -10 7 -18 6 -30
-4 -42 -75 -91 -635 -175 -973 -147 -295 24 -568 85 -617 137 -23 24 -23 28
-10 52 20 34 48 46 30 13 -11 -20 -9 -25 11 -41 37 -29 156 -69 246 -83 72
-11 81 -11 75 2 -4 13 2 14 41 9 26 -4 54 -4 64 0 29 11 -14 22 -95 22 -87 1
-88 17 -2 27 36 4 57 11 53 17 -4 6 -43 7 -109 3 -109 -7 -137 3 -61 22 23 6
72 14 109 18 40 4 65 11 61 17 -5 9 -42 7 -212 -9 -42 -4 -62 -3 -58 3 10 16
85 32 199 44 56 5 104 12 107 15 2 2 -4 13 -14 24 -15 17 -30 20 -94 19 -42 0
-112 -7 -156 -15z m-67 -73 c-2 -11 8 -32 22 -47 l25 -27 -30 7 c-41 10 -75
33 -75 52 0 8 10 19 23 24 33 13 39 12 35 -9z m1380 13 c36 -10 27 -41 -18
-64 -55 -28 -69 -25 -37 8 18 19 25 35 21 45 -7 18 -1 20 34 11z"/>
</g>
</svg>
