<?xml version="1.0" standalone="no"?>
<!DOCTYPE svg PUBLIC "-//W3C//DTD SVG 20010904//EN"
 "http://www.w3.org/TR/2001/REC-SVG-20010904/DTD/svg10.dtd">
<svg version="1.0" xmlns="http://www.w3.org/2000/svg"
 width="224.000000pt" height="224.000000pt" viewBox="0 0 224.000000 224.000000"
 preserveAspectRatio="xMidYMid meet">

<g transform="translate(0.000000,224.000000) scale(0.100000,-0.100000)"
fill="#000000" stroke="none">
<path d="M1000 2004 c-74 -9 -187 -37 -235 -59 -70 -31 -94 -61 -110 -139 -8
-36 -25 -85 -40 -109 -33 -58 -38 -142 -8 -166 15 -12 22 -33 26 -76 4 -33 11
-89 16 -125 6 -36 8 -92 5 -125 -7 -75 57 -478 85 -539 11 -23 26 -81 33 -131
l13 -90 65 -43 c76 -50 200 -92 270 -92 70 0 194 42 270 92 l65 43 16 96 c8
52 23 112 32 131 27 57 90 461 83 533 -3 34 0 102 9 159 8 55 15 111 15 126 0
17 8 33 21 42 31 20 28 105 -5 162 -13 23 -32 71 -41 106 -9 36 -22 74 -29 85
-21 32 -105 73 -197 95 -82 19 -285 33 -359 24z m-283 -524 c2 0 2 -3 0 -7 -3
-5 7 -8 21 -9 15 0 70 -9 122 -19 131 -26 387 -26 520 0 52 10 107 19 122 19
14 1 24 4 21 9 -2 4 -2 7 0 7 3 0 21 7 40 15 l36 15 -5 -48 c-3 -26 -10 -61
-15 -78 -5 -18 -9 -36 -8 -40 1 -5 -1 -37 -6 -71 l-8 -63 -51 -19 c-78 -29
-222 -62 -309 -71 -131 -13 -300 13 -459 71 l-57 21 -7 66 c-4 37 -9 69 -9 72
-6 21 -16 82 -19 117 l-4 43 35 -15 c20 -8 37 -15 40 -15z m-43 -296 c3 -8 2
-12 -4 -9 -6 3 -10 10 -10 16 0 14 7 11 14 -7z m900 -34 c-6 -6 -10 -3 -10 10
0 13 4 16 10 10 7 -7 7 -13 0 -20z m-767 -15 c0 -8 -4 -12 -9 -9 -5 3 -6 10
-3 15 9 13 12 11 12 -6z m638 -5 c-3 -5 -13 -6 -21 -3 -12 4 -13 8 -3 14 15 9
32 2 24 -11z m-597 -24 c-7 -8 -17 -12 -22 -9 -4 3 -2 9 5 14 22 13 31 11 17
-5z m88 5 c-4 -5 0 -11 6 -14 7 -2 10 -8 5 -12 -4 -5 -16 1 -27 13 l-21 22 21
0 c12 0 19 -4 16 -9z m394 5 c0 -11 -19 -15 -25 -6 -3 5 1 10 9 10 9 0 16 -2
16 -4z m80 -6 c8 -5 11 -10 5 -10 -5 0 -17 5 -25 10 -8 5 -10 10 -5 10 6 0 17
-5 25 -10z m-428 -31 c5 -3 0 -9 -12 -12 -16 -4 -20 -2 -16 10 3 8 6 20 7 26
0 7 3 5 6 -3 3 -8 10 -18 15 -21z m372 16 c-7 -16 -24 -21 -24 -6 0 8 7 13 27
20 1 1 0 -6 -3 -14z m-634 -24 c0 -24 -26 -46 -35 -31 -4 6 -1 9 7 8 8 -2 13
7 13 24 -1 14 3 24 7 22 4 -3 8 -13 8 -23z m190 19 c0 -5 -5 -10 -11 -10 -5 0
-7 5 -4 10 3 6 8 10 11 10 2 0 4 -4 4 -10z m154 4 c13 -5 14 -10 5 -20 -9 -11
-5 -12 19 -5 16 5 42 6 57 3 18 -3 26 -1 22 6 -4 5 0 13 9 16 29 11 43 6 41
-14 -2 -25 -17 -27 -17 -2 0 14 -2 15 -9 2 -6 -8 -8 -17 -5 -21 9 -16 -15 -18
-42 -4 -15 7 -32 11 -38 7 -7 -4 -4 -8 7 -10 9 -2 17 -10 17 -18 0 -13 -2 -13
-16 1 -22 21 -40 14 -36 -16 4 -24 4 -24 -16 -4 -10 11 -15 23 -10 26 5 3 2 9
-8 13 -10 4 -21 1 -26 -6 -7 -10 -8 -9 -4 2 3 8 9 23 12 33 7 18 14 20 38 11z
m216 -6 c0 -10 3 -9 9 1 5 8 11 9 15 3 3 -5 -1 -13 -10 -16 -25 -10 -34 -7
-34 9 0 8 5 15 10 15 6 0 10 -6 10 -12z m-395 -18 c3 -5 1 -10 -4 -10 -6 0
-11 5 -11 10 0 6 2 10 4 10 3 0 8 -4 11 -10z m-25 -10 c0 -14 34 -12 49 3 10
10 11 8 5 -7 -6 -16 -4 -17 17 -11 20 7 21 6 9 -7 -8 -8 -25 -17 -37 -20 -17
-4 -20 -2 -16 11 4 14 3 14 -6 1 -6 -8 -11 -23 -11 -33 0 -10 -4 -15 -10 -12
-5 3 -7 19 -3 35 6 31 -4 39 -25 18 -16 -16 -15 -1 1 17 14 17 27 19 27 5z
m518 -3 c9 15 11 15 26 1 9 -9 16 -23 16 -30 0 -8 -4 -7 -11 5 -12 21 -29 22
-29 3 0 -25 -18 -28 -40 -6 -28 28 -26 46 5 26 22 -15 25 -15 33 1z m68 -55
c-12 -11 -16 6 -9 39 l8 34 3 -33 c2 -19 1 -36 -2 -40z m106 44 c7 4 8 2 4 -5
-4 -6 -12 -9 -17 -6 -13 9 -11 -19 3 -33 6 -6 9 -15 5 -18 -10 -10 -36 57 -29
74 4 12 7 11 14 -2 5 -9 14 -13 20 -10z m-743 -35 c1 -10 -3 -9 -13 4 -8 11
-11 26 -8 34 4 12 7 11 13 -5 4 -10 8 -25 8 -33z m-97 -6 c-2 -14 -8 -25 -13
-25 -12 0 -11 7 1 31 14 26 18 24 12 -6z m254 8 c0 -11 6 -17 17 -17 9 1 17
-2 17 -7 0 -5 -7 -9 -15 -9 -22 0 -18 -15 9 -45 16 -17 30 -24 38 -19 10 5 11
4 1 -6 -11 -12 -18 -9 -43 15 -16 16 -30 39 -30 52 0 13 -5 23 -11 23 -8 0 -8
5 1 15 16 19 18 19 16 -2z m222 -13 c7 -12 10 -26 6 -32 -4 -7 -3 -8 5 -4 6 4
10 13 9 20 -2 6 2 12 7 12 6 0 9 -6 7 -12 -1 -6 9 -14 23 -16 14 -3 25 -1 25
3 0 5 -7 9 -15 9 -8 0 -15 4 -15 8 0 4 9 8 20 8 27 0 26 -31 -1 -59 l-21 -22
11 23 c11 21 -1 33 -14 13 -3 -6 -13 -9 -23 -9 -9 0 -26 -3 -37 -8 -18 -7 -18
-6 -6 9 16 20 14 20 -27 6 -22 -8 -36 -7 -52 1 -12 6 -25 8 -28 4 -4 -4 -1 -9
6 -11 6 -3 12 -9 12 -14 0 -6 -10 -3 -22 5 -12 9 -30 16 -40 16 -9 0 -20 5
-24 11 -5 8 3 10 25 7 20 -3 30 -1 28 6 -2 6 -11 10 -21 8 -9 -2 -16 1 -16 6
0 21 16 20 48 -5 40 -30 87 -33 107 -6 8 10 9 20 4 21 -11 4 -12 22 -1 22 4 0
13 -9 20 -20z m198 -17 c-10 -10 -19 5 -10 18 6 11 8 11 12 0 2 -7 1 -15 -2
-18z m81 -15 c-3 -7 -5 -2 -5 12 0 14 2 19 5 13 2 -7 2 -19 0 -25z m-47 1 c0
-11 -4 -18 -10 -14 -5 3 -7 12 -3 20 7 21 13 19 13 -6z m-583 -9 c-3 -13 0
-20 9 -20 8 0 14 -5 14 -11 0 -10 -13 -5 -38 14 -9 7 -9 13 -1 23 16 20 22 17
16 -6z m55 2 c-7 -2 -12 -8 -12 -13 0 -6 5 -7 10 -4 6 3 10 -2 10 -12 0 -16
-2 -16 -15 -2 -17 17 -10 53 8 42 8 -5 7 -8 -1 -11z m472 2 c3 -9 -1 -25 -9
-37 -11 -15 -15 -17 -15 -6 0 8 5 20 12 27 9 9 8 12 -6 12 -9 0 -14 5 -11 10
9 15 22 12 29 -6z m-645 -44 c0 -10 -3 -8 -9 5 -12 27 -12 43 0 25 5 -8 9 -22
9 -30z m789 20 c-7 -10 -14 -18 -15 -16 -6 6 9 36 18 36 5 0 4 -9 -3 -20z m32
5 c0 -8 -4 -15 -10 -15 -5 0 -7 7 -4 15 4 8 8 15 10 15 2 0 4 -7 4 -15z m-736
-21 c3 -8 2 -12 -4 -9 -6 3 -10 10 -10 16 0 14 7 11 14 -7z m606 12 c0 -3 -4
-8 -10 -11 -5 -3 -10 -1 -10 4 0 6 5 11 10 11 6 0 10 -2 10 -4z m-89 -73 l-8
-28 -12 29 c-6 16 -10 34 -7 40 2 6 5 3 5 -6 1 -10 5 -18 10 -18 4 0 7 12 4
28 -3 24 -3 25 6 5 6 -12 6 -34 2 -50z m-374 35 c-3 -8 -6 -5 -6 6 -1 11 2 17
5 13 3 -3 4 -12 1 -19z m333 12 c0 -5 -5 -10 -11 -10 -5 0 -7 5 -4 10 3 6 8
10 11 10 2 0 4 -4 4 -10z m-50 -10 c0 -5 -4 -10 -10 -10 -5 0 -10 5 -10 10 0
6 5 10 10 10 6 0 10 -4 10 -10z m297 -22 c-3 -7 -5 -2 -5 12 0 14 2 19 5 13 2
-7 2 -19 0 -25z m-680 16 c-3 -3 -12 -4 -19 -1 -8 3 -5 6 6 6 11 1 17 -2 13
-5z m46 -15 c-6 -6 -17 -8 -24 -3 -9 5 -8 9 7 14 23 9 31 3 17 -11z m-163 -4
c-7 -9 -15 -13 -19 -10 -3 3 1 10 9 15 21 14 24 12 10 -5z m204 -1 c17 -16 22
-44 8 -44 -8 0 -32 43 -32 55 0 9 9 5 24 -11z m436 1 c0 -8 -2 -15 -4 -15 -2
0 -6 7 -10 15 -3 8 -1 15 4 15 6 0 10 -7 10 -15z m-265 -6 c4 -6 4 -13 0 -17
-3 -3 -10 0 -15 8 -5 8 -12 11 -15 8 -4 -4 2 -17 14 -29 23 -25 27 -39 11 -39
-5 0 -10 5 -10 11 0 6 -7 8 -16 5 -10 -4 -22 1 -31 11 -10 13 -16 14 -19 6 -3
-7 -12 -9 -20 -6 -8 3 -14 -1 -14 -9 0 -7 -9 -14 -19 -15 -13 -1 -18 3 -14 13
3 7 9 11 14 8 5 -3 9 6 9 20 0 19 5 26 20 26 11 0 20 -5 20 -12 0 -6 3 -8 7
-5 3 4 13 1 21 -6 13 -9 14 -9 8 1 -4 6 -4 17 -1 22 8 13 42 13 50 -1z m103
-16 c6 -2 12 3 12 10 0 6 5 4 11 -6 12 -20 1 -47 -11 -27 -5 8 -11 7 -23 -4
-8 -9 -22 -13 -30 -10 -15 5 -31 -21 -21 -37 3 -5 -9 -9 -27 -9 -27 0 -30 2
-19 15 7 8 17 12 23 8 5 -3 7 -1 4 4 -4 6 0 16 8 23 19 16 19 34 1 27 -10 -4
-13 -1 -9 9 6 15 23 19 23 5 0 -5 6 -11 14 -14 10 -4 12 1 9 16 -4 19 -3 20 9
7 7 -8 19 -16 26 -17z m202 23 c0 -3 -4 -8 -10 -11 -5 -3 -10 -1 -10 4 0 6 5
11 10 11 6 0 10 -2 10 -4z m-129 -83 c24 -7 25 -25 2 -21 -13 2 -17 -3 -15
-17 2 -15 0 -17 -6 -7 -5 8 -9 39 -9 70 0 41 1 46 4 18 3 -27 10 -40 24 -43z
m-369 -11 c-7 -2 -19 -10 -27 -19 -16 -16 -18 -13 -9 11 3 9 13 16 21 16 11 0
13 8 9 33 l-5 32 11 -34 c9 -27 9 -36 0 -39z m475 46 c-3 -8 -6 -5 -6 6 -1 11
2 17 5 13 3 -3 4 -12 1 -19z m-110 -20 c-3 -7 -5 -2 -5 12 0 14 2 19 5 13 2
-7 2 -19 0 -25z m-53 -14 c23 -9 20 -23 -4 -17 -11 3 -20 9 -20 14 0 11 3 11
24 3z m121 -4 c13 -6 15 -9 5 -9 -8 0 -22 4 -30 9 -18 12 -2 12 25 0z m-385
-10 c0 -5 -4 -10 -9 -10 -6 0 -13 5 -16 10 -3 6 1 10 9 10 9 0 16 -4 16 -10z
m50 2 c0 -5 -7 -9 -15 -9 -8 0 -15 4 -15 9 0 4 7 8 15 8 8 0 15 -4 15 -8z
m-217 -17 c-3 -9 -8 -14 -10 -11 -3 3 -2 9 2 15 9 16 15 13 8 -4z m665 -10
c-3 -3 -9 2 -12 12 -6 14 -5 15 5 6 7 -7 10 -15 7 -18z m-523 -5 c3 -5 -3 -10
-14 -10 -12 0 -21 5 -21 10 0 6 6 10 14 10 8 0 18 -4 21 -10z m55 0 c0 -5 -4
-10 -10 -10 -5 0 -10 5 -10 10 0 6 5 10 10 10 6 0 10 -4 10 -10z m350 0 c0 -5
-6 -10 -14 -10 -8 0 -18 5 -21 10 -3 6 3 10 14 10 12 0 21 -4 21 -10z m-310
-25 c-13 -16 -36 -20 -44 -7 -2 4 5 9 17 9 12 1 23 7 25 13 2 6 7 9 9 6 3 -3
0 -12 -7 -21z m95 15 c3 -5 1 -10 -4 -10 -6 0 -11 5 -11 10 0 6 2 10 4 10 3 0
8 -4 11 -10z m75 -15 c-17 -20 -30 -19 -30 3 0 14 2 15 10 2 8 -12 10 -12 16
3 3 10 9 16 12 13 3 -3 -1 -12 -8 -21z m-265 -23 c1 -12 -3 -21 -9 -19 -6 2
-11 8 -11 13 0 5 -4 15 -9 22 -6 10 -3 13 9 10 11 -2 19 -13 20 -26z m139 19
c3 -5 -3 -11 -15 -14 -16 -4 -18 -3 -8 9 13 16 16 17 23 5z m214 -6 c4 -4 -3
-4 -16 -1 -16 5 -24 3 -28 -9 -5 -13 -9 -14 -15 -4 -4 7 -6 16 -3 20 5 9 52 4
62 -6z m43 -7 c-11 -30 -28 -34 -25 -6 3 30 2 28 19 28 11 0 12 -6 6 -22z
m142 5 c-7 -2 -19 -2 -25 0 -7 3 -2 5 12 5 14 0 19 -2 13 -5z m-293 -23 c0 -5
-4 -10 -9 -10 -6 0 -13 5 -16 10 -3 6 1 10 9 10 9 0 16 -4 16 -10z m-212 -25
c-3 -3 -9 2 -12 12 -6 14 -5 15 5 6 7 -7 10 -15 7 -18z m97 15 c-3 -5 -12 -10
-18 -10 -7 0 -6 4 3 10 19 12 23 12 15 0z m218 -10 c-3 -12 -8 -19 -11 -16 -5
6 5 36 12 36 2 0 2 -9 -1 -20z m-493 -12 c0 -6 -6 -5 -15 2 -8 7 -15 14 -15
16 0 2 7 1 15 -2 8 -4 15 -11 15 -16z m224 13 c3 -5 -1 -14 -8 -20 -12 -10
-14 -9 -11 6 2 10 4 19 4 21 2 5 10 2 15 -7z m116 -1 c0 -5 -2 -10 -4 -10 -3
0 -8 5 -11 10 -3 6 -1 10 4 10 6 0 11 -4 11 -10z m116 -10 c0 -14 -4 -15 -17
-7 -19 12 -17 24 3 24 8 0 14 -8 14 -17z m-341 0 c3 -5 1 -10 -4 -10 -6 0 -11
5 -11 10 0 6 2 10 4 10 3 0 8 -4 11 -10z m185 -10 c-8 -5 -24 -9 -35 -9 -16 1
-16 2 5 9 35 11 48 11 30 0z m100 -6 c0 -2 -7 -4 -15 -4 -8 0 -15 4 -15 10 0
5 7 7 15 4 8 -4 15 -8 15 -10z m276 -21 c-3 -10 -8 -44 -11 -76 -8 -84 -17
-98 -79 -136 -178 -107 -332 -107 -508 -1 -58 35 -64 41 -75 86 -14 62 -16
134 -3 134 6 0 10 -4 10 -8 0 -5 6 -9 13 -10 6 -1 46 -14 87 -29 69 -25 86
-27 220 -27 133 0 151 2 220 27 41 15 79 28 85 29 5 2 16 9 23 16 19 17 24 15
18 -5z m-389 1 c-3 -3 -12 -4 -19 -1 -8 3 -5 6 6 6 11 1 17 -2 13 -5z m210
-10 c-3 -3 -12 -4 -19 -1 -8 3 -5 6 6 6 11 1 17 -2 13 -5z m-320 -20 c-3 -3
-12 -4 -19 -1 -8 3 -5 6 6 6 11 1 17 -2 13 -5z m58 -4 c4 -6 -6 -10 -22 -10
-22 0 -25 2 -13 10 19 12 27 12 35 0z m262 -2 c-16 -10 -49 -10 -65 1 -8 5 4
8 31 7 25 -1 40 -4 34 -8z"/>
<path d="M990 850 c0 -5 5 -10 10 -10 6 0 10 5 10 10 0 6 -4 10 -10 10 -5 0
-10 -4 -10 -10z"/>
<path d="M1668 674 c-33 -17 -38 -62 -10 -87 53 -48 160 -62 206 -26 31 25 32
38 5 73 -41 52 -143 72 -201 40z m96 -3 c11 -4 15 -10 10 -13 -5 -4 -18 0 -29
8 -20 15 -12 17 19 5z m-31 -18 c4 -3 2 -12 -4 -20 -10 -11 -14 -10 -26 4 -8
10 -12 12 -8 6 4 -8 0 -13 -9 -13 -17 0 -29 14 -19 24 8 8 58 8 66 -1z m105
-9 c22 -15 22 -17 5 -29 -16 -12 -51 -9 -39 3 3 2 1 13 -5 23 -13 24 7 26 39
3z m-77 -51 c-12 -20 -14 -14 -5 12 4 9 9 14 11 11 3 -2 0 -13 -6 -23z"/>
<path d="M1820 624 c0 -8 5 -12 10 -9 6 4 8 11 5 16 -9 14 -15 11 -15 -7z"/>
<path d="M1522 574 c-82 -57 89 -215 173 -160 19 12 25 25 25 50 0 84 -131
157 -198 110z m106 -17 c14 4 14 3 2 -5 -16 -12 -30 -7 -29 11 0 9 2 9 5 0 3
-7 13 -9 22 -6z m-58 -13 c0 -14 -3 -14 -15 -4 -8 7 -15 14 -15 16 0 2 7 4 15
4 8 0 15 -7 15 -16z m-32 -19 c-3 -3 -9 2 -12 12 -6 14 -5 15 5 6 7 -7 10 -15
7 -18z m142 -6 c0 -13 -14 -11 -30 4 -12 10 -12 9 -1 -6 9 -11 21 -15 33 -11
15 4 19 2 16 -12 -1 -10 -7 -16 -12 -15 -5 2 -13 -4 -18 -13 -7 -13 -13 -14
-29 -6 -34 19 -16 83 21 73 11 -3 20 -9 20 -14z"/>
<path d="M1630 500 c0 -5 5 -10 11 -10 5 0 7 5 4 10 -3 6 -8 10 -11 10 -2 0
-4 -4 -4 -10z"/>
<path d="M1855 531 c-55 -25 -95 -74 -95 -116 0 -40 20 -55 72 -55 72 0 158
88 144 145 -5 21 -15 27 -66 40 -8 3 -33 -4 -55 -14z m-3 -49 c-23 -15 -30
-52 -11 -52 6 0 9 7 6 15 -4 8 -3 17 2 19 11 7 10 -27 -1 -41 -6 -7 -15 -10
-20 -7 -6 4 -14 1 -18 -6 -9 -15 -40 -6 -40 10 0 6 5 8 11 5 6 -4 10 -1 8 6
-3 29 2 39 22 39 12 0 23 8 26 19 3 13 10 18 21 14 13 -6 12 -9 -6 -21z m75
22 c-3 -3 -12 -4 -19 -1 -8 3 -5 6 6 6 11 1 17 -2 13 -5z"/>
<path d="M1796 451 c-3 -5 1 -11 9 -15 8 -3 15 -1 15 4 0 13 -18 22 -24 11z"/>
<path d="M302 494 c-47 -33 -14 -117 60 -153 24 -11 56 -21 71 -21 34 0 67 32
67 64 0 33 -46 85 -95 107 -49 23 -74 24 -103 3z m96 -25 c2 -5 9 -6 15 -3 8
5 8 2 0 -7 -20 -21 -15 -34 5 -16 23 21 35 11 21 -15 -13 -23 -3 -58 17 -58
17 0 18 12 3 27 -8 8 -7 13 2 18 8 5 10 4 5 -3 -4 -7 -2 -12 3 -12 14 0 14
-27 1 -35 -14 -9 -52 4 -45 16 4 5 0 9 -8 9 -16 0 -27 21 -27 50 0 10 -10 26
-22 35 l-23 17 25 -7 c14 -4 27 -12 28 -16z m-88 -15 c0 -8 -4 -12 -10 -9 -5
3 -10 10 -10 16 0 5 5 9 10 9 6 0 10 -7 10 -16z m61 -1 c12 -16 12 -17 -1 -7
-8 6 -23 10 -32 9 -10 -2 -18 1 -18 6 0 16 37 10 51 -8z m9 -43 c0 -11 -5 -20
-11 -20 -5 0 -7 5 -4 10 3 6 0 10 -7 10 -9 0 -9 3 2 10 20 13 20 13 20 -10z"/>
<path d="M415 430 c-10 -11 -13 -20 -7 -20 6 0 16 9 22 20 6 11 9 20 7 20 -2
0 -12 -9 -22 -20z"/>
<path d="M572 483 c-66 -32 -80 -97 -27 -121 63 -29 158 -5 198 49 37 51 -2
89 -91 89 -26 0 -62 -8 -80 -17z m88 3 c0 -3 -4 -8 -10 -11 -5 -3 -10 -1 -10
4 0 6 5 11 10 11 6 0 10 -2 10 -4z m-37 -13 c6 -11 -28 -64 -36 -57 -3 4 1 13
9 21 21 21 8 30 -13 10 -10 -8 -21 -16 -25 -16 -5 -1 -7 -4 -5 -8 1 -5 6 -7
11 -5 5 2 4 -4 -4 -12 -7 -9 -18 -16 -24 -15 -6 0 -6 3 2 6 9 3 10 9 3 17 -13
15 -3 29 34 49 34 18 42 20 48 10z m113 -25 c2 -16 0 -16 -21 -2 -19 12 -28
13 -45 4 -18 -10 -19 -14 -8 -28 11 -13 11 -15 -4 -9 -10 3 -18 2 -18 -4 0 -6
-5 -7 -11 -3 -8 4 -7 9 2 15 8 5 10 9 4 9 -5 0 1 9 15 20 30 24 82 23 86 -2z
m-36 -8 c0 -5 -7 -10 -16 -10 -8 0 -12 5 -9 10 3 6 10 10 16 10 5 0 9 -4 9
-10z m-96 -55 c-10 -8 -23 -14 -29 -14 -5 0 -1 6 9 14 11 8 24 15 30 15 5 0 1
-7 -10 -15z m56 -7 c0 -4 -4 -8 -9 -8 -6 0 -12 4 -15 8 -3 5 1 9 9 9 8 0 15
-4 15 -9z"/>
<path d="M725 360 c-70 -15 -125 -71 -125 -125 0 -43 27 -59 86 -52 78 8 145
82 130 141 -7 29 -48 45 -91 36z m-30 -90 c-4 -38 -4 -40 -15 -40 -5 0 -7 7
-4 15 4 8 1 22 -6 30 -11 13 -10 14 4 9 14 -5 16 -2 11 22 -4 23 -3 25 4 9 4
-11 7 -31 6 -45z m62 38 c-3 -8 -6 -5 -6 6 -1 11 2 17 5 13 3 -3 4 -12 1 -19z
m26 2 c-8 -30 -21 -34 -15 -5 2 14 8 25 12 25 5 0 6 -9 3 -20z m-52 -43 c-7
-7 -9 -1 -7 19 5 40 8 43 13 15 3 -13 0 -28 -6 -34z m-86 -7 c4 -6 11 -8 16
-5 5 3 6 -1 3 -9 -3 -9 -10 -16 -16 -16 -5 0 -7 4 -3 9 3 6 -3 14 -12 20 -10
6 -13 11 -6 11 6 0 15 -5 18 -10z"/>
</g>
</svg>
