<?xml version="1.0" standalone="no"?>
<!DOCTYPE svg PUBLIC "-//W3C//DTD SVG 20010904//EN"
 "http://www.w3.org/TR/2001/REC-SVG-20010904/DTD/svg10.dtd">
<svg version="1.0" xmlns="http://www.w3.org/2000/svg"
 width="268.000000pt" height="188.000000pt" viewBox="0 0 268.000000 188.000000"
 preserveAspectRatio="xMidYMid meet">

<g transform="translate(0.000000,188.000000) scale(0.100000,-0.100000)"
fill="#000000" stroke="none">
<path d="M1080 1624 c-171 -20 -274 -45 -337 -84 -44 -26 -41 -44 10 -75 179
-104 716 -107 917 -5 49 25 59 44 36 69 -22 24 -155 68 -243 81 -76 11 -329
21 -383 14z"/>
<path d="M660 1294 c0 -192 2 -214 35 -329 5 -18 -3 -22 -89 -38 -276 -53
-446 -144 -446 -239 0 -34 48 -90 106 -124 86 -50 243 -94 494 -138 47 -8 110
-22 140 -31 120 -36 573 -29 666 10 17 7 83 20 145 29 229 33 444 106 517 174
50 47 54 101 11 156 -45 58 -290 150 -460 172 -38 5 -49 10 -45 21 4 8 6 19 6
25 0 5 67 79 149 163 214 219 262 300 186 315 -37 8 -167 -13 -240 -39 -30
-11 -57 -16 -59 -13 -2 4 -3 24 -2 45 0 20 -1 37 -3 37 -2 0 -16 -11 -33 -25
-68 -58 -272 -95 -522 -95 -259 0 -467 40 -533 102 l-23 21 0 -199z m1318 83
c8 -10 5 -22 -11 -49 -25 -41 -175 -208 -187 -208 -4 0 -7 53 -6 117 l1 118
70 17 c87 20 119 22 133 5z m-796 -307 c-4 -12 -1 -11 15 3 11 9 24 17 29 17
5 0 2 -4 -6 -10 -12 -8 -12 -10 3 -16 14 -5 15 -9 6 -20 -7 -8 -9 -17 -5 -21
3 -3 6 -1 6 5 0 7 5 12 11 12 7 0 18 8 25 17 7 10 16 15 20 11 4 -4 2 -13 -4
-20 -6 -7 -10 -17 -9 -23 1 -5 -22 -10 -51 -11 -49 -1 -53 1 -48 20 5 19 3 19
-13 -3 -19 -25 -51 -24 -51 1 0 10 2 10 9 -1 7 -11 11 -10 20 7 7 14 8 23 1
27 -16 10 -4 20 23 20 17 0 23 -4 19 -15z m-443 -194 c37 -63 129 -158 189
-193 44 -26 52 -40 27 -49 -21 -8 -19 -27 5 -49 62 -56 398 -62 503 -9 31 16
36 48 10 63 -10 5 -16 11 -13 14 3 2 31 21 63 41 65 43 135 119 169 183 28 53
35 53 194 13 200 -50 324 -124 324 -191 0 -61 -32 -95 -135 -144 -302 -143
-1009 -178 -1495 -74 -170 37 -309 101 -344 159 -62 107 65 199 364 265 58 13
106 24 107 24 1 1 15 -23 32 -53z"/>
<path d="M1196 1044 c-5 -14 -4 -15 9 -4 17 14 19 20 6 20 -5 0 -12 -7 -15
-16z"/>
</g>
</svg>
